<svg width="369" height="99" viewBox="0 0 369 99" fill="none" xmlns="http://www.w3.org/2000/svg">
<path d="M154.985 40.5572V41.0833C154.985 42.4225 154.746 43.6183 154.268 44.6227C153.789 45.6272 153.072 46.5359 152.115 47.2534C151.159 47.9708 150.059 48.497 148.671 48.8318C147.332 49.2144 145.802 49.3579 144.128 49.3579H133.414V55.9585H126V33H143.745C145.467 33 146.997 33.1913 148.385 33.5261C149.772 33.8609 150.967 34.3392 151.924 35.0089C152.881 35.6785 153.646 36.4438 154.172 37.4004C154.698 38.3091 154.985 39.3614 154.985 40.5572ZM147.38 41.2268V40.892C147.38 39.8875 147.045 39.0744 146.328 38.5961C145.61 38.07 144.51 37.8308 142.98 37.8308H133.414V44.6227H142.884C144.367 44.6227 145.515 44.3357 146.28 43.714C146.997 43.0922 147.38 42.2791 147.38 41.2268Z" fill="#1f252f"/>
<path d="M187.51 40.5572V40.9398C187.51 42.3747 187.031 43.6183 186.075 44.5749C185.262 45.388 184.066 46.1055 182.535 46.6316C183.301 47.0142 183.875 47.4447 184.305 47.923C184.688 48.3535 185.07 49.0231 185.453 49.9319L186.41 52.3712C186.792 53.28 187.127 53.9974 187.414 54.5236C187.701 55.0497 187.988 55.528 188.323 55.9106H180.383C180.096 55.6237 179.857 55.241 179.618 54.7627C179.379 54.2844 179.139 53.7583 178.9 53.1365L177.752 50.2189C177.418 49.4057 176.891 48.784 176.174 48.4013C175.791 48.21 175.361 48.0665 174.787 47.9708C174.261 47.8752 173.591 47.7795 172.874 47.7795H165.938V55.9106H158.525V33H176.27C177.992 33 179.522 33.1913 180.909 33.5261C182.296 33.8609 183.492 34.3392 184.449 35.0089C185.405 35.6785 186.17 36.4438 186.697 37.4004C187.223 38.3091 187.51 39.3614 187.51 40.5572ZM179.905 40.7007V40.5093C179.905 38.6918 178.613 37.783 175.983 37.783H165.938V43.427H175.744C176.317 43.427 176.891 43.3791 177.418 43.2357C177.944 43.0922 178.374 42.9487 178.757 42.7095C179.522 42.2791 179.905 41.5616 179.905 40.7007Z" fill="#1f252f"/>
<path d="M218.073 56.0063H192.532V33L217.93 33V37.783L199.85 37.783V41.9921H216.399V46.7751H199.802V51.1755H218.025V56.0063H218.073Z" fill="#1f252f"/>
<path d="M272.886 56.0063H265.473V33H272.886V56.0063Z" fill="#1f252f"/>
<path d="M304.407 56.0063H278.865V33L304.263 33V37.783L286.183 37.783V41.9921H302.78V46.7751H286.183V51.1755H304.407V56.0063Z" fill="#1f252f"/>
<path d="M337.888 40.5572V40.9398C337.888 42.3747 337.409 43.6183 336.453 44.5749C335.64 45.388 334.444 46.1055 332.913 46.6316C333.679 47.0142 334.253 47.4447 334.683 47.923C335.066 48.3535 335.448 49.0231 335.831 49.9319L336.788 52.3712C337.17 53.28 337.505 53.9974 337.792 54.5236C338.079 55.0497 338.366 55.528 338.701 55.9106H330.761C330.474 55.6237 330.235 55.241 329.996 54.7627C329.757 54.2844 329.517 53.7583 329.278 53.1365L328.13 50.2189C327.796 49.4057 327.269 48.784 326.552 48.4013C326.169 48.21 325.739 48.0665 325.165 47.9708C324.639 47.8752 323.969 47.7795 323.252 47.7795H316.316V55.9106H308.903V33H326.648C328.369 33 329.9 33.1913 331.287 33.5261C332.674 33.8609 333.87 34.3392 334.827 35.0089C335.783 35.6785 336.548 36.4438 337.075 37.4004C337.601 38.3091 337.888 39.3614 337.888 40.5572ZM330.283 40.7007V40.5093C330.283 38.6918 328.991 37.783 326.361 37.783H316.268V43.427H326.074C326.648 43.427 327.222 43.3791 327.748 43.2357C328.274 43.0922 328.704 42.9487 329.087 42.7095C329.9 42.2791 330.283 41.5616 330.283 40.7007Z" fill="#1f252f"/>
<path d="M368.451 56.0063H342.91V33L368.307 33V37.783L350.228 37.783V41.9921H366.825V46.7751H350.228V51.1755H368.451V56.0063Z" fill="#1f252f"/>
<path d="M249.306 33L241.032 47.5882L232.709 33H222.617V56.0063H229.218V38.357L237.54 52.6582H244.475L252.798 38.357V56.0063L259.446 56.0063V33H249.306Z" fill="#1f252f"/>
<circle cx="49.5473" cy="49.1409" r="49.0719" fill="#1F252F"/>
<path d="M49.5 0C22.1842 0 0 22.1842 0 49.5C0 76.8158 22.1842 99 49.5 99C76.8158 99 99 76.8158 99 49.5C99 22.1842 76.7368 0 49.5 0ZM31.4211 91.4211C24 88.2632 17.6842 83.1316 12.8684 76.7368H31.4211V91.4211ZM31.4211 74.2895H12.4737L16.4211 59.4474C19.2632 61.5789 22.8158 62.8421 26.6053 62.8421C28.2632 62.8421 29.9211 62.6053 31.4211 62.1316V74.2895ZM15.1579 54.8684C13.2632 52.4211 12.0789 49.2632 12.0789 45.9474C12.0789 39.8684 15.8684 34.5789 21.1579 32.4474L15.1579 54.8684ZM31.4211 59.6842C29.9211 60.2368 28.2632 60.4737 26.6053 60.4737C22.9737 60.4737 19.6579 59.1316 17.1316 56.9211L23.9211 31.6579C24.7895 31.5 25.7368 31.4211 26.6053 31.4211C28.2632 31.4211 29.9211 31.7368 31.4211 32.2105V59.6842ZM49.5 95.1316C43.9737 95.1316 38.7632 94.1842 33.8684 92.3684V61.2632C36.4737 60 38.7632 58.1053 40.4211 55.8158C40.7368 63.3158 44.2105 70.5 50.1316 75.6316C54.7895 79.6579 60.1579 81.9474 65.4474 82.4211L70.2632 90.0789C64.0263 93.3158 57 95.1316 49.5 95.1316ZM43.1842 42.3947C42.0789 37.1842 38.5263 32.8421 33.7895 30.6316V14.3684H48.5526C55.8947 14.3684 61.9737 19.8947 62.921 27C54.1579 28.8158 46.9737 34.6579 43.1842 42.3947ZM63.0789 29.4474C62.7632 37.1053 56.3684 43.3421 48.6316 43.3421H45.4737C48.7895 36.3947 55.1842 31.1842 63.0789 29.4474ZM43.6579 48L63.7895 79.7368C59.6053 79.0263 55.4211 76.9737 51.7105 73.8158C46.1053 69 42.8684 62.1316 42.7895 55.1053C42.7105 52.6579 43.0263 50.2895 43.6579 48ZM40.8947 43.3421H33.7895V33.3158C37.5 35.4474 40.1053 39.0789 40.8947 43.3421ZM41.1316 45.7895C41.1316 45.8684 41.1316 45.8684 41.1316 45.9474C41.1316 51.3158 38.2105 56.0526 33.7895 58.5789V45.7895H41.1316ZM72.3947 88.9737L68.2895 82.5C70.5789 82.4211 72.9474 81.8684 75.0789 81.0789C83.7632 77.6842 90.1579 68.7632 91.1053 58.8947L91.2632 57.5526H76.8158V60H88.5789C87.3158 68.2895 81.6316 75.9474 74.2895 78.7895C71.9211 79.7368 69.3947 80.1316 66.7895 80.1316L45.0789 45.7895H48.5526C57.9474 45.7895 65.5263 38.2105 65.5263 28.8947C65.5263 19.5789 57.9474 12 48.6316 12H35.2105H31.5V29.6842C30 29.2105 28.3421 28.9737 26.6842 28.9737C25.9737 28.9737 25.3421 29.0526 24.6316 29.1316L27 20.2895H16.8947V22.7368H23.7632L21.8684 29.6842C14.7632 31.7368 9.55263 38.2895 9.55263 46.0263C9.55263 50.6053 11.3684 54.7105 14.2895 57.7895L10.2632 72.9474C6.15789 66.0789 3.78947 58.1053 3.78947 49.5C3.78947 24.3158 24.2368 3.86842 49.4211 3.86842C74.6053 3.86842 95.0526 24.3947 95.0526 49.5C95.1316 66.3158 85.9737 81 72.3947 88.9737ZM76.8947 30.6316C70.1842 30.6316 64.7368 36.0789 64.7368 42.7895C64.7368 49.5 70.1842 54.9474 76.8947 54.9474C80.7632 54.9474 84.3947 53.1316 86.6842 50.0526C87.3947 49.1053 87.9474 48.0789 88.3421 47.0526H85.7368C85.5 47.6053 85.1842 48.1579 84.7895 48.6316C82.9737 51.0789 80.0526 52.5789 76.9737 52.5789C72 52.5789 67.8947 48.8684 67.3421 44.0526H89.1316V42.8684C89.0526 36.0789 83.6053 30.6316 76.8947 30.6316ZM67.1842 41.6053C67.8158 36.7895 71.9211 33.0789 76.8158 33.0789C81.7895 33.0789 85.8947 36.7895 86.4474 41.6053H67.1842Z" fill="#DC9F48"/>
</svg>
