<svg width="84" height="121" viewBox="0 0 84 121" fill="none" xmlns="http://www.w3.org/2000/svg">
<path d="M41.9906 0C18.8409 0 0 18.8672 0 42.0491C0 71.1921 42.0472 120.981 42.0472 120.981C42.0472 120.981 84 69.7538 84 42.0491C84 18.8672 65.1591 0 41.9906 0ZM54.6709 54.3686C51.1748 57.8696 46.5827 59.6106 41.9906 59.6106C37.3984 59.6106 32.8063 57.8696 29.3102 54.3686C22.3181 47.3667 22.3181 35.9934 29.3102 28.9916C32.6929 25.6042 37.1906 23.7307 41.9906 23.7307C46.7717 23.7307 51.2693 25.6042 54.6709 28.9916C61.663 35.9934 61.663 47.3667 54.6709 54.3686Z" fill="#F6AC6D"/>
<circle cx="43" cy="44" r="25" fill="#F6AC6D"/>
<path d="M54.9446 44.689C54.9446 45.3495 54.4439 45.8448 53.7763 45.8448H50.1048C49.4372 45.8448 48.9365 45.3495 48.9365 44.689V41.0566C48.9365 40.3961 49.4372 39.9008 50.1048 39.9008H53.7763C54.4439 39.9008 54.9446 40.3961 54.9446 41.0566V44.689Z" fill="#1F252F"/>
<path d="M54.9444 54.4307C54.9444 55.0912 54.4437 55.5865 53.7762 55.5865H40.2581C39.5905 55.5865 39.0898 55.0912 39.0898 54.4307V50.7983C39.0898 50.1378 39.5905 49.6425 40.2581 49.6425H53.7762C54.4437 49.6425 54.9444 50.1378 54.9444 50.7983V54.4307Z" fill="#1F252F"/>
<path d="M40.924 34.2869C40.5902 34.6171 40.5902 35.1124 40.7571 35.4427C40.924 35.7729 41.2578 36.1031 41.7584 36.1031H44.2618C44.9293 36.1031 45.43 35.6078 45.43 34.9473V32.6357C45.43 32.1404 45.0962 31.8102 44.7625 31.6451C44.4287 31.4799 43.928 31.6451 43.5942 31.8102L40.924 34.2869Z" fill="#1F252F"/>
<path d="M49.4363 25.866C49.2694 26.0311 49.1025 26.3613 49.1025 26.6916V35.1123C49.1025 35.7728 49.6032 36.2681 50.2708 36.2681H53.9424C54.6099 36.2681 55.1106 35.7728 55.1106 35.1123V23.0591C55.1106 22.5637 54.7768 22.2335 54.443 22.0684C54.1092 21.9033 53.6086 22.0684 53.2748 22.2335L49.4363 25.866Z" fill="#1F252F"/>
<path d="M31.0783 44.0286C30.7445 44.3588 30.7445 44.8542 30.9114 45.1844C31.0783 45.5146 31.4121 45.8448 31.9127 45.8448H44.0957C44.7633 45.8448 45.2639 45.3495 45.2639 44.689V41.0566C45.2639 40.3961 44.7633 39.9008 44.0957 39.9008H35.5843C35.2505 39.9008 35.0836 40.0659 34.7499 40.231L31.0783 44.0286Z" fill="#1F252F"/>
<path d="M21.3993 53.6051C21.0655 53.9354 20.8986 54.4307 21.0655 54.7609C21.2324 55.0911 21.5661 55.4214 22.0668 55.4214H34.0829C34.4167 55.4214 34.5836 55.2563 34.9174 55.0912C35.0843 54.926 35.2511 54.5958 35.2511 54.2656V50.6331C35.2511 49.9726 34.7505 49.4773 34.0829 49.4773H25.9053C25.5715 49.4773 25.4046 49.6424 25.0708 49.8075L21.3993 53.6051Z" fill="#1F252F"/>
</svg>
