<?xml version="1.0" encoding="UTF-8" ?>
<!DOCTYPE svg PUBLIC "-//W3C//DTD SVG 1.1//EN" "http://www.w3.org/Graphics/SVG/1.1/DTD/svg11.dtd">
<svg width="512pt" height="512pt" viewBox="0 0 512 512" version="1.1" xmlns="http://www.w3.org/2000/svg">
<g id="#f6ac6dff">
<path fill="#f6ac6d" opacity="1.00" d=" M 251.36 0.00 L 261.51 0.00 C 297.85 0.86 334.04 9.30 366.77 25.15 C 417.07 49.19 459.06 90.20 484.23 139.95 C 501.63 173.77 510.95 211.58 512.00 249.56 L 512.00 261.72 C 511.07 301.97 500.65 342.00 481.45 377.40 C 462.79 412.00 436.08 442.21 403.99 464.91 C 362.44 494.61 311.75 511.13 260.70 512.00 L 250.47 512.00 C 208.19 511.05 166.17 499.60 129.44 478.57 C 77.51 449.14 36.49 400.99 15.89 344.94 C 5.84 317.97 0.62 289.28 0.00 260.53 L 0.00 251.45 C 0.84 203.25 15.51 155.36 42.20 115.19 C 62.18 84.85 88.69 58.84 119.41 39.46 C 158.66 14.50 204.87 0.82 251.36 0.00 M 239.12 26.20 C 182.37 30.09 127.57 56.18 88.67 97.66 C 61.79 125.92 42.32 161.16 32.72 198.97 C 22.47 239.24 23.31 282.28 35.23 322.09 C 45.61 356.92 64.46 389.18 89.64 415.38 C 120.33 447.51 160.50 470.53 203.84 480.46 C 248.51 490.83 296.28 487.60 339.05 470.98 C 372.46 458.11 402.75 437.24 426.76 410.68 C 455.56 379.06 475.25 339.23 482.75 297.11 C 491.17 250.67 485.05 201.63 464.98 158.87 C 441.96 109.01 400.40 68.05 350.24 45.68 C 315.59 30.06 277.01 23.43 239.12 26.20 Z" />
</g>
<g id="#1f252fff">
<path fill="#1f252f" opacity="1.00" d=" M 239.12 26.20 C 277.01 23.43 315.59 30.06 350.24 45.68 C 400.40 68.05 441.96 109.01 464.98 158.87 C 485.05 201.63 491.17 250.67 482.75 297.11 C 475.25 339.23 455.56 379.06 426.76 410.68 C 402.75 437.24 372.46 458.11 339.05 470.98 C 296.28 487.60 248.51 490.83 203.84 480.46 C 160.50 470.53 120.33 447.51 89.64 415.38 C 64.46 389.18 45.61 356.92 35.23 322.09 C 23.31 282.28 22.47 239.24 32.72 198.97 C 42.32 161.16 61.79 125.92 88.67 97.66 C 127.57 56.18 182.37 30.09 239.12 26.20 M 153.63 128.00 C 153.62 136.54 153.64 145.08 153.61 153.62 C 221.87 153.63 290.13 153.62 358.38 153.63 C 358.37 145.09 358.38 136.55 358.38 128.01 C 290.13 128.00 221.88 128.00 153.63 128.00 M 241.25 166.35 C 226.38 178.60 211.54 190.92 196.69 203.20 C 202.03 209.85 207.59 216.31 212.94 222.95 C 223.05 214.59 233.19 206.26 243.26 197.86 C 243.31 255.68 243.10 313.50 243.37 371.32 C 251.83 371.13 260.30 371.35 268.77 371.20 C 268.72 313.43 268.77 255.67 268.75 197.91 C 278.89 206.24 288.99 214.62 299.10 222.99 C 304.37 216.29 310.02 209.90 315.30 203.21 C 300.47 190.88 285.63 178.54 270.69 166.34 C 260.88 166.40 251.07 166.39 241.25 166.35 Z" />
</g>
<g id="#ffffffff">
<path fill="#ffffff" opacity="1.00" d=" M 153.63 128.00 C 221.88 128.00 290.13 128.00 358.38 128.01 C 358.38 136.55 358.37 145.09 358.38 153.63 C 290.13 153.62 221.87 153.63 153.61 153.62 C 153.64 145.08 153.62 136.54 153.63 128.00 Z" />
<path fill="#ffffff" opacity="1.00" d=" M 241.25 166.35 C 251.07 166.39 260.88 166.40 270.69 166.34 C 285.63 178.54 300.47 190.88 315.30 203.21 C 310.02 209.90 304.37 216.29 299.10 222.99 C 288.99 214.62 278.89 206.24 268.75 197.91 C 268.77 255.67 268.72 313.43 268.77 371.20 C 260.30 371.35 251.83 371.13 243.37 371.32 C 243.10 313.50 243.31 255.68 243.26 197.86 C 233.19 206.26 223.05 214.59 212.94 222.95 C 207.59 216.31 202.03 209.85 196.69 203.20 C 211.54 190.92 226.38 178.60 241.25 166.35 Z" />
</g>
</svg>
