<?xml version="1.0" encoding="UTF-8" ?>
<!DOCTYPE svg PUBLIC "-//W3C//DTD SVG 1.1//EN" "http://www.w3.org/Graphics/SVG/1.1/DTD/svg11.dtd">
<svg width="512pt" height="512pt" viewBox="0 0 512 512" version="1.1" xmlns="http://www.w3.org/2000/svg">
<g id="#f6ac6dff">
<path fill="#f6ac6d" opacity="1.00" d=" M 251.32 0.00 L 261.55 0.00 C 301.32 0.91 340.88 11.05 375.99 29.80 C 422.18 54.28 460.59 93.24 484.20 139.90 C 501.61 173.71 510.93 211.51 512.00 249.50 L 512.00 261.77 C 511.06 302.00 500.65 342.01 481.45 377.40 C 462.79 411.99 436.09 442.20 404.01 464.90 C 362.46 494.60 311.78 511.12 260.73 512.00 L 250.46 512.00 C 208.16 511.04 166.13 499.59 129.40 478.54 C 81.55 451.38 42.88 408.38 21.08 357.84 C 7.69 327.22 0.70 293.91 0.00 260.53 L 0.00 251.42 C 0.32 239.90 1.20 228.39 2.97 217.01 C 9.92 170.82 30.05 126.74 60.21 91.09 C 82.36 64.76 109.87 42.94 140.60 27.44 C 174.79 10.03 212.98 0.74 251.32 0.00 M 239.15 26.19 C 182.38 30.08 127.56 56.18 88.66 97.68 C 67.12 120.35 50.29 147.48 39.57 176.86 C 24.62 217.55 21.64 262.49 30.80 304.83 C 38.31 339.93 54.33 373.15 76.96 401.00 C 104.80 435.45 142.76 461.64 184.93 475.22 C 231.09 490.23 282.02 490.14 328.11 474.89 C 364.22 463.05 397.26 442.01 423.33 414.37 C 451.61 384.64 471.71 347.19 480.71 307.14 C 491.08 261.52 487.29 212.71 469.56 169.38 C 447.75 115.10 404.32 69.99 350.98 46.02 C 316.15 30.16 277.30 23.41 239.15 26.19 Z" />
</g>
<g id="#1f252fff">
<path fill="#1f252f" opacity="1.00" d=" M 239.15 26.19 C 277.30 23.41 316.15 30.16 350.98 46.02 C 404.32 69.99 447.75 115.10 469.56 169.38 C 487.29 212.71 491.08 261.52 480.71 307.14 C 471.71 347.19 451.61 384.64 423.33 414.37 C 397.26 442.01 364.22 463.05 328.11 474.89 C 282.02 490.14 231.09 490.23 184.93 475.22 C 142.76 461.64 104.80 435.45 76.96 401.00 C 54.33 373.15 38.31 339.93 30.80 304.83 C 21.64 262.49 24.62 217.55 39.57 176.86 C 50.29 147.48 67.12 120.35 88.66 97.68 C 127.56 56.18 182.38 30.08 239.15 26.19 M 249.43 102.54 C 227.44 103.46 205.65 109.13 186.07 119.20 C 156.21 134.48 131.54 159.77 117.23 190.12 C 105.40 214.84 100.52 242.78 103.04 270.05 C 105.74 300.52 117.88 330.06 137.42 353.60 C 155.55 375.66 179.92 392.57 207.03 401.60 C 233.95 410.74 263.43 412.04 291.10 405.56 C 313.07 400.49 333.81 390.37 351.45 376.34 C 381.91 352.32 402.68 316.40 408.06 277.95 C 412.55 246.75 407.27 214.16 392.82 186.12 C 378.26 157.58 354.53 133.78 325.97 119.24 C 302.48 107.15 275.81 101.34 249.43 102.54 Z" />
<path fill="#1f252f" opacity="1.00" d=" M 174.95 156.94 C 194.25 141.03 218.34 131.07 243.22 128.61 C 243.29 154.51 243.21 180.41 243.27 206.31 C 238.63 207.73 234.08 209.45 229.87 211.88 C 211.57 193.56 193.25 175.26 174.95 156.94 Z" />
<path fill="#1f252f" opacity="1.00" d=" M 268.87 128.67 C 294.68 131.05 319.38 141.92 339.17 158.54 C 321.21 177.10 302.74 195.21 284.44 213.46 C 279.77 210.05 274.22 208.19 268.91 206.20 C 268.82 180.36 268.91 154.51 268.87 128.67 Z" />
<path fill="#1f252f" opacity="1.00" d=" M 128.64 243.26 C 131.06 218.36 141.01 194.25 156.94 174.94 C 175.27 193.26 193.60 211.59 211.92 229.92 C 209.46 234.13 207.73 238.68 206.23 243.30 C 180.37 243.20 154.50 243.26 128.64 243.26 Z" />
<path fill="#1f252f" opacity="1.00" d=" M 301.66 232.77 C 320.05 214.25 338.55 195.85 356.99 177.39 C 371.83 196.22 381.02 219.39 383.39 243.23 C 357.48 243.29 331.58 243.22 305.68 243.26 C 304.56 239.68 303.41 236.10 301.66 232.77 Z" />
<path fill="#1f252f" opacity="1.00" d=" M 248.42 231.54 C 262.31 226.73 278.69 236.57 281.12 251.00 C 284.18 264.35 274.49 278.73 261.06 281.10 C 247.68 284.19 233.22 274.46 230.90 260.97 C 228.12 248.54 236.24 235.07 248.42 231.54 Z" />
<path fill="#1f252f" opacity="1.00" d=" M 128.61 268.77 C 154.51 268.70 180.41 268.79 206.32 268.73 C 207.97 274.28 210.15 279.71 213.45 284.51 C 195.29 302.78 177.01 320.93 158.84 339.19 C 141.73 319.65 131.20 294.58 128.61 268.77 Z" />
<path fill="#1f252f" opacity="1.00" d=" M 300.08 282.07 C 302.63 277.92 304.24 273.32 305.74 268.72 C 331.61 268.78 357.49 268.75 383.36 268.73 C 380.99 293.65 370.98 317.75 355.06 337.05 C 336.73 318.73 318.40 300.40 300.08 282.07 Z" />
<path fill="#1f252f" opacity="1.00" d=" M 268.86 305.66 C 273.46 304.27 277.95 302.52 282.13 300.12 C 300.43 318.44 318.75 336.74 337.05 355.06 C 317.78 370.97 293.72 380.89 268.87 383.39 C 268.87 357.48 268.89 331.57 268.86 305.66 Z" />
<path fill="#1f252f" opacity="1.00" d=" M 177.39 356.99 C 195.88 338.53 214.29 320.00 232.84 301.61 C 236.15 303.39 239.73 304.55 243.28 305.74 C 243.21 331.61 243.25 357.48 243.26 383.36 C 219.41 381.04 196.23 371.83 177.39 356.99 Z" />
</g>
<g id="#ffffffff">
<path fill="#ffffff" opacity="1.00" d=" M 249.43 102.54 C 275.81 101.34 302.48 107.15 325.97 119.24 C 354.53 133.78 378.26 157.58 392.82 186.12 C 407.27 214.16 412.55 246.75 408.06 277.95 C 402.68 316.40 381.91 352.32 351.45 376.34 C 333.81 390.37 313.07 400.49 291.10 405.56 C 263.43 412.04 233.95 410.74 207.03 401.60 C 179.92 392.57 155.55 375.66 137.42 353.60 C 117.88 330.06 105.74 300.52 103.04 270.05 C 100.52 242.78 105.40 214.84 117.23 190.12 C 131.54 159.77 156.21 134.48 186.07 119.20 C 205.65 109.13 227.44 103.46 249.43 102.54 M 174.95 156.94 C 193.25 175.26 211.57 193.56 229.87 211.88 C 234.08 209.45 238.63 207.73 243.27 206.31 C 243.21 180.41 243.29 154.51 243.22 128.61 C 218.34 131.07 194.25 141.03 174.95 156.94 M 268.87 128.67 C 268.91 154.51 268.82 180.36 268.91 206.20 C 274.22 208.19 279.77 210.05 284.44 213.46 C 302.74 195.21 321.21 177.10 339.17 158.54 C 319.38 141.92 294.68 131.05 268.87 128.67 M 128.64 243.26 C 154.50 243.26 180.37 243.20 206.23 243.30 C 207.73 238.68 209.46 234.13 211.92 229.92 C 193.60 211.59 175.27 193.26 156.94 174.94 C 141.01 194.25 131.06 218.36 128.64 243.26 M 301.66 232.77 C 303.41 236.10 304.56 239.68 305.68 243.26 C 331.58 243.22 357.48 243.29 383.39 243.23 C 381.02 219.39 371.83 196.22 356.99 177.39 C 338.55 195.85 320.05 214.25 301.66 232.77 M 248.42 231.54 C 236.24 235.07 228.12 248.54 230.90 260.97 C 233.22 274.46 247.68 284.19 261.06 281.10 C 274.49 278.73 284.18 264.35 281.12 251.00 C 278.69 236.57 262.31 226.73 248.42 231.54 M 128.61 268.77 C 131.20 294.58 141.73 319.65 158.84 339.19 C 177.01 320.93 195.29 302.78 213.45 284.51 C 210.15 279.71 207.97 274.28 206.32 268.73 C 180.41 268.79 154.51 268.70 128.61 268.77 M 300.08 282.07 C 318.40 300.40 336.73 318.73 355.06 337.05 C 370.98 317.75 380.99 293.65 383.36 268.73 C 357.49 268.75 331.61 268.78 305.74 268.72 C 304.24 273.32 302.63 277.92 300.08 282.07 M 268.86 305.66 C 268.89 331.57 268.87 357.48 268.87 383.39 C 293.72 380.89 317.78 370.97 337.05 355.06 C 318.75 336.74 300.43 318.44 282.13 300.12 C 277.95 302.52 273.46 304.27 268.86 305.66 M 177.39 356.99 C 196.23 371.83 219.41 381.04 243.26 383.36 C 243.25 357.48 243.21 331.61 243.28 305.74 C 239.73 304.55 236.15 303.39 232.84 301.61 C 214.29 320.00 195.88 338.53 177.39 356.99 Z" />
</g>
</svg>
