<?xml version="1.0" encoding="UTF-8" ?>
<!DOCTYPE svg PUBLIC "-//W3C//DTD SVG 1.1//EN" "http://www.w3.org/Graphics/SVG/1.1/DTD/svg11.dtd">
<svg width="512pt" height="512pt" viewBox="0 0 512 512" version="1.1" xmlns="http://www.w3.org/2000/svg">
<g id="#f6ac6dff">
<path fill="#f6ac6d" opacity="1.00" d=" M 251.48 0.00 L 261.31 0.00 C 297.71 0.82 333.97 9.27 366.77 25.15 C 418.18 49.71 460.90 92.02 485.87 143.24 C 502.28 176.30 511.03 213.02 512.00 249.89 L 512.00 261.56 C 511.10 301.85 500.68 341.94 481.46 377.38 C 462.91 411.79 436.39 441.87 404.53 464.52 C 362.83 494.50 311.87 511.16 260.54 512.00 L 250.68 512.00 C 208.33 511.09 166.23 499.63 129.46 478.57 C 77.49 449.13 36.45 400.95 15.86 344.86 C 5.80 317.85 0.59 289.10 0.00 260.29 L 0.00 251.67 C 0.30 239.83 1.23 228.00 3.08 216.29 C 10.13 170.38 30.18 126.60 60.17 91.15 C 82.79 64.23 111.02 42.04 142.54 26.47 C 176.28 9.65 213.81 0.70 251.48 0.00 M 239.23 26.19 C 179.56 30.21 122.15 58.91 82.89 103.98 C 56.69 133.70 38.34 170.29 30.39 209.12 C 22.23 248.45 24.54 289.91 37.10 328.08 C 47.81 360.60 65.89 390.67 89.62 415.36 C 120.32 447.51 160.52 470.55 203.89 480.47 C 248.82 490.89 296.89 487.55 339.83 470.67 C 373.83 457.45 404.52 435.90 428.67 408.57 C 456.43 377.27 475.44 338.27 482.76 297.06 C 491.16 250.66 485.06 201.68 465.01 158.95 C 442.01 109.07 400.46 68.09 350.30 45.71 C 315.67 30.08 277.11 23.44 239.23 26.19 Z" />
</g>
<g id="#1f252fff">
<path fill="#1f252f" opacity="1.00" d=" M 239.23 26.19 C 277.11 23.44 315.67 30.08 350.30 45.71 C 400.46 68.09 442.01 109.07 465.01 158.95 C 485.06 201.68 491.16 250.66 482.76 297.06 C 475.44 338.27 456.43 377.27 428.67 408.57 C 404.52 435.90 373.83 457.45 339.83 470.67 C 296.89 487.55 248.82 490.89 203.89 480.47 C 160.52 470.55 120.32 447.51 89.62 415.36 C 65.89 390.67 47.81 360.60 37.10 328.08 C 24.54 289.91 22.23 248.45 30.39 209.12 C 38.34 170.29 56.69 133.70 82.89 103.98 C 122.15 58.91 179.56 30.21 239.23 26.19 M 166.37 128.01 C 166.37 217.59 166.40 307.18 166.36 396.76 C 226.11 396.72 285.86 396.78 345.61 396.73 C 345.65 307.16 345.61 217.58 345.63 128.01 C 285.88 127.99 226.13 128.00 166.37 128.01 Z" />
<path fill="#1f252f" opacity="1.00" d=" M 192.00 153.63 C 234.67 153.62 277.33 153.62 320.00 153.63 C 320.00 226.17 320.00 298.71 320.00 371.25 C 277.33 371.25 234.67 371.25 192.00 371.25 C 192.00 298.71 192.00 226.17 192.00 153.63 M 268.75 256.00 C 268.76 264.54 268.72 273.07 268.77 281.61 C 277.31 281.65 285.84 281.62 294.38 281.62 C 294.36 273.08 294.38 264.54 294.37 256.00 C 285.83 256.00 277.29 256.00 268.75 256.00 Z" />
</g>
<g id="#ffffffff">
<path fill="#ffffff" opacity="1.00" d=" M 166.37 128.01 C 226.13 128.00 285.88 127.99 345.63 128.01 C 345.61 217.58 345.65 307.16 345.61 396.73 C 285.86 396.78 226.11 396.72 166.36 396.76 C 166.40 307.18 166.37 217.59 166.37 128.01 M 192.00 153.63 C 192.00 226.17 192.00 298.71 192.00 371.25 C 234.67 371.25 277.33 371.25 320.00 371.25 C 320.00 298.71 320.00 226.17 320.00 153.63 C 277.33 153.62 234.67 153.62 192.00 153.63 Z" />
<path fill="#ffffff" opacity="1.00" d=" M 268.75 256.00 C 277.29 256.00 285.83 256.00 294.37 256.00 C 294.38 264.54 294.36 273.08 294.38 281.62 C 285.84 281.62 277.31 281.65 268.77 281.61 C 268.72 273.07 268.76 264.54 268.75 256.00 Z" />
</g>
</svg>
