<?xml version="1.0" encoding="UTF-8" ?>
<!DOCTYPE svg PUBLIC "-//W3C//DTD SVG 1.1//EN" "http://www.w3.org/Graphics/SVG/1.1/DTD/svg11.dtd">
<svg width="512pt" height="512pt" viewBox="0 0 512 512" version="1.1" xmlns="http://www.w3.org/2000/svg">
<g id="#f6ac6dff">
<path fill="#f6ac6d" opacity="1.00" d=" M 251.39 0.00 L 261.43 0.00 C 301.27 0.89 340.89 11.04 376.06 29.83 C 422.22 54.32 460.60 93.27 484.21 139.91 C 501.63 173.77 510.97 211.64 512.00 249.68 L 512.00 261.65 C 511.06 303.43 499.85 344.97 479.27 381.36 C 460.72 414.32 434.83 443.10 403.95 464.94 C 362.38 494.64 311.68 511.15 260.61 512.00 L 250.58 512.00 C 208.01 511.07 165.72 499.48 128.82 478.21 C 76.33 448.28 35.10 399.19 14.90 342.22 C 5.48 316.01 0.58 288.25 0.00 260.42 L 0.00 251.57 C 0.82 202.85 15.79 154.44 42.99 113.99 C 63.00 83.97 89.44 58.26 120.00 39.08 C 159.13 14.36 205.12 0.81 251.39 0.00 M 239.19 26.19 C 182.40 30.07 127.56 56.18 88.64 97.70 C 61.79 125.93 42.34 161.12 32.74 198.88 C 23.01 237.09 23.23 277.79 33.47 315.87 C 43.39 353.06 62.96 387.60 89.62 415.36 C 123.15 450.50 168.05 474.69 215.96 482.91 C 257.33 490.21 300.70 486.04 339.82 470.68 C 377.10 456.17 410.41 431.67 435.46 400.50 C 459.57 370.72 476.03 334.81 482.76 297.08 C 491.16 250.67 485.06 201.66 465.01 158.93 C 442.00 109.05 400.45 68.08 350.29 45.71 C 315.65 30.08 277.08 23.43 239.19 26.19 Z" />
</g>
<g id="#1f252fff">
<path fill="#1f252f" opacity="1.00" d=" M 239.19 26.19 C 277.08 23.43 315.65 30.08 350.29 45.71 C 400.45 68.08 442.00 109.05 465.01 158.93 C 485.06 201.66 491.16 250.67 482.76 297.08 C 476.03 334.81 459.57 370.72 435.46 400.50 C 410.41 431.67 377.10 456.17 339.82 470.68 C 300.70 486.04 257.33 490.21 215.96 482.91 C 168.05 474.69 123.15 450.50 89.62 415.36 C 62.96 387.60 43.39 353.06 33.47 315.87 C 23.23 277.79 23.01 237.09 32.74 198.88 C 42.34 161.12 61.79 125.93 88.64 97.70 C 127.56 56.18 182.40 30.07 239.19 26.19 M 166.38 166.38 C 226.13 166.37 285.87 166.37 345.62 166.38 C 345.63 157.83 345.63 149.28 345.62 140.73 C 285.88 140.79 226.14 140.71 166.39 140.77 C 166.35 149.31 166.38 157.84 166.38 166.38 M 196.51 192.67 C 179.34 195.36 164.05 207.45 157.52 223.55 C 154.82 229.99 153.52 236.98 153.61 243.96 C 153.64 273.63 153.62 303.30 153.62 332.97 C 153.74 342.27 152.87 351.84 155.89 360.81 C 161.95 381.11 181.76 396.35 202.99 396.75 C 238.33 396.74 273.68 396.77 309.02 396.74 C 330.24 396.39 349.98 381.16 356.10 360.91 C 359.15 351.90 358.26 342.30 358.38 332.96 C 358.36 302.29 358.41 271.61 358.35 240.93 C 357.73 219.75 342.45 200.04 322.08 194.19 C 313.32 191.30 304.01 192.09 294.94 192.00 C 264.98 192.00 235.02 192.01 205.06 192.00 C 202.20 192.00 199.33 192.20 196.51 192.67 Z" />
<path fill="#1f252f" opacity="1.00" d=" M 179.31 241.07 C 180.11 228.54 191.37 217.66 203.99 217.63 C 236.65 217.61 269.31 217.63 301.97 217.62 C 305.69 217.64 309.46 217.40 313.10 218.28 C 323.89 220.70 332.50 230.83 332.73 241.96 C 332.78 250.88 332.73 259.82 332.75 268.75 C 281.58 268.75 230.42 268.75 179.25 268.75 C 179.29 259.52 179.16 250.29 179.31 241.07 Z" />
<path fill="#1f252f" opacity="1.00" d=" M 179.24 294.36 C 230.40 294.41 281.57 294.34 332.73 294.39 C 332.77 302.92 332.73 311.46 332.75 319.99 C 281.58 320.00 230.41 320.01 179.24 319.99 C 179.25 311.44 179.26 302.90 179.24 294.36 Z" />
<path fill="#1f252f" opacity="1.00" d=" M 179.14 345.62 C 230.37 345.64 281.60 345.59 332.83 345.65 C 333.14 359.09 321.32 371.09 307.94 371.20 C 273.97 371.31 240.00 371.21 206.03 371.25 C 199.97 371.35 193.77 369.61 189.01 365.77 C 182.84 361.03 179.23 353.37 179.14 345.62 Z" />
</g>
<g id="#ffffffff">
<path fill="#ffffff" opacity="1.00" d=" M 166.38 166.38 C 166.38 157.84 166.35 149.31 166.39 140.77 C 226.14 140.71 285.88 140.79 345.62 140.73 C 345.63 149.28 345.63 157.83 345.62 166.38 C 285.87 166.37 226.13 166.37 166.38 166.38 Z" />
<path fill="#ffffff" opacity="1.00" d=" M 196.51 192.67 C 199.33 192.20 202.20 192.00 205.06 192.00 C 235.02 192.01 264.98 192.00 294.94 192.00 C 304.01 192.09 313.32 191.30 322.08 194.19 C 342.45 200.04 357.73 219.75 358.35 240.93 C 358.41 271.61 358.36 302.29 358.38 332.96 C 358.26 342.30 359.15 351.90 356.10 360.91 C 349.98 381.16 330.24 396.39 309.02 396.74 C 273.68 396.77 238.33 396.74 202.99 396.75 C 181.76 396.35 161.95 381.11 155.89 360.81 C 152.87 351.84 153.74 342.27 153.62 332.97 C 153.62 303.30 153.64 273.63 153.61 243.96 C 153.52 236.98 154.82 229.99 157.52 223.55 C 164.05 207.45 179.34 195.36 196.51 192.67 M 179.31 241.07 C 179.16 250.29 179.29 259.52 179.25 268.75 C 230.42 268.75 281.58 268.75 332.75 268.75 C 332.73 259.82 332.78 250.88 332.73 241.96 C 332.50 230.83 323.89 220.70 313.10 218.28 C 309.46 217.40 305.69 217.64 301.97 217.62 C 269.31 217.63 236.65 217.61 203.99 217.63 C 191.37 217.66 180.11 228.54 179.31 241.07 M 179.24 294.36 C 179.26 302.90 179.25 311.44 179.24 319.99 C 230.41 320.01 281.58 320.00 332.75 319.99 C 332.73 311.46 332.77 302.92 332.73 294.39 C 281.57 294.34 230.40 294.41 179.24 294.36 M 179.14 345.62 C 179.23 353.37 182.84 361.03 189.01 365.77 C 193.77 369.61 199.97 371.35 206.03 371.25 C 240.00 371.21 273.97 371.31 307.94 371.20 C 321.32 371.09 333.14 359.09 332.83 345.65 C 281.60 345.59 230.37 345.64 179.14 345.62 Z" />
</g>
</svg>
