<?xml version="1.0" encoding="UTF-8" ?>
<!DOCTYPE svg PUBLIC "-//W3C//DTD SVG 1.1//EN" "http://www.w3.org/Graphics/SVG/1.1/DTD/svg11.dtd">
<svg width="512pt" height="512pt" viewBox="0 0 512 512" version="1.1" xmlns="http://www.w3.org/2000/svg">
<g id="#f6ac6dff">
<path fill="#f6ac6d" opacity="1.00" d=" M 251.35 0.00 L 261.50 0.00 C 296.12 0.83 330.61 8.50 362.10 22.96 C 407.70 43.65 446.90 78.13 473.33 120.65 C 497.51 159.13 510.83 204.20 512.00 249.60 L 512.00 261.66 C 511.06 303.41 499.86 344.92 479.31 381.29 C 460.77 414.26 434.88 443.06 404.00 464.90 C 362.43 494.62 311.71 511.14 260.63 512.00 L 250.53 512.00 C 208.21 511.06 166.15 499.59 129.40 478.54 C 77.47 449.10 36.45 400.93 15.87 344.87 C 5.82 317.91 0.61 289.23 0.00 260.48 L 0.00 251.51 C 0.88 194.21 21.71 137.47 58.31 93.37 C 80.78 66.03 108.97 43.40 140.57 27.46 C 174.77 10.04 212.99 0.73 251.35 0.00 M 239.17 26.19 C 187.58 29.76 137.51 51.54 99.68 86.79 C 73.30 111.07 52.72 141.63 40.18 175.22 C 25.30 214.76 21.77 258.44 29.80 299.90 C 36.79 336.59 53.08 371.43 76.54 400.48 C 107.01 438.45 149.81 466.40 196.93 478.75 C 243.52 491.11 293.99 488.47 338.94 471.02 C 372.40 458.15 402.72 437.27 426.75 410.69 C 453.24 381.58 472.07 345.56 480.71 307.16 C 491.08 261.52 487.29 212.71 469.55 169.37 C 447.74 115.09 404.32 69.99 350.97 46.01 C 316.15 30.17 277.32 23.41 239.17 26.19 Z" />
</g>
<g id="#1f252fff">
<path fill="#1f252f" opacity="1.00" d=" M 239.17 26.19 C 277.32 23.41 316.15 30.17 350.97 46.01 C 404.32 69.99 447.74 115.09 469.55 169.37 C 487.29 212.71 491.08 261.52 480.71 307.16 C 472.07 345.56 453.24 381.58 426.75 410.69 C 402.72 437.27 372.40 458.15 338.94 471.02 C 293.99 488.47 243.52 491.11 196.93 478.75 C 149.81 466.40 107.01 438.45 76.54 400.48 C 53.08 371.43 36.79 336.59 29.80 299.90 C 21.77 258.44 25.30 214.76 40.18 175.22 C 52.72 141.63 73.30 111.07 99.68 86.79 C 137.51 51.54 187.58 29.76 239.17 26.19 M 217.64 153.64 C 217.61 162.18 217.64 170.72 217.62 179.26 C 226.16 179.24 234.70 179.25 243.24 179.25 C 243.26 243.25 243.25 307.25 243.25 371.24 C 251.75 371.25 260.25 371.25 268.75 371.24 C 268.74 298.71 268.76 226.18 268.74 153.66 C 251.71 153.59 234.67 153.63 217.64 153.64 Z" />
</g>
<g id="#ffffffff">
<path fill="#ffffff" opacity="1.00" d=" M 217.64 153.64 C 234.67 153.63 251.71 153.59 268.74 153.66 C 268.76 226.18 268.74 298.71 268.75 371.24 C 260.25 371.25 251.75 371.25 243.25 371.24 C 243.25 307.25 243.26 243.25 243.24 179.25 C 234.70 179.25 226.16 179.24 217.62 179.26 C 217.64 170.72 217.61 162.18 217.64 153.64 Z" />
</g>
</svg>
