<?xml version="1.0" encoding="UTF-8" ?>
<!DOCTYPE svg PUBLIC "-//W3C//DTD SVG 1.1//EN" "http://www.w3.org/Graphics/SVG/1.1/DTD/svg11.dtd">
<svg width="512pt" height="512pt" viewBox="0 0 512 512" version="1.1" xmlns="http://www.w3.org/2000/svg">
<g id="#f6ac6dff">
<path fill="#f6ac6d" opacity="1.00" d=" M 251.43 0.00 L 261.39 0.00 C 296.28 0.82 331.05 8.59 362.74 23.26 C 411.21 45.38 452.31 83.14 478.60 129.46 C 499.51 165.96 510.93 207.72 512.00 249.74 L 512.00 261.62 C 511.07 303.40 499.86 344.94 479.29 381.33 C 460.74 414.29 434.85 443.09 403.97 464.92 C 362.39 494.64 311.67 511.15 260.59 512.00 L 250.62 512.00 C 208.28 511.08 166.19 499.61 129.42 478.55 C 80.91 451.02 41.84 407.21 20.20 355.78 C 7.36 325.69 0.66 293.07 0.00 260.38 L 0.00 251.60 C 0.38 236.04 1.95 220.50 5.05 205.25 C 14.12 159.67 36.11 116.80 67.63 82.67 C 88.37 60.10 113.20 41.27 140.56 27.46 C 174.80 10.02 213.04 0.72 251.43 0.00 M 239.19 26.19 C 182.41 30.07 127.57 56.17 88.66 97.68 C 63.67 123.96 45.05 156.27 34.88 191.09 C 23.02 231.50 22.54 275.17 33.46 315.84 C 41.75 346.89 56.74 376.11 77.00 401.06 C 107.44 438.73 150.05 466.46 196.93 478.75 C 243.53 491.12 294.04 488.47 339.00 470.99 C 372.42 458.13 402.71 437.27 426.73 410.72 C 453.23 381.60 472.07 345.57 480.71 307.15 C 491.07 261.59 487.30 212.85 469.63 169.56 C 447.85 115.20 404.38 70.02 350.98 46.02 C 316.15 30.17 277.33 23.41 239.19 26.19 Z" />
</g>
<g id="#1f252fff">
<path fill="#1f252f" opacity="1.00" d=" M 239.19 26.19 C 277.33 23.41 316.15 30.17 350.98 46.02 C 404.38 70.02 447.85 115.20 469.63 169.56 C 487.30 212.85 491.07 261.59 480.71 307.15 C 472.07 345.57 453.23 381.60 426.73 410.72 C 402.71 437.27 372.42 458.13 339.00 470.99 C 294.04 488.47 243.53 491.12 196.93 478.75 C 150.05 466.46 107.44 438.73 77.00 401.06 C 56.74 376.11 41.75 346.89 33.46 315.84 C 22.54 275.17 23.02 231.50 34.88 191.09 C 45.05 156.27 63.67 123.96 88.66 97.68 C 127.57 56.17 182.41 30.07 239.19 26.19 M 153.64 140.77 C 153.61 221.85 153.63 302.92 153.63 384.00 C 221.88 384.00 290.12 384.00 358.37 384.00 C 358.38 302.91 358.37 221.82 358.38 140.74 C 290.13 140.78 221.88 140.72 153.64 140.77 Z" />
<path fill="#1f252f" opacity="1.00" d=" M 179.24 166.36 C 196.29 166.40 213.34 166.36 230.39 166.38 C 230.35 200.50 230.42 234.62 230.35 268.74 C 213.32 268.76 196.28 268.75 179.25 268.75 C 179.24 234.62 179.26 200.49 179.24 166.36 Z" />
<path fill="#1f252f" opacity="1.00" d=" M 256.00 166.37 C 281.58 166.39 307.15 166.35 332.73 166.39 C 332.77 200.51 332.74 234.63 332.75 268.75 C 319.96 268.76 307.18 268.72 294.39 268.77 C 294.35 277.31 294.39 285.84 294.37 294.38 C 307.16 294.38 319.94 294.35 332.73 294.39 C 332.77 315.73 332.74 337.06 332.74 358.40 C 281.58 358.32 230.42 358.43 179.26 358.35 C 179.23 337.02 179.27 315.69 179.24 294.36 C 204.83 294.40 230.41 294.36 256.00 294.37 C 256.01 251.71 255.99 209.04 256.00 166.37 Z" />
</g>
<g id="#ffffffff">
<path fill="#ffffff" opacity="1.00" d=" M 153.64 140.77 C 221.88 140.72 290.13 140.78 358.38 140.74 C 358.37 221.82 358.38 302.91 358.37 384.00 C 290.12 384.00 221.88 384.00 153.63 384.00 C 153.63 302.92 153.61 221.85 153.64 140.77 M 179.24 166.36 C 179.26 200.49 179.24 234.62 179.25 268.75 C 196.28 268.75 213.32 268.76 230.35 268.74 C 230.42 234.62 230.35 200.50 230.39 166.38 C 213.34 166.36 196.29 166.40 179.24 166.36 M 256.00 166.37 C 255.99 209.04 256.01 251.71 256.00 294.37 C 230.41 294.36 204.83 294.40 179.24 294.36 C 179.27 315.69 179.23 337.02 179.26 358.35 C 230.42 358.43 281.58 358.32 332.74 358.40 C 332.74 337.06 332.77 315.73 332.73 294.39 C 319.94 294.35 307.16 294.38 294.37 294.38 C 294.39 285.84 294.35 277.31 294.39 268.77 C 307.18 268.72 319.96 268.76 332.75 268.75 C 332.74 234.63 332.77 200.51 332.73 166.39 C 307.15 166.35 281.58 166.39 256.00 166.37 Z" />
</g>
</svg>
