<?xml version="1.0" encoding="UTF-8" ?>
<!DOCTYPE svg PUBLIC "-//W3C//DTD SVG 1.1//EN" "http://www.w3.org/Graphics/SVG/1.1/DTD/svg11.dtd">
<svg width="512pt" height="512pt" viewBox="0 0 512 512" version="1.1" xmlns="http://www.w3.org/2000/svg">
<g id="#f6ac6dff">
<path fill="#f6ac6d" opacity="1.00" d=" M 251.32 0.00 L 261.47 0.00 C 297.83 0.85 334.05 9.30 366.80 25.17 C 417.09 49.21 459.07 90.21 484.23 139.96 C 501.63 173.77 510.94 211.57 512.00 249.55 L 512.00 261.73 C 511.07 301.96 500.66 341.99 481.46 377.38 C 462.80 411.99 436.08 442.21 403.98 464.92 C 362.42 494.62 311.73 511.13 260.68 512.00 L 250.55 512.00 C 208.47 511.07 166.65 499.74 130.06 478.92 C 82.98 452.36 44.69 410.52 22.57 361.19 C 8.22 329.64 0.70 295.10 0.00 260.47 L 0.00 251.49 C 0.40 235.20 2.12 218.93 5.52 202.98 C 14.85 158.23 36.65 116.22 67.65 82.65 C 89.05 59.35 114.82 40.06 143.23 26.13 C 176.74 9.56 213.96 0.73 251.32 0.00 M 239.22 26.19 C 193.56 29.37 149.05 46.72 113.22 75.18 C 83.24 98.83 59.26 130.04 44.23 165.14 C 27.35 204.21 21.84 248.01 28.13 290.08 C 33.01 323.48 45.50 355.72 64.26 383.77 C 92.28 425.94 134.57 458.44 182.61 474.46 C 229.36 490.22 281.21 490.39 328.06 474.91 C 364.20 463.07 397.26 442.01 423.35 414.35 C 451.63 384.62 471.71 347.18 480.72 307.14 C 491.08 261.52 487.29 212.72 469.56 169.39 C 447.76 115.11 404.33 70.00 350.99 46.02 C 316.17 30.17 277.36 23.42 239.22 26.19 Z" />
</g>
<g id="#1f252fff">
<path fill="#1f252f" opacity="1.00" d=" M 239.22 26.19 C 277.36 23.42 316.17 30.17 350.99 46.02 C 404.33 70.00 447.76 115.11 469.56 169.39 C 487.29 212.72 491.08 261.52 480.72 307.14 C 471.71 347.18 451.63 384.62 423.35 414.35 C 397.26 442.01 364.20 463.07 328.06 474.91 C 281.21 490.39 229.36 490.22 182.61 474.46 C 134.57 458.44 92.28 425.94 64.26 383.77 C 45.50 355.72 33.01 323.48 28.13 290.08 C 21.84 248.01 27.35 204.21 44.23 165.14 C 59.26 130.04 83.24 98.83 113.22 75.18 C 149.05 46.72 193.56 29.37 239.22 26.19 M 153.63 153.64 C 153.62 179.21 153.62 204.79 153.64 230.36 C 217.63 230.39 281.63 230.35 345.62 230.39 C 345.64 221.85 345.61 213.31 345.64 204.77 C 349.88 204.73 354.13 204.76 358.38 204.74 C 358.35 215.71 358.42 226.69 358.34 237.66 C 319.95 251.17 281.65 264.94 243.28 278.50 C 243.20 317.91 243.27 357.33 243.25 396.75 C 251.79 396.74 260.32 396.77 268.86 396.73 C 268.89 363.37 268.89 330.00 268.86 296.63 C 307.17 282.97 345.48 269.27 383.85 255.78 C 384.19 230.28 383.91 204.76 383.99 179.25 C 371.20 179.26 358.41 179.23 345.62 179.26 C 345.63 170.71 345.63 162.16 345.62 153.61 C 281.63 153.65 217.63 153.60 153.63 153.64 Z" />
<path fill="#1f252f" opacity="1.00" d=" M 179.25 179.25 C 226.17 179.24 273.08 179.26 319.99 179.25 C 320.00 187.75 320.00 196.25 319.99 204.75 C 273.08 204.74 226.16 204.75 179.25 204.75 C 179.25 196.25 179.25 187.75 179.25 179.25 Z" />
</g>
<g id="#ffffffff">
<path fill="#ffffff" opacity="1.00" d=" M 153.63 153.64 C 217.63 153.60 281.63 153.65 345.62 153.61 C 345.63 162.16 345.63 170.71 345.62 179.26 C 358.41 179.23 371.20 179.26 383.99 179.25 C 383.91 204.76 384.19 230.28 383.85 255.78 C 345.48 269.27 307.17 282.97 268.86 296.63 C 268.89 330.00 268.89 363.37 268.86 396.73 C 260.32 396.77 251.79 396.74 243.25 396.75 C 243.27 357.33 243.20 317.91 243.28 278.50 C 281.65 264.94 319.95 251.17 358.34 237.66 C 358.42 226.69 358.35 215.71 358.38 204.74 C 354.13 204.76 349.88 204.73 345.64 204.77 C 345.61 213.31 345.64 221.85 345.62 230.39 C 281.63 230.35 217.63 230.39 153.64 230.36 C 153.62 204.79 153.62 179.21 153.63 153.64 M 179.25 179.25 C 179.25 187.75 179.25 196.25 179.25 204.75 C 226.16 204.75 273.08 204.74 319.99 204.75 C 320.00 196.25 320.00 187.75 319.99 179.25 C 273.08 179.26 226.17 179.24 179.25 179.25 Z" />
</g>
</svg>
