<?xml version="1.0" encoding="UTF-8" ?>
<!DOCTYPE svg PUBLIC "-//W3C//DTD SVG 1.1//EN" "http://www.w3.org/Graphics/SVG/1.1/DTD/svg11.dtd">
<svg width="512pt" height="512pt" viewBox="0 0 512 512" version="1.1" xmlns="http://www.w3.org/2000/svg">
<g id="#f6ac6dff">
<path fill="#f6ac6d" opacity="1.00" d=" M 251.33 0.00 L 261.48 0.00 C 300.06 0.90 338.46 10.39 372.76 28.14 C 421.09 52.82 461.16 93.33 485.24 141.96 C 502.24 175.79 511.25 213.50 512.00 251.33 L 512.00 261.51 C 511.07 303.32 499.85 344.86 479.30 381.31 C 461.08 413.65 435.82 442.00 405.69 463.69 C 363.80 494.15 312.43 511.13 260.66 512.00 L 250.53 512.00 C 208.20 511.07 166.16 499.58 129.39 478.56 C 75.50 447.99 33.40 397.27 13.59 338.54 C 5.04 313.48 0.55 287.09 0.00 260.63 L 0.00 250.49 C 1.04 202.60 15.68 155.05 42.22 115.15 C 64.47 81.33 94.87 52.93 130.12 33.04 C 166.92 12.10 209.02 0.79 251.33 0.00 M 239.16 26.19 C 193.26 29.40 148.52 46.92 112.60 75.66 C 84.07 98.31 61.05 127.84 46.03 161.02 C 29.29 197.77 22.69 239.00 26.76 279.15 C 30.45 317.11 43.94 354.04 65.44 385.53 C 82.78 411.07 105.33 433.04 131.30 449.75 C 174.00 477.54 226.17 490.18 276.88 485.46 C 315.41 482.08 352.99 468.65 384.99 446.92 C 414.99 426.69 440.07 399.25 457.60 367.60 C 478.85 329.58 488.68 285.38 485.97 241.94 C 483.11 191.31 462.69 141.95 429.13 103.97 C 407.58 79.41 380.74 59.50 350.97 46.03 C 316.15 30.16 277.31 23.42 239.16 26.19 Z" />
</g>
<g id="#1f252fff">
<path fill="#1f252f" opacity="1.00" d=" M 239.16 26.19 C 277.31 23.42 316.15 30.16 350.97 46.03 C 380.74 59.50 407.58 79.41 429.13 103.97 C 462.69 141.95 483.11 191.31 485.97 241.94 C 488.68 285.38 478.85 329.58 457.60 367.60 C 440.07 399.25 414.99 426.69 384.99 446.92 C 352.99 468.65 315.41 482.08 276.88 485.46 C 226.17 490.18 174.00 477.54 131.30 449.75 C 105.33 433.04 82.78 411.07 65.44 385.53 C 43.94 354.04 30.45 317.11 26.76 279.15 C 22.69 239.00 29.29 197.77 46.03 161.02 C 61.05 127.84 84.07 98.31 112.60 75.66 C 148.52 46.92 193.26 29.40 239.16 26.19 M 148.05 371.26 C 179.78 371.23 211.51 371.26 243.24 371.25 C 243.26 388.28 243.24 405.31 243.26 422.35 C 251.75 422.42 260.25 422.33 268.74 422.40 C 268.75 405.36 268.76 388.32 268.73 371.28 C 300.50 371.21 332.26 371.27 364.02 371.25 C 327.90 273.68 292.16 175.96 256.00 78.41 C 219.87 175.97 184.00 273.63 148.05 371.26 Z" />
<path fill="#1f252f" opacity="1.00" d=" M 184.70 345.62 C 208.54 281.22 232.15 216.73 255.99 152.32 C 279.81 216.74 303.49 281.20 327.24 345.64 C 279.73 345.60 232.21 345.65 184.70 345.62 Z" />
</g>
<g id="#ffffffff">
<path fill="#ffffff" opacity="1.00" d=" M 148.05 371.26 C 184.00 273.63 219.87 175.97 256.00 78.41 C 292.16 175.96 327.90 273.68 364.02 371.25 C 332.26 371.27 300.50 371.21 268.73 371.28 C 268.76 388.32 268.75 405.36 268.74 422.40 C 260.25 422.33 251.75 422.42 243.26 422.35 C 243.24 405.31 243.26 388.28 243.24 371.25 C 211.51 371.26 179.78 371.23 148.05 371.26 M 184.70 345.62 C 232.21 345.65 279.73 345.60 327.24 345.64 C 303.49 281.20 279.81 216.74 255.99 152.32 C 232.15 216.73 208.54 281.22 184.70 345.62 Z" />
</g>
</svg>
