<?xml version="1.0" encoding="UTF-8" ?>
<!DOCTYPE svg PUBLIC "-//W3C//DTD SVG 1.1//EN" "http://www.w3.org/Graphics/SVG/1.1/DTD/svg11.dtd">
<svg width="512pt" height="512pt" viewBox="0 0 512 512" version="1.1" xmlns="http://www.w3.org/2000/svg">
<g id="#f6ac6dff">
<path fill="#f6ac6d" opacity="1.00" d=" M 251.32 0.00 L 261.49 0.00 C 296.36 0.84 331.11 8.61 362.79 23.28 C 411.24 45.41 452.33 83.17 478.62 129.49 C 499.49 165.94 510.90 207.63 512.00 249.60 L 512.00 261.71 C 511.05 303.44 499.86 344.93 479.32 381.28 C 460.78 414.24 434.89 443.05 404.01 464.89 C 362.45 494.61 311.76 511.13 260.70 512.00 L 250.54 512.00 C 208.46 511.06 166.64 499.73 130.04 478.91 C 82.98 452.36 44.70 410.53 22.58 361.21 C 8.22 329.67 0.71 295.13 0.00 260.50 L 0.00 251.48 C 0.86 199.17 18.18 147.28 49.19 105.12 C 73.56 71.71 106.11 44.30 143.25 26.12 C 176.76 9.55 213.97 0.73 251.32 0.00 M 239.14 26.20 C 200.19 28.96 162.03 41.92 129.46 63.45 C 92.37 87.77 62.58 123.05 44.84 163.71 C 27.51 203.13 21.76 247.48 28.12 290.05 C 33.00 323.45 45.49 355.69 64.25 383.75 C 94.99 430.10 143.05 464.66 196.89 478.74 C 240.04 490.18 286.54 488.81 328.89 474.63 C 366.29 462.23 400.32 439.93 426.73 410.71 C 453.50 381.30 472.45 344.83 480.97 305.98 C 491.86 257.01 486.36 204.48 465.05 159.02 C 442.06 109.12 400.51 68.12 350.34 45.73 C 315.67 30.07 277.06 23.43 239.14 26.20 Z" />
</g>
<g id="#1f252fff">
<path fill="#1f252f" opacity="1.00" d=" M 239.14 26.20 C 277.06 23.43 315.67 30.07 350.34 45.73 C 400.51 68.12 442.06 109.12 465.05 159.02 C 486.36 204.48 491.86 257.01 480.97 305.98 C 472.45 344.83 453.50 381.30 426.73 410.71 C 400.32 439.93 366.29 462.23 328.89 474.63 C 286.54 488.81 240.04 490.18 196.89 478.74 C 143.05 464.66 94.99 430.10 64.25 383.75 C 45.49 355.69 33.00 323.45 28.12 290.05 C 21.76 247.48 27.51 203.13 44.84 163.71 C 62.58 123.05 92.37 87.77 129.46 63.45 C 162.03 41.92 200.19 28.96 239.14 26.20 M 140.75 128.00 C 140.75 213.33 140.75 298.67 140.75 384.00 C 217.58 384.00 294.41 384.00 371.25 384.00 C 371.25 298.67 371.25 213.34 371.25 128.00 C 294.41 128.00 217.58 128.00 140.75 128.00 Z" />
<path fill="#1f252f" opacity="1.00" d=" M 166.38 358.39 C 166.37 290.13 166.37 221.87 166.38 153.61 C 192.00 153.65 217.61 153.60 243.23 153.64 C 243.29 221.88 243.22 290.13 243.26 358.38 C 217.63 358.38 192.01 358.36 166.38 358.39 Z" />
<path fill="#1f252f" opacity="1.00" d=" M 268.87 153.63 C 294.45 153.61 320.04 153.64 345.62 153.61 C 345.63 221.87 345.63 290.13 345.62 358.39 C 320.04 358.36 294.45 358.38 268.87 358.37 C 268.88 290.12 268.88 221.88 268.87 153.63 Z" />
</g>
<g id="#ffffffff">
<path fill="#ffffff" opacity="1.00" d=" M 140.75 128.00 C 217.58 128.00 294.41 128.00 371.25 128.00 C 371.25 213.34 371.25 298.67 371.25 384.00 C 294.41 384.00 217.58 384.00 140.75 384.00 C 140.75 298.67 140.75 213.33 140.75 128.00 M 166.38 358.39 C 192.01 358.36 217.63 358.38 243.26 358.38 C 243.22 290.13 243.29 221.88 243.23 153.64 C 217.61 153.60 192.00 153.65 166.38 153.61 C 166.37 221.87 166.37 290.13 166.38 358.39 M 268.87 153.63 C 268.88 221.88 268.88 290.12 268.87 358.37 C 294.45 358.38 320.04 358.36 345.62 358.39 C 345.63 290.13 345.63 221.87 345.62 153.61 C 320.04 153.64 294.45 153.61 268.87 153.63 Z" />
</g>
</svg>
