<svg width="71" height="71" viewBox="0 0 71 71" fill="none" xmlns="http://www.w3.org/2000/svg">
<circle cx="35.5" cy="35.5" r="34.5" stroke="url(#paint0_linear)" stroke-width="2"/>
<path d="M54.3585 26.1195C53.9597 25.8882 53.4514 25.8728 53.0447 26.0963L45.3884 30.2197V28.3931C45.3884 25.973 43.3864 24 40.9307 24H21.4577C19.002 24 17 25.973 17 28.3931V43.6069C17 46.027 19.002 48 21.4577 48H40.9229C43.3786 48 45.3806 46.027 45.3806 43.6069V41.8343L53.0369 45.9576C53.4435 46.1811 53.9519 46.1657 54.3507 45.9345C54.7496 45.7033 54.9998 45.264 54.9998 44.8092V27.2447C55.0076 26.79 54.7574 26.3584 54.3585 26.1195ZM52.3487 29.4566V42.5973L45.3806 38.8516V33.21L52.3487 29.4566ZM42.7216 28.3931V43.6069C42.7216 44.5857 41.9161 45.3796 40.9229 45.3796H21.4577C20.4645 45.3796 19.659 44.5857 19.659 43.6069V28.3931C19.659 27.4143 20.4645 26.6204 21.4577 26.6204H40.9229C41.9161 26.6204 42.7216 27.4143 42.7216 28.3931Z" fill="white"/>
<defs>
<linearGradient id="paint0_linear" x1="35.5" y1="0" x2="35.5" y2="71" gradientUnits="userSpaceOnUse">
<stop stop-color="#F6AC6D"/>
<stop offset="1" stop-color="#764419"/>
</linearGradient>
</defs>
</svg>
