<svg width="86" height="86" viewBox="0 0 86 86" fill="none" xmlns="http://www.w3.org/2000/svg">
<g clip-path="url(#clip0_0_3)">
<path d="M48.5258 16.8196C50.7359 13.9908 50.2343 9.9059 47.4055 7.69577C44.5766 5.48564 40.4917 5.9872 38.2816 8.81604C36.0715 11.6449 36.573 15.7298 39.4019 17.9399C42.2307 20.15 46.3156 19.6485 48.5258 16.8196Z" fill="#844F22"/>
<path d="M42.8136 21.8165L42.77 42.8164" stroke="white" stroke-width="2"/>
<path d="M42.8131 21.8171C42.8062 25.1308 40.1143 27.8115 36.8007 27.8047" stroke="white" stroke-width="2"/>
<path d="M48.8006 27.8294C45.487 27.8226 42.8063 25.1307 42.8131 21.8171" stroke="white" stroke-width="2"/>
<path d="M42.7259 63.8171L42.7695 42.8171" stroke="#2E3541" stroke-width="2"/>
<path d="M42.7264 63.8164C42.7332 60.5027 45.4251 57.822 48.7387 57.8289" stroke="#2E3541" stroke-width="2"/>
<path d="M36.7388 57.804C40.0525 57.8109 42.7332 60.5027 42.7263 63.8165" stroke="#2E3541" stroke-width="2"/>
<path d="M63.7698 42.8601L42.7699 42.8165" stroke="#2E3541" stroke-width="2"/>
<path d="M63.7694 42.8604C60.4557 42.8536 57.775 40.1617 57.7818 36.848" stroke="#2E3541" stroke-width="2"/>
<path d="M57.7575 48.8474C57.7644 45.5338 60.4562 42.8531 63.7699 42.86" stroke="#2E3541" stroke-width="2"/>
<path d="M21.7695 42.7734L42.7695 42.8169" stroke="#2E3541" stroke-width="2"/>
<path d="M21.77 42.7729C25.0836 42.7798 27.7644 45.4717 27.7575 48.7854" stroke="#2E3541" stroke-width="2"/>
<path d="M27.7819 36.786C27.775 40.0997 25.0831 42.7804 21.7694 42.7735" stroke="#2E3541" stroke-width="2"/>
<path d="M69.687 54.9768C76.4055 40.1342 69.8195 22.6554 54.9768 15.937C40.1342 9.21853 22.6554 15.8045 15.937 30.6472C9.21853 45.4898 15.8045 62.9686 30.6472 69.687C45.4898 76.4055 62.9686 69.8195 69.687 54.9768Z" stroke="url(#paint0_linear_0_3)" stroke-width="2"/>
<path d="M45.57 44.9668C44.38 46.49 42.1804 46.7601 40.6572 45.57C39.134 44.38 38.8639 42.1804 40.054 40.6572C41.244 39.134 43.4436 38.8639 44.9668 40.054C46.49 41.244 46.7601 43.4436 45.57 44.9668Z" fill="#2E3541"/>
<path d="M46.1508 11.2338C46.3715 11.4989 46.5477 11.7841 46.6794 12.0893C46.8075 12.3918 46.8801 12.7059 46.8974 13.0317C46.9175 13.3539 46.8792 13.6768 46.7825 14.0004C46.6851 14.3175 46.5243 14.6197 46.2998 14.907C46.0416 15.2375 45.7393 15.4986 45.3927 15.6904C45.0426 15.8795 44.6706 15.9966 44.2769 16.0417C43.8822 16.0805 43.4827 16.0402 43.0786 15.921C42.6771 15.7983 42.2878 15.5895 41.9108 15.2949C41.5373 15.0032 41.2424 14.6773 41.0262 14.3175C40.8127 13.9542 40.6788 13.5777 40.6246 13.1883C40.5695 12.7925 40.5913 12.4018 40.69 12.0163C40.7888 11.6308 40.9673 11.2729 41.2254 10.9425C41.4499 10.6552 41.7059 10.4273 41.9937 10.2589C42.2807 10.084 42.5847 9.96877 42.9058 9.91312C43.2261 9.85106 43.5489 9.84883 43.8741 9.90621C44.1985 9.95728 44.5157 10.0547 44.8256 10.1985L44.0048 11.249C43.6602 11.1127 43.3274 11.0723 43.0063 11.1281C42.6852 11.1837 42.404 11.366 42.1627 11.6748C42.0253 11.8508 41.9301 12.054 41.8772 12.2845C41.8208 12.5122 41.8153 12.7451 41.8606 12.9829C41.9061 13.2209 41.9967 13.4565 42.1326 13.6898C42.2675 13.9167 42.4517 14.1214 42.6851 14.3038C42.9222 14.4889 43.1672 14.6196 43.42 14.6956C43.6756 14.7682 43.9243 14.7977 44.1662 14.7842C44.408 14.7708 44.6345 14.7105 44.8454 14.6035C45.0527 14.4936 45.225 14.3507 45.3624 14.1747C45.6037 13.8659 45.7126 13.5489 45.6889 13.224C45.668 12.8953 45.5484 12.5821 45.33 12.2843L46.1508 11.2338Z" fill="white"/>
</g>
<defs>
<linearGradient id="paint0_linear_0_3" x1="15.026" y1="30.2348" x2="70.5981" y2="55.3892" gradientUnits="userSpaceOnUse">
<stop stop-color="#764419"/>
<stop offset="1" stop-color="#F6AC6D"/>
</linearGradient>
<clipPath id="clip0_0_3">
<rect width="61" height="61" fill="white" transform="translate(0 48.0687) rotate(-52)"/>
</clipPath>
</defs>
</svg>
