<?xml version="1.0" encoding="UTF-8" ?>
<!DOCTYPE svg PUBLIC "-//W3C//DTD SVG 1.1//EN" "http://www.w3.org/Graphics/SVG/1.1/DTD/svg11.dtd">
<svg width="232pt" height="266pt" viewBox="0 0 232 266" version="1.1" xmlns="http://www.w3.org/2000/svg">
<g id="#000000ff">
<path fill="#000000" opacity="1.00" d=" M 115.02 0.00 L 116.94 0.00 C 147.34 17.69 177.86 35.18 208.30 52.81 C 216.20 57.49 224.43 61.67 232.00 66.88 L 232.00 198.25 C 231.42 199.57 230.48 200.54 229.18 201.18 C 191.75 222.74 154.33 244.31 116.98 266.00 L 115.06 266.00 C 78.31 244.65 41.47 223.47 4.66 202.22 C 3.05 201.27 1.53 200.18 0.00 199.12 L 0.00 67.57 C 1.37 65.02 4.30 64.14 6.59 62.65 C 42.76 41.81 78.93 20.97 115.02 0.00 Z" />
</g>
</svg>
