<?xml version="1.0" encoding="UTF-8" ?>
<!DOCTYPE svg PUBLIC "-//W3C//DTD SVG 1.1//EN" "http://www.w3.org/Graphics/SVG/1.1/DTD/svg11.dtd">
<svg width="512pt" height="571pt" viewBox="0 0 512 571" version="1.1" xmlns="http://www.w3.org/2000/svg">
<g id="#ffffffff">
<path fill="#ffffff" opacity="1.00" d=" M 9.86 129.56 C 94.56 88.52 179.24 47.47 263.87 6.30 C 343.29 47.62 422.76 88.82 502.13 130.22 C 502.08 225.69 502.19 321.15 502.07 416.62 C 422.68 462.88 343.37 509.31 264.09 555.77 C 179.30 509.62 94.58 463.32 9.87 417.02 C 9.87 321.20 9.89 225.38 9.86 129.56 M 97.33 152.91 C 152.59 182.96 207.75 213.21 262.99 243.30 C 314.52 213.13 366.08 182.99 417.64 152.86 C 366.19 125.96 314.58 99.38 263.16 72.43 C 207.84 99.17 152.54 125.97 97.33 152.91 M 68.87 204.63 C 68.88 263.76 68.87 322.90 68.88 382.03 C 123.90 412.00 178.95 441.95 233.85 472.13 C 233.90 412.97 233.88 353.81 233.86 294.65 C 178.83 264.71 123.85 234.67 68.87 204.63 M 292.99 294.17 C 293.03 352.91 292.96 411.65 293.03 470.38 C 343.02 440.97 393.24 411.92 443.17 382.42 C 443.05 323.74 443.18 265.07 443.11 206.39 C 393.06 235.64 343.03 264.92 292.99 294.17 Z" />
</g>
</svg>
