<?xml version="1.0" encoding="UTF-8" ?>
<!DOCTYPE svg PUBLIC "-//W3C//DTD SVG 1.1//EN" "http://www.w3.org/Graphics/SVG/1.1/DTD/svg11.dtd">
<svg width="512pt" height="512pt" viewBox="0 0 512 512" version="1.1" xmlns="http://www.w3.org/2000/svg">
<g id="#ffffffff">
<path fill="#ffffff" opacity="1.00" d=" M 0.00 0.00 L 512.00 0.00 L 512.00 30.00 C 496.93 30.04 481.85 29.92 466.78 30.05 C 466.55 39.68 466.51 49.32 466.80 58.95 C 473.92 59.24 481.22 60.05 487.64 63.38 C 500.85 69.73 510.20 83.05 512.00 97.57 L 512.00 138.44 C 510.69 148.88 505.89 158.95 498.02 166.01 C 489.76 173.76 478.33 177.94 467.02 177.42 C 454.37 177.01 442.05 170.71 434.34 160.67 C 428.49 153.13 425.14 143.61 425.25 134.05 C 425.29 127.32 425.25 120.60 425.27 113.87 C 435.21 113.41 445.19 113.60 455.15 113.78 C 455.53 120.83 455.04 127.90 455.34 134.94 C 455.61 141.45 461.39 147.30 467.97 147.32 C 475.34 147.95 482.21 141.44 482.08 134.07 C 482.21 123.36 482.20 112.64 482.08 101.93 C 482.14 94.58 475.28 88.54 468.05 88.90 C 444.76 88.88 421.45 88.72 398.16 88.98 C 398.10 229.99 398.18 370.99 398.12 512.00 L 114.12 512.00 C 114.17 422.67 114.13 333.33 114.14 244.00 C 114.06 192.39 114.31 140.77 114.02 89.16 C 90.99 89.09 67.97 89.18 44.95 89.11 C 41.46 89.07 37.77 89.73 35.04 92.06 C 31.50 94.88 29.99 99.53 30.13 103.94 C 30.12 113.31 30.15 122.68 30.12 132.05 C 30.03 136.03 30.92 140.29 33.83 143.19 C 38.09 147.89 45.87 148.72 51.06 145.10 C 54.40 142.84 56.77 139.10 56.98 135.03 C 57.44 127.97 56.96 120.89 57.16 113.83 C 67.05 113.50 76.95 113.51 86.84 113.82 C 86.72 122.63 87.29 131.48 86.44 140.27 C 84.66 153.93 75.71 166.38 63.42 172.57 C 50.97 179.31 35.16 178.99 22.78 172.24 C 10.17 165.59 1.86 152.43 0.00 138.44 L 0.00 97.59 C 1.91 84.63 9.21 72.44 20.48 65.53 C 27.76 60.63 36.61 59.02 45.24 58.75 C 45.61 49.19 45.53 39.61 45.28 30.04 C 30.19 29.93 15.09 30.04 0.00 30.00 L 0.00 0.00 M 75.70 30.03 C 75.50 39.63 75.38 49.26 75.76 58.85 C 195.92 58.86 316.08 58.86 436.24 58.85 C 436.62 49.26 436.50 39.63 436.30 30.03 C 316.10 29.98 195.90 29.98 75.70 30.03 M 144.04 88.93 C 143.97 99.31 143.96 109.69 144.04 120.07 C 218.68 120.19 293.32 120.19 367.96 120.07 C 368.03 109.69 368.03 99.31 367.96 88.93 C 293.32 88.80 218.68 88.81 144.04 88.93 M 144.07 150.13 C 143.92 260.74 144.01 371.36 144.03 481.97 C 154.94 481.97 165.86 482.13 176.77 481.88 C 176.67 371.32 176.73 260.77 176.74 150.22 C 165.85 150.04 154.96 150.19 144.07 150.13 M 206.87 150.15 C 206.51 176.76 206.82 203.39 206.72 230.00 C 206.79 313.99 206.57 397.98 206.83 481.96 C 218.24 482.03 229.65 482.03 241.07 481.96 C 241.25 456.98 241.09 431.99 241.14 407.00 C 241.06 321.38 241.31 235.76 241.02 150.15 C 229.64 150.13 218.26 150.13 206.87 150.15 M 270.97 150.15 C 270.70 194.10 270.93 238.05 270.86 282.00 C 270.91 348.65 270.76 415.31 270.93 481.96 C 281.94 482.03 292.96 482.02 303.97 481.97 C 304.00 371.36 304.07 260.74 303.93 150.13 C 292.94 150.15 281.96 150.11 270.97 150.15 M 334.07 150.13 C 333.92 260.74 334.01 371.36 334.03 481.97 C 345.34 482.02 356.66 482.02 367.97 481.97 C 367.99 371.36 368.07 260.74 367.93 150.13 C 356.64 150.13 345.36 150.15 334.07 150.13 Z" />
</g>
</svg>
