<?xml version="1.0" encoding="UTF-8" ?>
<!DOCTYPE svg PUBLIC "-//W3C//DTD SVG 1.1//EN" "http://www.w3.org/Graphics/SVG/1.1/DTD/svg11.dtd">
<svg width="369pt" height="512pt" viewBox="0 0 369 512" version="1.1" xmlns="http://www.w3.org/2000/svg">
<g id="#f6ac6dff">
<path fill="#f6ac6d" opacity="1.00" d=" M 163.88 0.00 L 204.75 0.00 C 204.75 129.70 204.75 259.40 204.74 389.10 C 234.45 349.45 278.88 321.02 327.53 311.34 C 341.16 308.72 355.11 306.82 369.00 307.49 L 369.00 348.05 C 344.31 348.22 319.56 353.54 297.36 364.46 C 256.43 384.02 224.51 421.40 211.65 464.91 C 207.04 480.16 204.91 496.08 204.71 512.00 L 163.90 512.00 C 163.79 484.87 157.13 457.72 144.06 433.92 C 129.75 407.48 107.98 385.16 81.97 370.10 C 57.20 355.71 28.63 348.16 0.00 348.09 L 0.00 307.25 C 14.09 307.15 28.18 308.63 41.97 311.52 C 90.26 321.35 134.25 349.68 163.83 389.02 C 163.94 259.35 163.84 129.67 163.88 0.00 Z" />
</g>
</svg>
