<?xml version="1.0" encoding="UTF-8" ?>
<!DOCTYPE svg PUBLIC "-//W3C//DTD SVG 1.1//EN" "http://www.w3.org/Graphics/SVG/1.1/DTD/svg11.dtd">
<svg width="512pt" height="146pt" viewBox="0 0 512 146" version="1.1" xmlns="http://www.w3.org/2000/svg">
<g id="#f6ac6dff">
<path fill="#f6ac6d" opacity="1.00" d=" M 430.67 0.00 L 446.90 0.00 C 446.93 15.17 452.36 30.24 462.21 41.80 C 474.30 56.43 493.05 65.07 512.00 65.13 L 512.00 81.12 C 494.79 81.28 477.68 88.28 465.67 100.68 C 453.73 112.55 447.12 129.22 446.88 146.00 L 430.66 146.00 C 430.77 126.14 438.36 106.44 451.74 91.75 C 455.15 87.94 459.12 84.68 462.91 81.25 C 308.60 81.30 154.30 81.33 0.00 81.23 L 0.00 65.00 C 154.31 64.94 308.63 65.12 462.94 64.91 C 458.47 61.11 453.93 57.35 450.22 52.79 C 437.68 38.27 430.70 19.17 430.67 0.00 Z" />
</g>
</svg>
