<?xml version="1.0" encoding="UTF-8" ?>
<!DOCTYPE svg PUBLIC "-//W3C//DTD SVG 1.1//EN" "http://www.w3.org/Graphics/SVG/1.1/DTD/svg11.dtd">
<svg width="256pt" height="499pt" viewBox="0 0 256 499" version="1.1" xmlns="http://www.w3.org/2000/svg">
<g id="#f6ac6dff">
<path fill="#f6ac6d" opacity="1.00" d=" M 112.12 0.00 L 142.25 0.00 C 142.23 137.21 142.27 274.42 142.23 411.63 C 159.67 388.73 184.14 371.20 211.56 362.36 C 225.86 357.57 240.95 355.36 256.00 355.21 L 256.00 385.35 C 230.99 385.37 206.02 393.83 186.42 409.41 C 159.28 430.37 142.85 464.21 143.02 498.49 C 132.72 498.50 122.42 498.51 112.12 498.48 C 112.01 493.30 112.40 488.11 111.88 482.94 C 108.83 460.32 98.61 438.74 83.13 421.96 C 62.15 398.84 31.23 385.23 0.00 385.34 L 0.00 355.23 C 13.24 355.34 26.49 357.07 39.22 360.74 C 67.84 368.83 93.74 386.20 112.12 409.57 C 112.13 273.05 112.13 136.52 112.12 0.00 Z" />
</g>
</svg>
