<?xml version="1.0" encoding="UTF-8" ?>
<!DOCTYPE svg PUBLIC "-//W3C//DTD SVG 1.1//EN" "http://www.w3.org/Graphics/SVG/1.1/DTD/svg11.dtd">
<svg width="495pt" height="476pt" viewBox="0 0 495 476" version="1.1" xmlns="http://www.w3.org/2000/svg">
<g id="#ffffffff">
<path fill="#ffffff" opacity="1.00" d=" M 218.37 0.00 L 219.47 0.00 C 220.93 2.32 223.00 4.19 225.16 5.86 C 236.45 16.36 247.94 26.65 259.23 37.17 C 206.13 94.90 153.23 152.82 100.16 210.59 C 231.77 210.67 363.39 210.60 495.00 210.62 L 495.00 265.37 C 363.37 265.38 231.73 265.36 100.10 265.38 C 145.86 315.12 191.44 365.02 237.15 414.81 C 244.39 422.88 251.95 430.67 259.03 438.89 C 246.18 451.31 232.46 462.90 219.70 475.39 L 219.64 476.00 L 218.47 476.00 C 211.82 467.89 204.37 460.47 197.40 452.63 C 131.79 381.09 66.23 309.49 0.59 237.97 C 67.87 164.79 134.95 91.41 202.17 18.17 C 207.49 12.05 213.46 6.46 218.37 0.00 Z" />
</g>
</svg>
