<?xml version="1.0" encoding="UTF-8" ?>
<!DOCTYPE svg PUBLIC "-//W3C//DTD SVG 1.1//EN" "http://www.w3.org/Graphics/SVG/1.1/DTD/svg11.dtd">
<svg width="501pt" height="272pt" viewBox="0 0 501 272" version="1.1" xmlns="http://www.w3.org/2000/svg">
<g id="#1f252fff">
<path fill="#1f252f" opacity="1.00" d=" M 353.05 0.00 L 388.24 0.00 C 388.46 24.31 396.33 48.54 411.14 67.89 C 431.95 95.61 466.18 113.23 501.00 112.42 L 501.00 158.84 C 477.30 158.85 453.66 166.49 434.58 180.59 C 406.09 201.17 388.08 235.77 388.56 271.02 C 383.41 271.82 378.18 271.34 373.00 271.44 C 366.37 271.36 359.74 271.66 353.12 271.25 C 352.93 236.92 365.52 202.81 387.60 176.57 C 392.68 170.23 398.87 164.96 404.39 159.04 C 373.27 158.62 342.13 158.98 311.00 158.86 C 207.33 158.88 103.67 158.82 0.00 158.89 L 0.00 123.70 C 139.69 123.57 279.39 123.66 419.08 123.65 C 417.88 122.60 416.67 121.57 415.41 120.61 C 400.90 110.33 388.26 97.38 378.34 82.63 C 361.87 58.43 353.10 29.25 353.05 0.00 Z" />
</g>
</svg>
