<?xml version="1.0" encoding="UTF-8" ?>
<!DOCTYPE svg PUBLIC "-//W3C//DTD SVG 1.1//EN" "http://www.w3.org/Graphics/SVG/1.1/DTD/svg11.dtd">
<svg width="263pt" height="512pt" viewBox="0 0 263 512" version="1.1" xmlns="http://www.w3.org/2000/svg">
<g id="#f6ac6dff">
<path fill="#f6ac6d" opacity="1.00" d=" M 117.00 0.00 L 146.25 0.00 C 146.19 141.43 146.35 282.86 146.17 424.29 C 163.74 401.02 188.23 382.93 215.89 373.59 C 231.01 368.38 247.01 365.71 263.00 365.73 L 263.00 394.97 C 237.11 394.94 211.29 403.88 191.00 419.98 C 171.23 435.53 156.52 457.52 150.20 481.91 C 147.51 491.71 146.39 501.86 146.21 512.00 L 117.02 512.00 C 117.16 484.39 107.01 456.91 88.98 436.01 C 67.23 410.18 33.78 394.72 0.00 394.97 L 0.00 365.74 C 16.68 365.69 33.36 368.54 49.07 374.14 C 75.98 383.64 99.82 401.37 117.00 424.12 C 117.00 282.75 117.00 141.37 117.00 0.00 Z" />
</g>
</svg>
