<?xml version="1.0" encoding="UTF-8" ?>
<!DOCTYPE svg PUBLIC "-//W3C//DTD SVG 1.1//EN" "http://www.w3.org/Graphics/SVG/1.1/DTD/svg11.dtd">
<svg width="523pt" height="512pt" viewBox="0 0 523 512" version="1.1" xmlns="http://www.w3.org/2000/svg">
<g id="#1f252fff">
<path fill="#1f252f" opacity="1.00" d=" M 255.20 114.25 C 319.19 76.85 383.09 39.28 447.06 1.83 C 468.98 20.63 490.91 39.43 512.84 58.22 C 448.86 95.68 384.91 133.20 320.95 170.70 C 315.06 165.56 309.06 160.54 303.17 155.39 C 292.66 162.26 282.18 169.18 271.63 175.99 C 271.67 214.61 271.52 253.24 271.70 291.86 C 291.55 309.82 310.97 328.25 330.72 346.33 C 346.01 360.70 361.59 374.77 376.81 389.22 C 259.66 429.15 142.48 469.00 25.34 508.97 C 17.46 501.00 9.84 492.79 1.94 484.85 C 53.18 384.66 104.52 284.51 155.71 184.29 C 183.32 209.66 210.76 235.24 238.28 260.72 C 238.22 226.85 238.26 192.97 238.26 159.10 C 237.98 157.70 239.48 157.17 240.37 156.51 C 252.55 148.64 264.67 140.70 276.79 132.74 C 269.52 126.65 262.34 120.47 255.20 114.25 M 441.08 44.03 C 398.19 69.11 355.41 94.40 312.43 119.34 C 316.63 122.62 320.39 126.91 324.88 129.52 C 336.95 122.83 348.70 115.58 360.67 108.71 C 392.27 90.13 423.95 71.68 455.52 53.04 C 451.57 49.65 447.48 46.42 443.75 42.79 C 442.84 43.17 441.95 43.58 441.08 44.03 M 165.26 238.90 C 126.73 314.46 87.96 389.90 49.40 465.44 C 137.34 435.58 225.20 405.52 313.14 375.67 C 292.57 356.50 271.94 337.40 251.28 318.33 C 222.73 339.12 194.23 359.98 165.68 380.77 C 159.07 371.82 152.60 362.77 145.96 353.84 C 172.71 334.40 199.30 314.74 226.16 295.45 C 224.53 293.25 222.44 291.46 220.39 289.68 C 209.35 279.38 198.23 269.16 187.19 258.86 C 179.78 252.32 172.90 245.14 165.26 238.90 Z" />
</g>
</svg>
