<?xml version="1.0" encoding="UTF-8" ?>
<!DOCTYPE svg PUBLIC "-//W3C//DTD SVG 1.1//EN" "http://www.w3.org/Graphics/SVG/1.1/DTD/svg11.dtd">
<svg width="512pt" height="323pt" viewBox="0 0 512 323" version="1.1" xmlns="http://www.w3.org/2000/svg">
<g id="#ffffffff">
<path fill="#ffffff" opacity="1.00" d=" M 58.24 0.00 L 325.88 0.00 C 342.02 1.05 357.72 8.55 368.21 20.93 C 377.06 31.15 382.29 44.46 382.48 58.00 C 382.54 66.60 382.46 75.19 382.51 83.78 C 417.30 65.09 452.02 46.27 486.85 27.66 C 497.28 22.51 511.10 30.22 512.00 41.88 L 512.00 281.54 C 511.53 287.44 507.96 292.96 502.80 295.86 C 497.80 298.46 491.62 298.76 486.49 296.35 C 451.78 277.69 417.11 258.97 382.40 240.31 C 381.80 254.65 384.20 269.53 379.15 283.33 C 372.03 304.46 352.11 320.15 330.10 323.00 L 52.77 323.00 C 36.91 320.97 21.84 312.63 12.17 299.83 C 4.74 290.39 0.61 278.56 0.00 266.60 L 0.00 56.46 C 0.80 40.00 8.85 24.09 21.67 13.73 C 31.88 5.25 44.98 0.41 58.24 0.00 M 59.24 35.31 C 47.21 35.49 36.12 45.78 35.89 57.97 C 35.86 126.98 35.88 195.99 35.88 265.00 C 35.93 277.18 46.88 287.87 58.99 288.00 C 147.35 287.99 235.71 288.02 324.06 287.98 C 336.34 287.50 346.91 276.30 346.59 263.99 C 346.67 196.65 346.59 129.31 346.63 61.97 C 346.65 58.29 346.44 54.55 345.13 51.08 C 341.80 41.61 332.04 35.08 322.05 35.26 C 234.45 35.27 146.84 35.17 59.24 35.31 M 382.37 124.11 C 382.35 149.35 382.44 174.60 382.32 199.85 C 396.55 208.03 411.24 215.42 425.61 223.36 C 442.53 232.35 459.31 241.57 476.26 250.51 C 476.23 191.55 476.27 132.60 476.24 73.64 C 444.86 90.30 413.67 107.30 382.37 124.11 Z" />
</g>
</svg>
