<?xml version="1.0" encoding="UTF-8" ?>
<!DOCTYPE svg PUBLIC "-//W3C//DTD SVG 1.1//EN" "http://www.w3.org/Graphics/SVG/1.1/DTD/svg11.dtd">
<svg width="466pt" height="463pt" viewBox="0 0 466 463" version="1.1" xmlns="http://www.w3.org/2000/svg">
<g id="#1f252fff">
<path fill="#1f252f" opacity="1.00" d=" M 232.54 172.93 C 290.02 115.58 347.32 58.04 404.86 0.73 C 423.92 19.80 443.00 38.85 462.05 57.94 C 404.66 115.32 347.30 172.73 289.88 230.08 C 348.18 288.80 406.88 347.13 465.32 405.71 C 446.23 424.69 427.27 443.80 408.18 462.78 C 349.66 404.33 291.22 345.79 232.70 287.34 C 174.41 345.53 116.22 403.81 57.97 462.03 C 38.82 443.06 19.86 423.91 0.75 404.91 C 58.79 346.47 117.25 288.41 175.39 230.06 C 118.33 172.78 60.94 115.81 3.97 58.43 C 23.09 39.54 42.00 20.43 61.05 1.45 C 118.24 58.59 175.38 115.76 232.54 172.93 Z" />
</g>
</svg>
