<?xml version="1.0" encoding="UTF-8" ?>
<!DOCTYPE svg PUBLIC "-//W3C//DTD SVG 1.1//EN" "http://www.w3.org/Graphics/SVG/1.1/DTD/svg11.dtd">
<svg width="477pt" height="512pt" viewBox="0 0 477 512" version="1.1" xmlns="http://www.w3.org/2000/svg">
<g id="#ffffffff">
<path fill="#ffffff" opacity="1.00" d=" M 233.51 0.00 L 243.52 0.00 C 256.76 0.29 269.91 1.93 283.00 3.89 C 283.03 24.83 282.95 45.78 283.04 66.72 C 299.22 70.81 314.71 77.44 329.06 85.94 C 343.65 71.46 358.03 56.77 372.61 42.27 C 381.67 49.52 391.09 56.35 399.49 64.39 C 413.17 76.69 424.65 91.16 435.64 105.86 C 421.14 120.31 406.77 134.90 392.38 149.47 C 400.86 163.96 407.41 179.59 411.55 195.87 C 432.03 195.88 452.50 195.87 472.98 195.87 C 475.07 210.83 477.05 225.88 476.75 241.02 C 477.09 256.11 475.01 271.08 472.99 286.00 C 452.51 286.00 432.02 286.00 411.54 286.00 C 407.39 302.27 400.91 317.93 392.40 332.39 C 406.93 346.91 421.24 361.64 435.77 376.15 C 424.37 391.48 412.32 406.46 397.96 419.13 C 389.99 426.54 381.24 433.01 372.67 439.69 C 358.18 425.14 343.60 410.67 329.18 396.05 C 326.20 397.86 323.14 399.56 320.11 401.29 C 330.92 428.22 341.90 455.08 352.73 482.00 C 359.32 482.00 365.91 482.00 372.50 482.00 C 372.50 492.00 372.50 502.00 372.50 512.00 L 332.67 512.00 C 319.10 478.89 305.91 445.61 292.28 412.52 C 289.24 413.51 286.18 414.39 283.10 415.24 C 283.15 436.15 283.11 457.06 283.12 477.97 C 258.65 481.98 233.64 483.27 208.99 480.03 C 203.91 479.38 198.83 478.65 193.74 477.96 C 193.76 457.05 193.74 436.13 193.76 415.22 C 190.64 414.38 187.54 413.47 184.46 412.51 C 171.04 445.68 157.64 478.85 144.17 511.99 L 144.99 512.00 L 104.38 512.00 C 104.37 502.00 104.38 492.00 104.37 482.01 C 110.97 482.00 117.57 481.98 124.17 482.02 C 135.13 455.08 146.04 428.12 156.91 401.14 C 153.75 399.51 150.69 397.71 147.59 395.98 C 133.14 410.54 118.78 425.17 104.32 439.71 C 91.95 430.53 79.85 420.89 69.15 409.76 C 58.73 399.46 49.81 387.80 41.04 376.09 C 55.46 361.46 70.04 347.00 84.52 332.44 C 75.78 318.05 69.63 302.24 65.17 286.05 C 44.74 285.92 24.30 286.04 3.87 286.00 C 1.94 272.88 0.34 259.70 0.00 246.44 L 0.00 235.64 C 0.30 222.35 2.03 209.16 3.84 196.00 C 24.31 196.00 44.77 196.00 65.24 196.00 C 69.45 179.71 75.96 164.04 84.48 149.53 C 70.04 134.96 55.45 120.53 41.05 105.92 C 47.05 98.00 52.95 89.99 59.53 82.55 C 72.69 67.30 88.12 54.24 104.25 42.25 C 118.73 56.78 132.96 71.56 147.52 86.01 C 161.87 77.42 177.42 70.82 193.62 66.64 C 193.64 45.72 193.61 24.79 193.63 3.87 C 206.85 1.94 220.13 0.24 233.51 0.00 M 223.51 30.50 C 223.47 40.86 223.53 51.22 223.48 61.58 C 233.40 60.74 243.37 60.77 253.29 61.57 C 253.21 51.23 253.26 40.89 253.26 30.55 C 243.37 29.74 233.41 29.86 223.51 30.50 M 80.75 103.63 C 87.80 110.67 94.85 117.71 101.89 124.77 C 108.40 117.23 115.42 110.11 123.03 103.67 C 115.91 96.60 108.90 89.41 101.80 82.31 C 94.35 88.97 87.18 95.96 80.75 103.63 M 353.73 103.88 C 361.35 110.21 368.21 117.44 374.72 124.89 C 381.75 117.72 388.90 110.67 395.92 103.49 C 389.32 96.10 382.46 88.90 374.90 82.48 C 367.82 89.59 360.64 96.61 353.73 103.88 M 144.24 124.82 C 168.88 150.31 194.37 174.98 219.07 200.41 C 220.53 199.75 222.00 199.13 223.48 198.53 C 223.53 162.93 223.49 127.33 223.50 91.74 C 194.56 94.59 166.66 106.32 144.24 124.82 M 253.25 91.70 C 253.25 127.29 253.24 162.88 253.25 198.48 C 254.71 199.08 256.16 199.72 257.59 200.38 C 282.76 175.42 307.53 150.07 332.54 124.96 C 310.25 106.23 282.16 94.70 253.25 91.70 M 353.54 146.10 C 328.68 171.37 303.55 196.38 278.59 221.56 C 279.24 223.01 279.86 224.48 280.44 225.96 C 315.79 226.04 351.15 225.99 386.51 225.99 C 383.80 196.85 372.00 168.76 353.54 146.10 M 90.17 225.98 C 125.49 226.04 160.82 225.95 196.14 226.03 C 196.82 224.52 197.44 223.00 198.04 221.47 C 172.90 196.56 148.25 171.17 123.22 146.16 C 104.56 168.67 93.07 196.92 90.17 225.98 M 30.29 225.90 C 29.61 235.91 29.59 245.96 30.30 255.97 C 40.27 256.04 50.24 255.98 60.22 256.00 C 59.47 245.98 59.31 235.90 60.28 225.90 C 50.28 225.86 40.29 225.85 30.29 225.90 M 235.12 226.24 C 230.37 227.23 226.24 230.77 224.55 235.33 C 221.12 243.33 226.12 253.34 234.52 255.47 C 243.23 258.24 253.01 251.07 253.26 242.02 C 254.31 232.47 244.46 223.79 235.12 226.24 M 416.46 226.00 C 417.30 236.02 417.31 246.10 416.46 256.12 C 426.44 256.13 436.42 256.11 446.40 256.13 C 447.02 246.10 447.14 236.02 446.35 226.00 C 436.39 226.01 426.42 226.00 416.46 226.00 M 90.15 256.00 C 92.94 285.10 104.62 313.21 123.11 335.83 C 148.31 310.90 172.90 285.39 198.09 260.45 C 197.45 258.97 196.81 257.49 196.21 256.00 C 160.86 255.99 125.50 256.01 90.15 256.00 M 278.73 260.36 C 303.64 285.62 328.70 310.75 353.79 335.84 C 372.16 313.13 383.80 285.08 386.69 256.00 C 351.34 255.98 316.00 256.04 280.66 255.97 C 280.03 257.44 279.39 258.90 278.73 260.36 M 144.03 357.13 C 166.51 375.57 194.40 387.38 223.36 390.27 C 223.40 354.69 223.36 319.11 223.38 283.53 C 221.88 282.85 220.37 282.21 218.86 281.59 C 194.09 306.94 168.94 331.92 144.03 357.13 M 253.26 283.55 C 253.23 319.13 253.25 354.71 253.25 390.29 C 282.19 387.33 310.19 375.67 332.59 357.09 C 307.55 331.98 282.81 306.57 257.58 281.64 C 256.14 282.27 254.70 282.91 253.26 283.55 M 80.75 378.39 C 87.24 385.99 94.31 393.08 101.84 399.66 C 108.93 392.61 115.83 385.39 123.00 378.43 C 115.55 371.75 108.37 364.74 101.95 357.04 C 94.82 364.10 87.82 371.27 80.75 378.39 M 353.71 378.18 C 360.70 385.37 367.81 392.43 374.90 399.52 C 382.49 393.10 389.33 385.85 395.98 378.47 C 388.84 371.42 381.82 364.25 374.75 357.14 C 368.20 364.60 361.28 371.76 353.71 378.18 M 223.49 451.45 C 233.40 452.13 243.35 452.18 253.26 451.45 C 253.23 441.12 253.27 430.79 253.24 420.46 C 243.34 421.19 233.38 421.30 223.48 420.41 C 223.51 430.76 223.50 441.11 223.49 451.45 Z" />
</g>
</svg>
