<?xml version="1.0" encoding="UTF-8" ?>
<!DOCTYPE svg PUBLIC "-//W3C//DTD SVG 1.1//EN" "http://www.w3.org/Graphics/SVG/1.1/DTD/svg11.dtd">
<svg width="512pt" height="512pt" viewBox="0 0 512 512" version="1.1" xmlns="http://www.w3.org/2000/svg">
<g id="#b2b2b2b2">
<path fill="#b2b2b2" opacity="0.70" d=" M 246.65 0.00 L 261.63 0.00 C 297.49 0.85 333.20 9.12 365.61 24.56 C 411.05 46.02 449.85 81.24 475.65 124.37 C 498.64 162.51 511.20 206.75 512.00 251.26 L 512.00 261.70 C 510.98 305.40 498.78 348.85 476.36 386.40 C 443.54 442.05 388.92 484.65 326.57 501.91 C 326.70 438.78 326.57 375.64 326.64 312.50 C 345.05 312.48 363.46 312.53 381.87 312.48 C 384.60 291.11 387.44 269.76 390.08 248.38 C 368.94 248.36 347.79 248.40 326.64 248.36 C 326.63 234.27 326.57 220.18 326.67 206.08 C 326.75 198.23 328.00 189.60 333.78 183.78 C 339.97 177.98 348.90 176.72 357.04 176.54 C 368.68 176.46 380.32 176.50 391.96 176.52 C 392.05 157.45 391.97 138.38 392.00 119.31 C 374.76 117.40 357.39 116.77 340.05 116.82 C 319.52 117.15 298.24 123.68 283.49 138.48 C 266.88 154.56 260.45 178.44 260.51 201.00 C 260.48 216.83 260.52 232.66 260.49 248.49 C 242.20 248.52 223.91 248.48 205.63 248.51 C 205.61 269.88 205.63 291.25 205.62 312.63 C 223.91 312.63 242.20 312.61 260.49 312.63 C 260.51 379.09 260.51 445.54 260.49 512.00 L 250.36 512.00 C 208.87 511.02 167.58 500.04 131.37 479.70 C 90.21 456.78 55.58 422.28 32.61 381.15 C 11.95 344.55 0.78 302.76 0.00 260.76 L 0.00 250.35 C 0.66 225.51 4.67 200.74 12.38 177.10 C 25.14 137.37 47.96 100.95 78.00 71.99 C 103.13 47.52 133.45 28.44 166.29 16.13 C 191.98 6.43 219.25 1.33 246.65 0.00 Z" />
</g>
</svg>
