<?xml version="1.0" encoding="UTF-8" ?>
<!DOCTYPE svg PUBLIC "-//W3C//DTD SVG 1.1//EN" "http://www.w3.org/Graphics/SVG/1.1/DTD/svg11.dtd">
<svg width="512pt" height="384pt" viewBox="0 0 512 384" version="1.1" xmlns="http://www.w3.org/2000/svg">
<g id="#1f252fff">
<path fill="#1f252f" opacity="1.00" d=" M 341.38 0.00 L 384.00 0.00 C 384.00 42.66 384.01 85.33 383.99 127.99 C 369.79 128.00 355.58 128.02 341.38 127.99 C 341.38 85.32 341.38 42.66 341.38 0.00 Z" />
<path fill="#1f252f" opacity="1.00" d=" M 0.00 42.62 C 99.54 42.62 199.07 42.63 298.61 42.62 C 298.63 56.87 298.63 71.12 298.61 85.38 C 199.07 85.37 99.54 85.37 0.00 85.37 L 0.00 42.62 Z" />
<path fill="#1f252f" opacity="1.00" d=" M 426.64 42.64 C 455.09 42.60 483.55 42.64 512.00 42.62 L 512.00 85.37 C 483.55 85.36 455.09 85.39 426.64 85.36 C 426.61 71.12 426.61 56.88 426.64 42.64 Z" />
<path fill="#1f252f" opacity="1.00" d=" M 128.00 128.01 C 142.21 128.01 156.42 127.97 170.63 128.02 C 170.61 170.68 170.62 213.33 170.63 255.98 C 156.42 256.02 142.21 255.99 128.00 256.00 C 128.00 213.33 128.00 170.67 128.00 128.01 Z" />
<path fill="#1f252f" opacity="1.00" d=" M 0.00 170.62 C 28.45 170.64 56.90 170.60 85.36 170.64 C 85.38 184.88 85.38 199.12 85.35 213.36 C 56.90 213.39 28.45 213.36 0.00 213.37 L 0.00 170.62 Z" />
<path fill="#1f252f" opacity="1.00" d=" M 213.39 213.38 C 213.37 199.12 213.37 184.87 213.39 170.62 C 312.93 170.63 412.46 170.62 512.00 170.62 L 512.00 213.37 C 412.46 213.37 312.93 213.37 213.39 213.38 Z" />
<path fill="#1f252f" opacity="1.00" d=" M 234.63 256.01 C 248.87 255.99 263.12 255.99 277.37 256.01 C 277.38 298.67 277.37 341.34 277.37 384.00 L 234.62 384.00 C 234.63 341.34 234.62 298.67 234.63 256.01 Z" />
<path fill="#1f252f" opacity="1.00" d=" M 0.00 298.62 C 64.00 298.63 127.99 298.62 191.99 298.63 C 192.01 312.87 192.01 327.12 191.99 341.37 C 127.99 341.38 64.00 341.37 0.00 341.37 L 0.00 298.62 Z" />
<path fill="#1f252f" opacity="1.00" d=" M 320.01 298.63 C 384.01 298.62 448.00 298.63 512.00 298.62 L 512.00 341.37 C 448.00 341.37 384.01 341.38 320.01 341.37 C 319.99 327.12 319.99 312.87 320.01 298.63 Z" />
</g>
</svg>
