<?xml version="1.0" encoding="UTF-8" ?>
<!DOCTYPE svg PUBLIC "-//W3C//DTD SVG 1.1//EN" "http://www.w3.org/Graphics/SVG/1.1/DTD/svg11.dtd">
<svg width="512pt" height="512pt" viewBox="0 0 512 512" version="1.1" xmlns="http://www.w3.org/2000/svg">
<g id="#b2b2b2b2">
<path fill="#b2b2b2" opacity="0.70" d=" M 237.90 0.00 L 272.56 0.00 C 306.99 2.33 341.01 11.46 371.74 27.24 C 423.03 53.09 464.99 96.84 488.84 149.07 C 502.91 179.58 510.70 212.90 512.00 246.45 L 512.00 265.56 C 510.46 306.77 498.90 347.55 478.35 383.31 C 460.63 414.30 436.38 441.52 407.62 462.66 C 368.55 491.63 321.03 508.86 272.52 512.00 L 239.46 512.00 C 197.13 509.33 155.51 495.96 119.65 473.30 C 67.57 440.66 27.81 388.78 10.34 329.81 C 4.70 311.20 1.38 291.92 0.00 272.53 L 0.00 239.55 C 2.84 196.03 16.80 153.24 40.64 116.69 C 63.71 81.04 95.75 51.25 133.00 30.85 C 165.21 13.14 201.27 2.76 237.90 0.00 M 145.50 98.74 C 124.59 102.61 106.57 118.64 100.40 139.00 C 96.61 149.93 97.61 161.62 97.50 172.98 C 97.50 233.32 97.51 293.66 97.49 354.00 C 97.47 365.81 100.77 377.69 107.28 387.58 C 115.58 400.39 129.05 409.66 143.96 412.93 C 152.49 415.02 161.33 414.42 170.02 414.50 C 231.36 414.50 292.69 414.51 354.02 414.50 C 362.88 414.43 371.70 412.52 379.77 408.85 C 400.40 399.54 414.29 377.59 414.13 354.98 C 414.11 290.00 414.12 225.02 414.13 160.04 C 414.42 150.01 412.50 139.82 407.95 130.84 C 400.42 114.95 385.25 103.02 368.12 99.17 C 359.58 97.01 350.72 97.56 342.00 97.50 C 284.00 97.50 226.00 97.50 168.00 97.50 C 160.49 97.55 152.89 97.14 145.50 98.74 Z" />
<path fill="#b2b2b2" opacity="0.70" d=" M 324.01 133.24 C 341.88 133.06 359.77 133.65 377.63 132.90 C 377.61 151.07 377.64 169.23 377.62 187.39 C 359.74 187.36 341.87 187.39 324.00 187.37 C 324.00 169.33 323.99 151.29 324.01 133.24 Z" />
<path fill="#b2b2b2" opacity="0.70" d=" M 244.53 200.67 C 256.38 198.20 269.06 199.70 279.94 205.08 C 292.59 211.09 302.76 222.09 307.80 235.16 C 313.86 249.96 313.14 267.44 305.60 281.58 C 298.86 295.12 286.21 305.42 271.77 309.77 C 259.02 313.55 244.93 312.66 232.83 307.10 C 220.75 301.72 210.79 291.86 205.18 279.90 C 198.32 265.78 198.06 248.75 204.19 234.33 C 211.00 217.37 226.61 204.32 244.53 200.67 Z" />
<path fill="#b2b2b2" opacity="0.70" d=" M 125.88 223.50 C 142.25 223.54 158.62 223.40 174.99 223.58 C 168.60 237.72 167.39 253.85 169.50 269.10 C 172.53 290.07 183.66 309.68 199.96 323.19 C 216.98 337.59 239.76 344.81 261.97 343.14 C 281.85 341.84 301.14 333.32 315.58 319.60 C 333.25 303.15 343.54 279.11 343.13 254.95 C 342.79 244.24 341.25 233.29 336.65 223.51 C 353.02 223.51 369.39 223.47 385.76 223.52 C 385.73 267.03 385.76 310.54 385.75 354.04 C 385.76 370.80 370.79 385.99 354.00 386.01 C 288.33 385.99 222.66 386.02 157.00 385.99 C 140.42 385.60 125.93 370.54 125.88 354.01 C 125.87 310.51 125.88 267.01 125.88 223.50 Z" />
</g>
</svg>
