<svg xmlns="http://www.w3.org/2000/svg" width="23" height="18" viewBox="0 0 23 18"><g><g><path fill="#fff" d="M22.732 8.056c0 .89-.34 1.737-.956 2.387-.293.31-.451.777-.451 1.327v3.299a.705.705 0 0 1-.704.702h-2.11v1.403h-1.407v-1.403H5.848v1.403H4.44v-1.403h-2.11a.705.705 0 0 1-.704-.702v-3.305c0-.544-.158-1.017-.451-1.327A3.458 3.458 0 0 1 .22 8.05a3.49 3.49 0 0 1 1.243-2.673 3.5 3.5 0 0 1 1.635-.754C3.41 2.207 5.455.33 7.958.33h7.035c2.504 0 4.55 1.877 4.866 4.293a3.5 3.5 0 0 1 1.636.754 3.507 3.507 0 0 1 1.237 2.68zM7.958 1.734A3.51 3.51 0 0 0 4.505 4.64c1.577.35 2.75 1.842 2.75 3.561v1.954h8.442v-1.96c0-1.719 1.172-3.21 2.75-3.561a3.511 3.511 0 0 0-3.454-2.901zM21.325 8.05c0-.614-.27-1.199-.745-1.602a2.085 2.085 0 0 0-1.723-.474c-1.003.164-1.753 1.123-1.753 2.228v3.358H5.848V8.202c0-1.11-.756-2.064-1.753-2.228a2.11 2.11 0 0 0-1.723.474 2.084 2.084 0 0 0-.176 3.03c.539.573.838 1.386.838 2.292v2.597h16.884V11.77c0-.906.299-1.72.838-2.293.363-.391.569-.894.569-1.427z"/></g></g></svg>