<?xml version="1.0" encoding="UTF-8" ?>
<!DOCTYPE svg PUBLIC "-//W3C//DTD SVG 1.1//EN" "http://www.w3.org/Graphics/SVG/1.1/DTD/svg11.dtd">
<svg width="512pt" height="295pt" viewBox="0 0 512 295" version="1.1" xmlns="http://www.w3.org/2000/svg">
<g id="#ffffffff">
<path fill="#ffffff" opacity="1.00" d=" M 86.20 23.33 C 107.80 12.92 132.16 8.49 156.05 10.20 C 187.01 12.28 217.05 25.22 239.93 46.16 C 262.50 66.63 278.12 94.69 283.37 124.73 C 358.46 124.72 433.54 124.84 508.62 124.67 C 508.93 173.90 508.64 223.14 508.77 272.37 C 489.06 272.37 469.34 272.38 449.63 272.36 C 449.61 242.81 449.64 213.27 449.61 183.72 C 441.95 183.80 434.29 183.70 426.63 183.77 C 426.61 213.31 426.63 242.85 426.62 272.39 C 406.96 272.34 387.30 272.40 367.63 272.36 C 367.61 242.81 367.64 213.27 367.62 183.72 C 338.83 183.80 310.04 183.71 281.26 183.76 C 275.10 208.09 262.17 230.67 244.30 248.30 C 227.05 265.58 205.08 278.08 181.47 284.28 C 154.30 291.41 124.97 290.11 98.56 280.53 C 78.87 273.40 60.81 261.78 46.23 246.74 C 23.77 223.89 9.61 193.05 7.06 161.10 C 4.88 135.50 9.85 109.32 21.53 86.42 C 35.35 59.03 58.44 36.42 86.20 23.33 M 134.51 69.72 C 116.38 72.33 99.25 81.36 86.88 94.87 C 74.79 108.00 67.18 125.23 65.88 143.06 C 64.38 161.30 69.39 180.01 79.89 195.00 C 92.20 213.10 112.29 225.67 133.94 228.83 C 150.51 231.38 167.87 228.61 182.75 220.89 C 201.07 211.51 215.60 194.86 222.15 175.32 C 227.61 159.55 227.88 142.07 223.07 126.10 C 217.77 108.58 206.36 92.94 191.14 82.74 C 174.79 71.48 154.13 66.90 134.51 69.72 Z" />
</g>
</svg>
