<svg width="89" height="89" viewBox="0 0 89 89" fill="none" xmlns="http://www.w3.org/2000/svg">
<circle cx="44.5" cy="44.5" r="42.5" fill="#1F252F"/>
<path d="M44.5 0C19.9637 0 0 19.9637 0 44.5C0 69.0363 19.9414 89 44.5 89C69.0586 89 89 69.0363 89 44.5C89 19.9637 69.0363 0 44.5 0ZM28.2391 82.219C21.592 79.3416 15.8594 74.7689 11.5767 69.0363H28.2391V82.219ZM28.2391 66.8504H11.1752L14.7664 53.5115C17.3316 55.4298 20.499 56.5674 23.9341 56.5674C25.4286 56.5674 26.8784 56.3444 28.2614 55.9429V66.8504H28.2391ZM13.6065 49.3404C11.8667 47.1098 10.8406 44.3216 10.8406 41.3103C10.8406 35.8231 14.2311 31.1165 19.0268 29.1759L13.6065 49.3404ZM28.2391 53.6454C26.8784 54.1138 25.4286 54.3815 23.9118 54.3815C20.6551 54.3815 17.6662 53.1769 15.3687 51.1917L21.4804 28.4398C22.2612 28.2837 23.0865 28.2168 23.9118 28.2168C25.4286 28.2168 26.8784 28.4845 28.2391 28.9529V53.6454ZM44.5 85.5872C39.5704 85.5872 34.8193 84.7173 30.4251 83.1113V55.1175C32.7672 54.0023 34.797 52.307 36.3138 50.2103C36.5815 56.9689 39.7489 63.4376 45.0576 68.0549C49.2511 71.6907 54.0692 73.7652 58.8649 74.1444L63.2368 81.0368C57.5935 83.9366 51.2363 85.5872 44.5 85.5872ZM38.8343 38.0982C37.8306 33.3917 34.6632 29.4882 30.4028 27.4807V12.9373H43.6747C50.2995 12.9373 55.7644 17.9115 56.5897 24.291C48.6935 25.9193 42.2248 31.1611 38.8343 38.0982ZM56.7012 26.5216C56.4113 33.4363 50.701 38.9905 43.697 38.9905H40.8642C43.8977 32.7672 49.6526 28.0606 56.7012 26.5216ZM39.2581 43.184L57.3258 71.7576C53.5561 71.1108 49.8088 69.304 46.4629 66.4266C41.4441 62.0769 38.5221 55.9429 38.4328 49.5857C38.4328 47.3774 38.7005 45.2361 39.2581 43.184ZM36.7822 38.9682H30.4251V29.9566C33.704 31.8526 36.0907 35.1316 36.7822 38.9682ZM37.0053 41.1541C37.0053 41.1987 37.0053 41.2434 37.0053 41.3103C37.0053 46.1506 34.3509 50.3887 30.4251 52.6639V41.1764H37.0053V41.1541ZM65.1328 80.0108L61.4524 74.2113C63.5491 74.0998 65.6012 73.6759 67.5865 72.8952C75.3935 69.8393 81.1707 61.8316 81.9737 52.9762L82.0852 51.794H69.1032V53.9799H79.6539C78.5386 61.4747 73.386 68.3002 66.7835 70.8877C64.6198 71.7353 62.3446 72.1145 60.0694 72.0699L40.5519 41.1987H43.6747C52.0616 41.1987 58.8649 34.3732 58.8649 26.0085C58.8649 17.6439 52.0393 10.8183 43.6747 10.8183H31.585H28.2391V26.7446C26.8784 26.3431 25.4286 26.1201 23.9118 26.1201C23.2872 26.1201 22.685 26.1647 22.0827 26.2316L24.2018 18.313H15.1902V20.499H21.3689L19.696 26.7223C13.3165 28.5514 8.63232 34.4401 8.63232 41.3995C8.63232 45.5038 10.2606 49.2288 12.915 51.9724L9.25689 65.5789C5.55414 59.4226 3.43508 52.1955 3.43508 44.5C3.43508 21.8596 21.8596 3.43509 44.5 3.43509C67.1404 3.43509 85.5649 21.8596 85.5649 44.5C85.5649 59.6233 77.3341 72.8729 65.1328 80.0108ZM69.1479 27.5476C63.1253 27.5476 58.218 32.4549 58.218 38.4774C58.218 44.5 63.1253 49.4073 69.1479 49.4073C72.6053 49.4073 75.8842 47.7566 77.9363 44.9684C78.5609 44.1431 79.0293 43.2286 79.3862 42.2471H77.0218C76.7764 42.7379 76.5088 43.2063 76.1742 43.6524C74.5236 45.883 71.8915 47.199 69.1256 47.199C64.6644 47.199 60.984 43.8531 60.4263 39.5258H80.0554V38.4328C80.0777 32.4549 75.1704 27.5476 69.1479 27.5476ZM60.4486 37.4068C60.984 33.1018 64.6867 29.7336 69.1479 29.7336C73.609 29.7336 77.2895 33.0795 77.8471 37.4068H60.4486Z" fill="url(#paint0_linear)"/>
<defs>
<linearGradient id="paint0_linear" x1="76.763" y1="6.03652" x2="11.9238" y2="83.3196" gradientUnits="userSpaceOnUse">
<stop stop-color="#FBB451"/>
<stop offset="0.0795509" stop-color="#EBA84C"/>
<stop offset="0.5284" stop-color="#986A34"/>
<stop offset="0.8456" stop-color="#634225"/>
<stop offset="1" stop-color="#4F331F"/>
</linearGradient>
</defs>
</svg>
