<svg xmlns="http://www.w3.org/2000/svg" width="221" height="21" viewBox="0 0 221 21"><g><g><g/><g><g><path fill="#fff" d="M43.872 1.237a.625.625 0 0 1 .166.412c0 .082 0 .165-.083.247L38.96 8.73l5.16 7.165c.084.082.084.165.084.247 0 .165-.084.33-.167.412a.639.639 0 0 1-.416.164h-1.915c-.25 0-.416-.082-.582-.164-.167-.083-.25-.247-.333-.412l-3.33-4.612v4.612c0 .165-.083.33-.166.412a.64.64 0 0 1-.416.164h-1.832a.64.64 0 0 1-.416-.164.626.626 0 0 1-.166-.412V11.53l-3.413 4.694c-.083.165-.25.33-.333.412-.167.082-.333.165-.583.165h-1.914a.64.64 0 0 1-.417-.165.626.626 0 0 1-.166-.412c0-.082 0-.164.083-.247l5.161-7.164-4.994-6.836c-.084-.082-.084-.164-.084-.247 0-.165.084-.33.167-.412a.64.64 0 0 1 .416-.164h1.915c.25 0 .416.082.582.164.167.083.25.247.333.412l3.163 4.365V1.649c0-.165.084-.33.167-.412a.64.64 0 0 1 .416-.165h1.831a.64.64 0 0 1 .416.165c.167.082.25.247.25.412V5.93l3.163-4.365c.083-.164.25-.329.333-.411.167-.083.333-.165.583-.165h1.914c.167.082.333.082.417.247z"/></g><g><path fill="#fff" d="M54.85 16.557a.626.626 0 0 1-.166-.412V9.886l-5.494 6.589c-.166.164-.333.247-.5.247h-1.747a.64.64 0 0 1-.417-.165.626.626 0 0 1-.166-.412V5.686c0-.164.083-.329.166-.411a.64.64 0 0 1 .417-.165h1.748a.64.64 0 0 1 .416.165.626.626 0 0 1 .166.411v6.342l5.494-6.67c.167-.166.333-.248.5-.248h1.748a.64.64 0 0 1 .416.165.626.626 0 0 1 .166.411v10.46c0 .164-.083.329-.166.411a.64.64 0 0 1-.416.165h-1.748c-.167 0-.333 0-.417-.165z"/></g><g><path fill="#fff" d="M136.18 16.557a.626.626 0 0 1-.166-.412V9.886l-5.494 6.671c-.166.165-.333.247-.5.247h-1.747a.64.64 0 0 1-.417-.165.625.625 0 0 1-.166-.411V5.686c0-.164.083-.329.166-.411a.64.64 0 0 1 .417-.165h1.748a.64.64 0 0 1 .416.165.626.626 0 0 1 .166.411v6.342l5.494-6.67c.167-.166.333-.248.5-.248h1.748a.64.64 0 0 1 .416.165.625.625 0 0 1 .166.411v10.46c0 .164-.083.329-.166.411a.64.64 0 0 1-.416.165h-1.748c-.084 0-.25 0-.417-.165z"/></g><g><path fill="#fff" d="M150.66 16.557a.626.626 0 0 1-.166-.412V9.886L145 16.557c-.166.165-.333.247-.5.247h-1.747a.64.64 0 0 1-.417-.165.625.625 0 0 1-.166-.411V5.686c0-.164.083-.329.166-.411a.64.64 0 0 1 .417-.165h1.748a.64.64 0 0 1 .416.165.626.626 0 0 1 .166.411v6.342l5.494-6.67c.167-.166.333-.248.5-.248h1.748a.64.64 0 0 1 .416.165.625.625 0 0 1 .166.411v10.46c0 .164-.083.329-.166.411a.64.64 0 0 1-.416.165h-1.748c-.167 0-.333 0-.417-.165z"/></g><g><path fill="#fff" d="M65.007 12.604c0 1.4-.333 2.47-1.082 3.212-.749.741-1.748 1.153-3.163 1.153h-.5a.64.64 0 0 1-.416-.165.625.625 0 0 1-.166-.412V14.91c0-.165.083-.33.166-.412a.64.64 0 0 1 .417-.164h.416c.583 0 .916-.165 1.165-.412.167-.247.333-.741.333-1.318V5.686c0-.164.083-.329.167-.411a.64.64 0 0 1 .416-.165h8.324a.64.64 0 0 1 .416.165c0 .082.083.247.083.411v10.46c0 .164-.083.329-.166.411a.64.64 0 0 1-.416.165h-1.748a.64.64 0 0 1-.417-.165.626.626 0 0 1-.166-.412v-8.4h-3.663z"/></g><g><path fill="#fff" d="M77.999 13.672a2.76 2.76 0 0 0 1.831.659c.666 0 1.166-.083 1.499-.33.333-.165.665-.494.915-.906.083-.164.25-.33.333-.411a.64.64 0 0 1 .416-.165h1.748a.64.64 0 0 1 .417.165c.166.082.166.247.166.411 0 .494-.25 1.07-.666 1.647a4.943 4.943 0 0 1-1.831 1.565c-.833.412-1.831.659-2.997.659a6.228 6.228 0 0 1-2.83-.659c-.832-.494-1.498-1.07-1.998-1.894a5.784 5.784 0 0 1-.832-2.553v-.906-.906c.083-.906.333-1.812.832-2.553.5-.823 1.166-1.4 1.998-1.894.833-.494 1.748-.741 2.83-.741 1.166 0 2.164.247 2.997.659a4.943 4.943 0 0 1 1.831 1.565c.416.576.666 1.152.666 1.647 0 .164-.083.329-.166.411-.167.083-.25.165-.417.165h-1.748c-.166 0-.25-.082-.416-.165-.083-.082-.25-.247-.333-.411-.25-.412-.582-.742-.915-.906a3.354 3.354 0 0 0-1.499-.33c-.666 0-1.332.247-1.831.66-.5.41-.832 1.07-.916 1.976V11.778c.084.823.417 1.4.916 1.894z"/></g><g><path fill="#fff" d="M102.887 20.837a.64.64 0 0 1-.416.164h-1.748a.64.64 0 0 1-.417-.165.626.626 0 0 1-.166-.411V5.684c0-.165.083-.33.166-.412a.64.64 0 0 1 .417-.165h1.748a.64.64 0 0 1 .416.165.626.626 0 0 1 .166.412v.494c.333-.33.75-.66 1.332-.906a5.188 5.188 0 0 1 2.081-.412c1 0 1.831.247 2.58.741a5.448 5.448 0 0 1 1.749 1.894c.416.824.665 1.647.665 2.636V11.778c-.083.906-.25 1.811-.665 2.635-.417.824-1 1.482-1.748 1.894-.75.494-1.582.741-2.58.741a5.189 5.189 0 0 1-2.082-.411 4.164 4.164 0 0 1-1.332-.906v4.694c0 .164-.083.33-.166.412zM107.88 8.4c-.5-.576-1.165-.823-2.08-.823-.75 0-1.416.247-1.915.658-.5.412-.75 1.071-.833 1.812V11.695c.084.741.333 1.4.833 1.812.5.494 1.165.659 1.831.659.75 0 1.415-.247 1.915-.659.499-.412.832-1.153.915-2.059 0-.33.083-.494.083-.659 0-.988-.25-1.894-.749-2.388z"/></g><g><path fill="#fff" d="M125.104 10.956c0 .412 0 .742-.083 1.153-.084.906-.334 1.73-.833 2.471-.5.741-1.165 1.318-1.998 1.812a6.496 6.496 0 0 1-2.83.659 6.228 6.228 0 0 1-2.83-.66c-.832-.411-1.498-.987-1.998-1.811-.5-.741-.749-1.565-.832-2.47v-1.154-1.152c.083-.906.333-1.73.832-2.553.5-.742 1.166-1.318 1.998-1.812a6.495 6.495 0 0 1 2.83-.659c1.082 0 1.998.247 2.83.659.833.412 1.499.988 1.998 1.812.5.74.75 1.564.832 2.553.084.329.084.74.084 1.152zm-7.575-2.882c-.5.33-.832.988-.916 1.812v1.976c.084.824.417 1.483.916 1.812.5.33 1.082.577 1.831.577.75 0 1.332-.165 1.832-.577.499-.33.832-.988.915-1.812 0-.33.083-.658.083-.988 0-.412 0-.741-.083-.988-.083-.824-.416-1.482-.915-1.812-.5-.33-1.083-.576-1.832-.576-.749.082-1.332.247-1.831.576z"/></g><g><path fill="#fff" d="M167.558 5.275a.626.626 0 0 1 .166.411v10.46c0 .164-.083.329-.166.411a.64.64 0 0 1-.417.165h-1.748a.64.64 0 0 1-.416-.165.626.626 0 0 1-.166-.412v-3.953h-5.328v3.953c0 .165-.083.33-.166.412a.64.64 0 0 1-.416.165h-1.748a.64.64 0 0 1-.417-.165.626.626 0 0 1-.166-.412V5.686c0-.164.083-.329.166-.411a.64.64 0 0 1 .417-.165h1.748a.64.64 0 0 1 .416.165.626.626 0 0 1 .166.411v3.871h5.328v-3.87c0-.165.083-.33.166-.412a.64.64 0 0 1 .416-.165h1.748c.167 0 .333 0 .417.165z"/></g><g><path fill="#fff" d="M171.056 16.632c-.083-.083-.166-.165-.166-.33V5.514c0-.082.083-.247.166-.33.084-.082.167-.164.333-.164h6.41c1.165 0 2.08.33 2.83.906.75.576 1.082 1.4 1.082 2.306 0 .576-.083 1.07-.333 1.482-.166.33-.5.659-.832.906.5.33.832.659 1.082 1.07.25.412.333.989.333 1.565 0 1.07-.333 1.894-1 2.47-.665.577-1.58.907-2.746.907h-6.742c-.25.082-.333.082-.417 0zm2.747-7.083h3.413c.5 0 .833-.082 1.082-.164.25-.165.333-.33.333-.66 0-.329-.083-.576-.333-.658-.25-.165-.582-.165-1.082-.165h-3.413zm4.662 4.283c.25-.165.333-.412.333-.741 0-.33-.084-.577-.333-.742-.25-.164-.583-.247-1.082-.247h-3.58v1.977h3.58c.5 0 .915-.083 1.082-.247z"/></g><g><path fill="#fff" d="M192.447 5.604c.833.494 1.498 1.235 1.998 2.058.5.906.666 1.812.666 2.883v.988c0 .165-.084.33-.167.412a.64.64 0 0 1-.416.164h-7.575c0 .66.25 1.153.75 1.565.499.412 1.165.577 1.83.577.833 0 1.5-.165 1.915-.495.167-.082.333-.164.416-.247.084-.082.25-.082.417-.082h1.83a.64.64 0 0 1 .417.165.625.625 0 0 1 .167.412c0 .329-.167.74-.583 1.153-.416.494-.999.905-1.831 1.235-.75.33-1.748.494-2.747.494-1.082 0-2.081-.247-2.914-.741a4.812 4.812 0 0 1-1.914-2.141 7.519 7.519 0 0 1-.666-3.13c0-1.153.25-2.141.666-3.047.416-.906 1.082-1.647 1.914-2.223.833-.577 1.832-.824 2.914-.824 1.082.082 1.998.33 2.913.824zm-.416 4.035c-.167-1.4-.999-2.059-2.497-2.059-.75 0-1.415.247-1.831.659a2.587 2.587 0 0 0-.75 1.4z"/></g><g><path fill="#fff" d="M200.859 13.672a2.76 2.76 0 0 0 1.831.659c.666 0 1.166-.083 1.499-.33.333-.165.665-.494.915-.906.083-.164.25-.33.333-.411a.64.64 0 0 1 .416-.165h1.748a.64.64 0 0 1 .417.165c.166.082.166.247.166.411 0 .494-.25 1.07-.666 1.647a4.943 4.943 0 0 1-1.831 1.565c-.833.412-1.831.659-2.997.659a6.228 6.228 0 0 1-2.83-.659c-.832-.494-1.498-1.07-1.998-1.894a5.784 5.784 0 0 1-.832-2.553v-.906-.906c.083-.906.333-1.812.832-2.553.5-.823 1.166-1.4 1.998-1.894.833-.494 1.748-.741 2.83-.741 1.166 0 2.164.247 2.997.659a4.943 4.943 0 0 1 1.831 1.565c.416.576.666 1.152.666 1.647 0 .164 0 .329-.166.411-.167.083-.25.165-.417.165h-1.748c-.166 0-.25-.082-.416-.165-.166-.082-.25-.247-.333-.411-.25-.412-.582-.742-.915-.906a3.354 3.354 0 0 0-1.499-.33c-.666 0-1.332.247-1.831.66-.5.41-.832 1.07-.916 1.976V11.778c.084.823.333 1.4.916 1.894z"/></g><g><path fill="#fff" d="M220.506 5.11h-8.907c-.167 0-.25.082-.416.165l-1.665 1.647a.503.503 0 0 0-.083.576c.083.165.25.33.5.33h3.828v8.4c0 .164.083.33.167.411a.64.64 0 0 0 .416.165h1.748a.64.64 0 0 0 .416-.165.625.625 0 0 0 .166-.411V7.745h3.83c.333 0 .499-.247.499-.494V5.604c0-.247-.25-.494-.5-.494z"/></g><g><path fill="#fff" d="M97.635 5.11H88.73c-.167 0-.25.082-.416.165l-1.665 1.647c-.084.082-.167.33-.084.494.084.165.25.33.5.33h3.829v8.4c0 .164.083.329.166.411a.64.64 0 0 0 .417.165h1.748a.64.64 0 0 0 .416-.165.626.626 0 0 0 .166-.412v-8.4h3.83c.332 0 .499-.247.499-.494V5.604c0-.247-.25-.494-.5-.494z"/></g><g><g><g><path fill="#fff" d="M16.897 11.368c0 .33-.25.577-.583.577h-1.831a.566.566 0 0 1-.583-.577V9.556c0-.329.25-.576.583-.576h1.83c.334 0 .584.247.584.576z"/></g><g><path fill="#fff" d="M16.898 16.228c0 .33-.25.577-.583.577H9.573a.566.566 0 0 1-.583-.577v-1.812c0-.329.25-.576.583-.576h6.742c.333 0 .583.247.583.576z"/></g><g><path fill="#fff" d="M9.908 6.172a.503.503 0 0 0-.083.576c.083.165.25.33.5.33h1.248a.566.566 0 0 0 .582-.577V5.348c0-.247-.166-.412-.333-.494-.166-.082-.416 0-.582.082z"/></g><g><path fill="#fff" d="M14.146 1.978a.626.626 0 0 0-.166.412v4.2c0 .33.25.576.583.576h1.83a.566.566 0 0 0 .584-.576V.578c0-.247-.167-.412-.333-.494-.167-.082-.417 0-.583.082z"/></g><g><path fill="#fff" d="M4.998 11.039a.503.503 0 0 0-.083.576c.083.165.25.33.5.33h6.076a.566.566 0 0 0 .582-.577V9.556c0-.329-.25-.576-.582-.576H7.245c-.166 0-.25.082-.416.165z"/></g><g><path fill="#fff" d="M.17 15.809c-.167.165-.25.412-.167.576.083.165.25.33.5.33h5.992c.167 0 .25-.083.417-.165a.626.626 0 0 0 .166-.412v-1.812c0-.329-.25-.576-.583-.576H2.417c-.167 0-.25.082-.417.165z"/></g></g></g><g><path fill="#fff" d="M130.098 2.31c-.167.164-.167.329-.083.576.083.165.25.33.5.33h5.493c.166 0 .25-.083.333-.165.083-.083.166-.247.166-.33V1.074c0-.247-.25-.494-.5-.494h-3.828c-.167 0-.25.082-.333.165z"/></g></g></g></g></svg>