<svg viewBox="0 0 269 244" version="1.1" xmlns="http://www.w3.org/2000/svg">
<g id="#f6ac6dff">
</g>
<g id="#1f252fff">
<path fill="#1f252f" opacity="1.00" d=" M 97.26 8.33 C 100.92 3.25 107.48 -0.50 113.85 1.42 C 119.36 2.47 122.76 7.72 123.81 12.89 C 124.97 19.54 125.74 26.26 126.73 32.93 C 134.34 67.96 145.38 103.54 168.14 131.90 C 172.09 136.20 175.30 141.11 179.18 145.46 C 196.70 146.73 214.16 149.79 230.83 155.41 C 242.03 159.42 253.45 164.46 261.55 173.49 C 264.44 176.54 266.51 180.34 267.26 184.48 C 269.81 195.37 264.60 207.18 255.60 213.53 C 250.21 217.33 243.48 218.78 236.96 218.61 C 227.33 218.44 218.14 214.85 209.83 210.22 C 193.40 200.83 179.62 187.64 166.12 174.56 C 156.43 174.05 146.78 175.28 137.17 176.26 C 123.71 177.87 110.27 179.63 96.93 182.01 C 87.16 198.31 76.49 214.39 62.51 227.41 C 55.50 233.76 47.43 239.43 38.08 241.57 C 28.46 243.77 17.71 241.40 10.30 234.77 C 3.80 228.47 -0.08 219.14 1.41 210.05 C 2.99 199.20 11.19 190.96 19.22 184.23 C 36.11 171.01 56.17 162.33 76.68 156.46 C 79.61 150.53 83.81 145.32 86.17 139.11 C 99.40 107.99 100.96 73.38 99.15 40.04 C 99.12 34.25 97.35 28.70 96.28 23.06 C 94.56 18.30 94.67 12.76 97.26 8.33 M 122.49 114.66 C 120.79 125.88 117.64 136.84 113.32 147.33 C 122.53 146.61 131.78 145.84 140.82 143.87 C 133.74 134.77 127.84 124.86 122.49 114.66 M 30.89 213.02 C 37.15 210.22 42.22 205.41 47.13 200.73 C 41.25 204.10 35.05 207.51 30.89 213.02 Z" />
</g>
</svg>
