<?xml version="1.0" encoding="UTF-8" ?>
<!DOCTYPE svg PUBLIC "-//W3C//DTD SVG 1.1//EN" "http://www.w3.org/Graphics/SVG/1.1/DTD/svg11.dtd">
<svg width="512pt" height="538pt" viewBox="0 0 512 538" version="1.1" xmlns="http://www.w3.org/2000/svg">
<g id="#090c11ff">
<path fill="#090c11" opacity="1.00" d=" M 238.52 35.00 C 238.07 25.95 245.81 17.28 254.97 17.21 C 273.77 16.73 292.57 19.13 310.94 23.05 C 370.71 35.95 425.20 71.37 461.48 120.56 C 487.00 154.62 503.61 195.26 509.50 237.40 C 510.77 246.09 511.09 254.87 512.00 263.60 L 512.00 276.59 C 510.54 280.54 508.56 284.54 505.11 287.11 C 499.28 291.74 490.46 291.95 484.44 287.57 C 479.42 284.11 476.58 278.07 476.74 272.02 C 476.98 252.76 473.95 233.58 469.00 215.01 C 454.11 159.88 416.77 111.29 367.42 82.59 C 336.87 64.62 301.90 54.35 266.53 52.56 C 262.03 52.27 257.49 52.60 253.00 52.06 C 244.88 50.94 238.27 43.24 238.52 35.00 Z" />
<path fill="#090c11" opacity="1.00" d=" M 103.70 22.81 C 109.37 20.09 115.39 16.53 121.94 17.90 C 127.23 18.67 131.56 22.30 134.27 26.76 C 155.06 58.98 175.80 91.22 196.60 123.43 C 201.03 130.12 200.16 139.79 194.39 145.43 C 182.76 157.11 171.07 168.75 159.41 180.40 C 155.92 183.96 151.63 187.30 150.28 192.34 C 148.77 198.09 150.13 204.05 151.24 209.75 C 158.97 246.99 178.54 281.07 204.16 308.89 C 215.40 320.67 227.15 332.07 240.42 341.58 C 264.07 359.01 291.19 372.14 320.08 377.98 C 325.27 378.91 330.63 380.09 335.90 379.03 C 340.33 378.11 343.68 374.84 346.82 371.81 C 358.58 359.91 370.52 348.18 382.40 336.39 C 385.97 332.72 390.69 329.75 395.99 329.90 C 402.22 329.54 407.27 333.62 412.19 336.82 C 442.01 355.99 471.79 375.22 501.63 394.38 C 504.97 396.58 508.36 399.15 510.01 402.93 C 512.33 408.15 511.72 414.24 509.27 419.29 C 493.62 452.33 478.11 485.45 462.50 518.51 C 460.06 523.91 455.01 528.32 448.97 528.91 C 443.13 529.38 437.34 528.19 431.56 527.49 C 408.50 524.31 385.70 519.28 363.42 512.50 C 285.92 488.92 215.54 444.69 157.45 388.58 C 119.64 352.33 86.49 311.08 60.31 265.66 C 33.62 219.45 14.34 168.82 4.70 116.28 C 2.85 106.69 1.92 96.95 0.00 87.37 L 0.00 79.43 C 1.63 75.30 3.72 71.03 7.56 68.53 C 11.52 65.91 16.01 64.26 20.26 62.19 C 48.06 49.03 75.92 36.00 103.70 22.81 Z" />
<path fill="#090c11" opacity="1.00" d=" M 250.36 106.44 C 252.82 105.65 255.43 105.60 258.00 105.56 C 296.98 105.71 335.58 120.44 365.09 145.83 C 401.85 177.05 424.22 224.76 423.78 273.07 C 423.98 281.87 416.55 289.74 407.91 290.67 C 400.74 291.34 393.28 287.31 390.30 280.68 C 387.65 275.89 388.53 270.29 388.27 265.06 C 386.68 237.06 375.71 209.79 357.76 188.27 C 334.98 160.75 300.66 143.10 264.98 140.92 C 259.41 140.46 253.42 141.51 248.27 138.80 C 242.05 135.83 238.06 128.87 238.62 122.00 C 238.81 115.03 243.84 108.67 250.36 106.44 Z" />
</g>
</svg>
