<?xml version="1.0" encoding="UTF-8" ?>
<!DOCTYPE svg PUBLIC "-//W3C//DTD SVG 1.1//EN" "http://www.w3.org/Graphics/SVG/1.1/DTD/svg11.dtd">
<svg width="512pt" height="569pt" viewBox="0 0 512 569" version="1.1" xmlns="http://www.w3.org/2000/svg">
<g id="#1f252fff">
<path fill="#1f252f" opacity="1.00" d=" M 47.08 11.14 C 66.63 1.08 90.19 -0.86 111.11 5.94 C 121.37 9.16 130.51 14.96 139.76 20.29 C 247.96 82.73 356.13 145.23 464.34 207.66 C 473.95 212.93 483.17 219.21 490.43 227.49 C 503.08 241.53 510.38 259.84 512.00 278.58 L 512.00 292.38 C 510.31 301.63 508.63 311.02 504.52 319.56 C 497.36 335.85 484.72 349.50 469.30 358.32 C 359.23 421.93 249.10 485.44 139.02 549.04 C 131.27 553.37 123.77 558.28 115.40 561.40 C 99.85 567.41 82.47 568.61 66.25 564.73 C 42.63 559.22 21.50 543.39 10.05 521.95 C 4.31 511.63 1.48 500.00 0.00 488.38 L 0.00 77.69 C 1.65 70.60 2.98 63.40 5.64 56.60 C 13.07 36.93 28.26 20.44 47.08 11.14 M 80.32 59.35 C 70.52 61.02 61.82 68.17 58.55 77.59 C 56.50 83.15 56.86 89.17 56.83 95.00 C 56.88 224.00 56.78 353.01 56.88 482.01 C 56.67 496.22 68.80 509.02 82.92 509.89 C 91.20 510.92 98.89 506.97 105.64 502.64 C 214.02 440.04 322.42 377.48 430.81 314.88 C 436.98 311.18 443.97 308.30 448.62 302.57 C 456.91 292.88 457.22 277.57 449.57 267.41 C 445.76 262.05 439.72 259.07 434.16 255.88 C 322.56 191.47 210.98 127.02 99.37 62.61 C 93.65 59.34 86.80 58.13 80.32 59.35 Z" />
</g>
</svg>
