<?xml version="1.0" encoding="UTF-8" ?>
<!DOCTYPE svg PUBLIC "-//W3C//DTD SVG 1.1//EN" "http://www.w3.org/Graphics/SVG/1.1/DTD/svg11.dtd">
<svg width="512pt" height="211pt" viewBox="0 0 512 211" version="1.1" xmlns="http://www.w3.org/2000/svg">
<g id="#ffffffff">
<path fill="#ffffff" opacity="1.00" d=" M 90.43 0.00 L 120.53 0.00 C 120.47 19.30 114.45 38.52 103.37 54.34 C 92.86 69.55 78.34 81.84 61.98 90.35 C 211.98 90.41 361.99 90.36 512.00 90.38 L 512.00 120.50 C 362.07 120.51 212.15 120.48 62.22 120.51 C 80.12 130.09 96.06 143.90 106.56 161.41 C 115.69 176.22 120.48 193.62 120.49 211.00 L 90.47 211.00 C 90.33 192.86 82.17 175.29 69.30 162.68 C 51.32 144.38 25.34 135.51 0.00 135.46 L 0.00 75.27 C 25.11 75.42 50.73 66.51 68.79 48.74 C 81.83 36.03 90.34 18.37 90.43 0.00 Z" />
</g>
</svg>
