<?xml version="1.0" encoding="UTF-8" ?>
<!DOCTYPE svg PUBLIC "-//W3C//DTD SVG 1.1//EN" "http://www.w3.org/Graphics/SVG/1.1/DTD/svg11.dtd">
<svg width="512pt" height="439pt" viewBox="0 0 512 439" version="1.1" xmlns="http://www.w3.org/2000/svg">
<g id="#ffffffff">
<path fill="#ffffff" opacity="1.00" d=" M 0.00 0.00 L 510.00 0.00 C 509.99 10.21 510.02 20.42 509.99 30.63 C 486.09 30.62 462.19 30.62 438.29 30.63 C 453.64 156.51 469.03 282.39 484.40 408.27 C 493.60 408.23 502.80 408.26 512.00 408.25 L 512.00 439.00 L 428.43 439.00 C 428.32 428.76 428.39 418.51 428.39 408.27 C 437.00 408.22 445.61 408.27 454.22 408.25 C 438.96 282.36 423.49 156.50 408.14 30.63 C 385.72 30.62 363.29 30.62 340.87 30.63 C 340.88 127.25 340.87 223.87 340.87 320.49 C 283.63 320.50 226.38 320.50 169.13 320.49 C 169.13 223.87 169.12 127.25 169.13 30.63 C 147.24 30.63 125.35 30.61 103.45 30.64 C 88.10 156.52 72.69 282.39 57.35 408.27 C 66.15 408.23 74.95 408.26 83.75 408.25 C 83.73 418.50 83.80 428.75 83.71 439.00 L 0.00 439.00 L 0.00 408.25 C 9.05 408.25 18.10 408.25 27.15 408.25 C 42.64 282.40 57.94 156.52 73.31 30.65 C 48.87 30.59 24.44 30.64 0.00 30.62 L 0.00 0.00 M 198.87 30.63 C 198.88 96.04 198.89 161.46 198.86 226.87 C 236.29 226.88 273.71 226.88 311.14 226.87 C 311.11 161.46 311.12 96.04 311.13 30.63 C 273.71 30.62 236.29 30.62 198.87 30.63 M 198.87 257.52 C 198.88 268.34 198.87 279.17 198.88 290.00 C 236.29 290.00 273.71 290.00 311.12 290.00 C 311.14 279.18 311.11 268.36 311.14 257.55 C 273.72 257.44 236.29 257.51 198.87 257.52 Z" />
</g>
</svg>
