<svg xmlns="http://www.w3.org/2000/svg" width="50" height="50" viewBox="0 0 50 50"><defs><clipPath id="zkwua"><path fill="#fff" d="M50 25c0 13.807-11.193 25-25 25S0 38.807 0 25 11.193 0 25 0s25 11.193 25 25z"/></clipPath><clipPath id="zkwub"><path fill="#fff" d="M38 14v22l-13 2V16zM12 36l13 2V16l-13-2z"/></clipPath></defs><g><g><g><g><path fill="#1f252f" d="M50 25c0 13.807-11.193 25-25 25S0 38.807 0 25 11.193 0 25 0s25 11.193 25 25z"/><path fill="none" stroke="#f6ac6d" stroke-miterlimit="20" stroke-width="6" d="M50 25c0 13.807-11.193 25-25 25S0 38.807 0 25 11.193 0 25 0s25 11.193 25 25z" clip-path="url(&quot;#zkwua&quot;)"/></g></g><g><path fill="#1f252f" d="M38 14v22l-13 2V16zM12 36l13 2V16l-13-2z"/><path fill="none" stroke="#fff" stroke-miterlimit="20" stroke-width="6" d="M38 14v22l-13 2V16zM12 36l13 2V16l-13-2z" clip-path="url(&quot;#zkwub&quot;)"/></g></g></g></svg>