<?xml version="1.0" encoding="UTF-8" ?>
<!DOCTYPE svg PUBLIC "-//W3C//DTD SVG 1.1//EN" "http://www.w3.org/Graphics/SVG/1.1/DTD/svg11.dtd">
<svg width="1324pt" height="126pt" viewBox="0 0 1324 126" version="1.1" xmlns="http://www.w3.org/2000/svg">
<g id="#ffffffff">
<path fill="#ffffff" opacity="1.00" d=" M 0.00 0.00 L 98.69 0.00 C 110.51 0.50 122.55 1.85 133.56 6.40 C 142.88 10.74 151.47 17.83 155.49 27.50 C 158.75 34.91 158.62 43.25 157.80 51.14 C 156.61 61.83 150.91 72.09 141.96 78.19 C 131.24 85.72 117.97 88.68 105.06 89.23 C 83.54 89.29 62.01 89.23 40.48 89.26 C 40.49 101.25 40.49 113.25 40.48 125.25 C 26.99 125.25 13.49 125.25 0.00 125.25 L 0.00 0.00 M 40.49 63.50 C 57.68 63.51 74.87 63.48 92.06 63.51 C 97.59 63.62 103.23 62.65 108.23 60.22 C 112.89 57.54 116.22 52.53 116.57 47.12 C 117.15 41.73 116.59 35.50 112.40 31.57 C 107.21 27.47 100.37 26.57 93.95 26.50 C 76.13 26.50 58.31 26.50 40.49 26.50 C 40.48 38.83 40.48 51.17 40.49 63.50 Z" />
<path fill="#ffffff" opacity="1.00" d=" M 177.50 0.00 L 278.47 0.00 C 288.62 0.60 298.86 1.85 308.42 5.49 C 316.57 8.50 324.05 13.62 329.25 20.64 C 336.07 30.08 337.97 42.94 334.07 53.91 C 329.96 64.68 319.04 70.78 308.70 74.39 C 314.46 77.23 319.53 81.63 322.29 87.51 C 328.39 99.93 331.65 113.87 340.19 125.02 C 326.09 124.96 311.99 125.04 297.90 124.98 C 295.97 125.15 295.28 122.85 294.28 121.62 C 289.21 112.48 286.21 102.38 282.05 92.83 C 280.28 89.16 277.45 85.91 273.83 83.98 C 268.87 81.71 263.33 81.12 257.95 80.78 C 244.63 80.71 231.32 80.77 218.00 80.75 C 218.00 95.50 218.00 110.25 218.00 125.00 C 204.50 124.99 190.99 125.01 177.49 124.99 C 177.51 83.33 177.49 41.66 177.50 0.00 M 218.00 26.00 C 218.00 36.33 218.00 46.67 218.00 57.00 C 235.32 57.00 252.63 57.00 269.95 57.00 C 276.16 56.96 282.65 56.34 288.05 52.98 C 297.12 48.26 296.31 32.79 287.04 28.73 C 281.77 26.13 275.76 26.22 270.03 26.01 C 252.68 25.99 235.34 26.00 218.00 26.00 Z" />
<path fill="#ffffff" opacity="1.00" d=" M 363.31 0.00 L 502.01 0.00 C 502.01 8.67 502.01 17.33 502.01 26.00 C 469.10 26.01 436.19 25.99 403.28 26.01 C 403.29 33.67 403.28 41.33 403.28 48.99 C 433.41 49.01 463.53 48.99 493.66 49.01 C 493.65 57.76 493.67 66.51 493.65 75.25 C 463.44 75.24 433.23 75.26 403.02 75.25 C 403.01 83.25 403.02 91.25 403.02 99.25 C 436.19 99.25 469.36 99.24 502.54 99.25 C 502.48 108.17 502.65 117.09 502.44 126.00 L 363.49 126.00 C 363.20 122.67 363.32 119.33 363.31 116.00 C 363.32 77.33 363.31 38.67 363.31 0.00 Z" />
<path fill="#ffffff" opacity="1.00" d=" M 527.60 0.00 L 582.66 0.00 C 597.84 26.54 612.88 53.17 627.99 79.76 C 643.15 53.18 658.18 26.54 673.40 0.00 L 728.72 0.00 C 728.65 42.00 728.87 84.00 728.61 126.00 L 692.52 126.00 C 692.27 93.75 692.48 61.50 692.41 29.25 C 677.26 55.25 662.12 81.26 646.95 107.25 C 634.33 107.25 621.71 107.24 609.09 107.26 C 593.94 81.25 578.79 55.25 563.64 29.25 C 563.58 61.50 563.79 93.75 563.54 126.00 L 527.67 126.00 C 527.50 84.00 527.64 42.00 527.60 0.00 Z" />
<path fill="#ffffff" opacity="1.00" d=" M 761.64 0.00 L 802.13 0.00 C 802.12 31.32 802.12 62.64 802.13 93.95 C 801.91 104.63 802.56 115.35 801.78 126.00 L 761.70 126.00 C 761.55 84.00 761.68 42.00 761.64 0.00 Z" />
<path fill="#ffffff" opacity="1.00" d=" M 834.80 0.00 L 973.49 0.00 C 973.49 8.67 973.49 17.33 973.49 26.00 C 940.58 26.00 907.67 26.00 874.77 26.00 C 874.76 33.67 874.76 41.33 874.77 49.00 C 904.97 49.00 935.18 49.00 965.40 49.00 C 965.39 57.75 965.40 66.50 965.39 75.25 C 935.18 75.25 904.98 75.26 874.77 75.25 C 874.76 83.25 874.76 91.24 874.77 99.24 C 907.93 99.25 941.10 99.25 974.27 99.24 C 974.27 108.16 974.31 117.08 974.24 126.00 L 835.63 126.00 C 834.24 124.71 834.97 122.63 834.77 120.97 C 834.83 80.65 834.78 40.32 834.80 0.00 Z" />
<path fill="#ffffff" opacity="1.00" d=" M 998.75 0.00 L 1099.53 0.00 C 1111.42 0.69 1123.56 2.36 1134.41 7.55 C 1144.89 12.61 1153.87 21.90 1156.24 33.57 C 1157.67 41.78 1157.65 50.87 1153.15 58.19 C 1147.99 66.45 1138.88 71.22 1129.95 74.37 C 1133.58 76.49 1137.33 78.68 1139.98 82.04 C 1144.10 87.20 1146.24 93.53 1148.64 99.60 C 1152.10 108.41 1155.59 117.41 1161.37 125.02 C 1146.90 124.99 1132.43 124.98 1117.97 125.02 C 1110.20 114.94 1108.19 101.90 1102.24 90.88 C 1097.70 82.62 1087.54 81.18 1079.04 80.77 C 1065.78 80.72 1052.51 80.76 1039.25 80.76 C 1039.25 95.50 1039.25 110.25 1039.25 125.00 C 1025.75 125.00 1012.25 125.00 998.75 125.00 C 998.75 83.33 998.75 41.67 998.75 0.00 M 1039.00 26.00 C 1039.00 36.33 1039.00 46.67 1039.00 57.00 C 1053.35 57.00 1067.70 57.00 1082.05 57.00 C 1091.31 56.91 1101.42 57.90 1109.62 52.66 C 1116.91 48.63 1117.26 37.65 1112.28 31.68 C 1107.00 26.34 1098.94 26.24 1091.94 26.02 C 1074.29 25.97 1056.65 26.01 1039.00 26.00 Z" />
<path fill="#ffffff" opacity="1.00" d=" M 1184.52 0.00 L 1323.22 0.00 C 1323.21 8.67 1323.21 17.33 1323.22 26.00 C 1290.30 26.03 1257.38 25.95 1224.46 26.03 C 1224.51 33.69 1224.46 41.35 1224.49 49.00 C 1254.70 49.00 1284.91 49.00 1315.12 49.00 C 1315.11 57.75 1315.13 66.50 1315.11 75.25 C 1284.90 75.26 1254.69 75.24 1224.48 75.25 C 1224.49 83.25 1224.46 91.25 1224.49 99.25 C 1257.66 99.24 1290.83 99.25 1324.00 99.25 L 1324.00 126.00 L 1184.61 126.00 C 1184.40 84.00 1184.57 42.00 1184.52 0.00 Z" />
</g>
</svg>
