<?xml version="1.0" encoding="UTF-8" ?>
<!DOCTYPE svg PUBLIC "-//W3C//DTD SVG 1.1//EN" "http://www.w3.org/Graphics/SVG/1.1/DTD/svg11.dtd">
<svg width="512pt" height="512pt" viewBox="0 0 512 512" version="1.1" xmlns="http://www.w3.org/2000/svg">
<g id="#b2b2b2b2">
<path fill="#b2b2b2" opacity="0.70" d=" M 250.49 0.00 L 261.56 0.00 C 301.84 0.93 341.92 11.31 377.36 30.53 C 423.99 55.59 462.53 95.48 485.79 143.06 C 502.34 176.35 511.11 213.36 512.00 250.50 L 512.00 261.58 C 511.06 301.62 500.81 341.47 481.80 376.75 C 463.92 410.17 438.51 439.51 408.01 462.02 C 365.92 493.33 313.96 510.92 261.52 512.00 L 250.46 512.00 C 206.23 511.01 162.28 498.52 124.38 475.64 C 76.24 446.85 38.03 401.84 17.63 349.57 C 6.57 321.56 0.74 291.57 0.00 261.48 L 0.00 250.44 C 1.07 202.10 15.93 154.06 43.02 113.96 C 65.50 80.06 96.33 51.78 131.88 32.03 C 168.02 11.87 209.14 0.92 250.49 0.00 M 199.91 157.94 C 197.79 160.18 195.06 162.45 195.01 165.80 C 198.53 167.08 202.39 167.40 205.71 169.24 C 211.56 172.38 215.29 178.55 216.02 185.07 C 218.07 201.57 218.20 218.33 216.37 234.85 C 215.33 240.68 214.42 247.59 209.24 251.31 C 204.99 253.96 200.13 250.82 196.97 247.90 C 191.64 242.87 187.35 236.85 183.24 230.82 C 170.87 212.63 160.78 192.96 152.59 172.56 C 151.29 169.36 149.85 166.05 147.18 163.74 C 144.36 161.43 140.70 160.30 137.06 160.38 C 119.70 160.43 102.32 159.71 84.96 160.45 C 81.78 160.61 78.13 161.33 76.36 164.29 C 74.52 167.88 76.08 171.98 77.52 175.43 C 97.33 218.24 119.15 260.49 147.70 298.22 C 165.63 321.74 189.45 341.81 217.94 350.92 C 235.04 356.44 253.24 357.80 271.10 356.73 C 274.98 356.41 279.21 355.95 282.30 353.34 C 286.10 350.10 286.54 344.69 286.75 340.03 C 286.82 333.07 287.81 326.05 290.49 319.59 C 291.87 315.83 294.27 312.18 298.02 310.46 C 301.60 308.70 305.81 309.93 309.02 311.92 C 316.53 317.00 321.88 324.45 327.98 331.01 C 336.63 340.48 345.07 351.29 357.62 355.67 C 365.09 358.57 373.18 357.30 380.98 357.50 C 395.96 357.44 410.95 357.61 425.92 357.42 C 432.03 357.00 435.63 350.61 435.39 344.98 C 435.22 338.34 431.01 332.78 427.50 327.46 C 415.77 310.47 399.51 297.48 385.08 282.95 C 381.44 279.05 377.31 274.69 377.12 269.04 C 377.19 262.72 381.21 257.43 384.59 252.41 C 395.46 237.08 406.89 222.15 418.01 207.00 C 425.69 196.42 432.79 185.02 435.82 172.17 C 436.55 169.44 435.95 166.25 433.78 164.33 C 430.75 161.98 426.83 160.95 423.04 161.10 C 402.43 161.20 381.81 161.01 361.20 161.20 C 355.89 161.32 351.96 165.60 350.23 170.28 C 338.80 196.95 326.37 223.97 306.45 245.50 C 303.89 248.00 301.60 251.14 298.10 252.37 C 294.17 253.39 290.67 250.49 288.81 247.30 C 286.57 243.25 285.37 238.61 285.48 233.98 C 285.52 213.00 285.48 192.01 285.51 171.03 C 285.37 166.75 284.77 162.25 282.46 158.55 C 279.92 154.95 275.33 153.11 271.01 153.23 C 251.66 153.26 232.32 153.25 212.97 153.24 C 208.26 153.21 203.27 154.43 199.91 157.94 Z" />
</g>
</svg>
