<?xml version="1.0" encoding="UTF-8" ?>
<!DOCTYPE svg PUBLIC "-//W3C//DTD SVG 1.1//EN" "http://www.w3.org/Graphics/SVG/1.1/DTD/svg11.dtd">
<svg width="512pt" height="158pt" viewBox="0 0 512 158" version="1.1" xmlns="http://www.w3.org/2000/svg">
<g id="#ffffffff">
<path fill="#ffffff" opacity="1.00" d=" M 41.38 0.00 L 43.68 0.00 C 46.49 0.43 49.22 1.65 51.02 3.92 C 55.64 8.89 53.92 17.89 47.84 20.88 C 42.15 24.18 34.23 21.03 32.15 14.86 C 29.52 8.37 34.49 0.65 41.38 0.00 Z" />
<path fill="#ffffff" opacity="1.00" d=" M 4.60 15.55 C 8.93 12.84 15.32 14.59 17.56 19.20 C 26.01 35.12 34.22 51.16 42.71 67.06 C 50.95 51.17 59.26 35.32 67.52 19.45 C 69.39 15.72 73.80 13.45 77.91 14.52 C 82.92 15.46 86.29 21.11 84.91 25.96 C 83.83 29.27 81.81 32.15 80.27 35.24 C 71.42 52.42 62.41 69.51 53.50 86.66 C 51.69 89.45 52.32 92.84 52.24 95.97 C 52.25 113.31 52.25 130.65 52.24 147.99 C 52.45 153.00 47.94 157.49 42.98 157.53 C 37.77 157.91 32.67 153.38 33.01 148.04 C 32.98 128.99 33.01 109.94 33.01 90.89 C 33.23 88.70 31.82 86.92 30.89 85.07 C 21.20 66.48 11.49 47.89 1.78 29.30 C 1.01 27.83 0.35 26.29 0.00 24.66 L 0.00 22.50 C 0.62 19.73 1.89 16.82 4.60 15.55 Z" />
<path fill="#ffffff" opacity="1.00" d=" M 241.21 23.17 C 246.70 20.52 253.83 24.83 253.83 30.97 C 253.94 57.34 253.84 83.72 253.87 110.09 C 254.14 113.91 251.97 117.87 248.27 119.18 C 243.21 121.56 236.26 117.87 236.05 112.12 C 235.93 85.38 236.04 58.64 235.99 31.90 C 235.72 28.27 237.83 24.60 241.21 23.17 Z" />
<path fill="#ffffff" opacity="1.00" d=" M 320.88 32.01 C 320.54 27.36 324.19 22.58 329.02 22.51 C 334.30 21.85 339.22 26.73 338.75 31.99 C 338.72 70.99 338.79 109.99 338.72 148.98 C 338.75 155.16 331.59 159.32 326.08 156.94 C 323.51 155.89 321.95 153.44 321.14 150.90 C 311.23 157.61 298.32 159.27 286.93 155.81 C 270.61 151.13 258.59 134.99 258.75 118.02 C 258.77 111.35 258.71 104.67 258.77 98.00 C 259.13 85.17 266.29 72.87 277.10 66.02 C 290.06 57.49 307.96 57.72 320.88 66.23 C 320.87 54.82 320.87 43.41 320.88 32.01 M 291.45 78.74 C 285.02 80.83 279.78 86.11 277.63 92.51 C 275.84 97.48 276.68 102.83 276.50 107.99 C 276.73 113.75 275.72 119.75 277.80 125.28 C 280.85 133.93 289.74 140.11 298.96 139.65 C 309.85 139.91 319.88 130.89 320.77 120.03 C 321.01 113.36 320.80 106.68 320.88 100.00 C 321.11 92.30 316.92 84.63 310.22 80.77 C 304.66 77.38 297.61 76.74 291.45 78.74 Z" />
<path fill="#ffffff" opacity="1.00" d=" M 170.51 59.67 C 178.73 58.49 187.56 59.65 194.40 64.63 C 198.59 67.76 202.60 71.87 204.06 76.99 C 205.12 84.26 196.06 89.08 189.99 85.98 C 186.09 84.71 185.21 80.01 181.58 78.39 C 175.74 75.10 166.69 77.94 165.11 84.85 C 163.46 91.17 169.85 97.11 175.96 96.74 C 189.56 96.39 203.05 105.25 207.64 118.13 C 211.21 128.22 208.02 140.02 200.54 147.50 C 187.40 160.40 164.20 161.07 150.76 148.30 C 147.51 144.86 143.87 140.93 143.47 135.99 C 143.65 129.30 151.99 125.24 157.71 128.21 C 162.09 129.76 162.83 135.04 166.55 137.39 C 173.44 141.96 184.24 139.80 188.11 132.24 C 190.97 126.84 188.47 119.61 183.09 116.87 C 178.24 113.64 172.18 115.31 166.87 113.66 C 157.56 111.16 149.30 104.12 146.08 94.95 C 142.97 86.08 145.70 75.84 151.96 69.02 C 156.85 63.92 163.53 60.66 170.51 59.67 Z" />
<path fill="#ffffff" opacity="1.00" d=" M 82.18 65.21 C 90.37 60.44 100.26 59.34 109.52 60.76 C 125.22 63.33 138.38 76.55 141.37 92.10 C 142.65 97.78 142.56 104.23 139.28 109.26 C 136.41 114.70 130.17 117.93 124.10 117.74 C 109.28 117.77 94.47 117.73 79.66 117.76 C 79.83 124.57 83.05 131.31 88.63 135.31 C 97.18 141.66 110.74 141.18 117.99 133.02 C 120.13 130.83 121.67 127.59 124.97 126.98 C 131.54 125.31 138.40 132.44 135.62 138.94 C 130.72 148.15 121.22 154.47 111.15 156.73 C 102.72 158.31 93.72 157.70 85.83 154.19 C 74.53 149.31 65.84 138.86 63.06 126.87 C 61.50 120.69 62.12 114.27 62.00 107.96 C 62.08 101.46 61.48 94.77 63.55 88.49 C 66.35 78.65 73.43 70.35 82.18 65.21 M 90.77 80.84 C 83.96 84.52 79.70 92.17 79.69 99.86 C 94.49 99.88 109.29 99.87 124.09 99.87 C 124.10 92.39 120.08 85.23 113.78 81.25 C 106.95 76.95 97.76 76.85 90.77 80.84 Z" />
<path fill="#ffffff" opacity="1.00" d=" M 358.70 67.66 C 373.69 56.58 396.72 57.53 409.99 70.96 C 417.94 78.39 422.54 89.17 422.39 100.04 C 422.38 108.74 415.39 117.27 406.43 117.66 C 390.97 117.90 375.49 117.63 360.03 117.79 C 360.23 125.51 364.47 132.94 371.22 136.76 C 379.87 141.63 391.97 140.33 398.67 132.74 C 400.58 130.24 402.45 127.13 405.94 126.86 C 412.69 125.63 418.99 133.39 415.60 139.61 C 409.97 149.03 399.83 155.63 388.94 157.04 C 381.50 157.95 373.77 157.30 366.82 154.37 C 353.46 148.92 343.69 135.74 342.49 121.34 C 342.21 114.21 342.46 107.07 342.37 99.93 C 342.17 87.39 348.50 74.97 358.70 67.66 M 368.03 83.12 C 363.08 87.18 360.44 93.53 360.18 99.85 C 375.01 99.92 389.85 99.84 404.69 99.89 C 404.55 92.02 400.18 84.31 393.17 80.60 C 385.34 76.21 374.87 77.36 368.03 83.12 Z" />
<path fill="#ffffff" opacity="1.00" d=" M 456.80 60.83 C 467.58 58.23 479.38 60.22 488.61 66.41 C 489.53 62.14 493.68 59.09 498.05 59.76 C 502.66 60.06 506.52 64.27 506.35 68.91 C 506.40 95.27 506.37 121.63 506.36 147.99 C 506.78 153.09 502.14 157.88 497.02 157.53 C 492.92 157.87 489.61 154.57 488.59 150.84 C 473.61 161.35 451.59 159.23 438.53 146.56 C 430.37 138.73 425.80 127.37 426.24 116.07 C 426.64 106.45 425.05 96.52 428.19 87.21 C 432.36 74.29 443.52 63.83 456.80 60.83 M 459.43 78.57 C 450.67 81.18 444.13 89.80 444.13 98.96 C 444.10 105.30 444.13 111.64 444.11 117.99 C 444.05 125.91 448.81 133.67 455.90 137.21 C 460.81 139.77 466.69 140.31 472.03 138.92 C 481.05 136.76 488.04 128.19 488.46 118.93 C 488.57 112.62 488.46 106.30 488.51 99.99 C 488.65 91.93 484.07 83.82 476.80 80.21 C 471.55 77.32 465.13 76.87 459.43 78.57 Z" />
<path fill="#ffffff" opacity="1.00" d=" M 242.53 135.61 C 248.98 133.94 255.94 139.33 256.02 145.96 C 256.55 152.42 250.40 158.24 243.99 157.49 C 237.49 157.14 232.33 150.14 234.17 143.82 C 235.17 139.81 238.42 136.41 242.53 135.61 Z" />
</g>
</svg>
