<svg width="100" height="50" fill="#fbd13d" viewBox="0 0 1268 172" xmlns="http://www.w3.org/2000/svg" xmlns:xlink="http://www.w3.org/1999/xlink">
<path d="M92.94 0h2.82c2.53 8.4.7 17.34 1.24 25.97-.43 4.85 1.19 10.31-1.23 14.75-3.54.86-7.25.63-10.87.55-1.72-.14-4.38-.04-4.64-2.32-.66-5.96-.08-11.97-.3-17.95.13-2.83-.4-5.86.59-8.56C84.22 7.88 88.61 3.93 92.94 0zm662.88 3.67c1.33-1.45 3.42-1.08 5.19-1.2 5.99.09 11.99-.1 17.99.09 1.44-.01 3.54.59 3.4 2.44.22 3.71.3 7.46-.1 11.16-.39 1.97-2.71 1.84-4.24 1.85-10.52.02-21.05-.06-31.57.03-.63-1.46-1.94-3.45-.29-4.72 3.05-3.36 6.27-6.59 9.62-9.65zm-595.43 7.79c-1.73-1.73-.73-4.77 1.65-5.19 4.29-.52 8.68-.43 12.98-.08 2.26.19 3.61 2.2 4.87 3.84 5.84 8.25 11.74 16.46 17.59 24.71.1-8.27-.1-16.55.06-24.82-.26-1.97 1.32-3.91 3.36-3.8 3.92-.2 7.93-.45 11.82.22 1.99.55 2.3 2.86 2.28 4.61.06 7.8-.04 15.61 0 23.41 5.73-8.02 11.48-16.04 17.22-24.06 1.44-1.88 3.07-4.25 5.73-4.21 4.26-.13 8.61-.46 12.82.32 2.42.61 2.49 3.86 1.01 5.46-9.19 12.97-18.56 25.82-27.75 38.8 9.65 13.48 19.38 26.91 29.04 40.38 1.63 1.8 1.29 4.97-1.24 5.73-4.28.47-8.62.28-12.92.16-2.69.08-4.15-2.53-5.61-4.35-6.06-8.59-12.22-17.1-18.28-25.68-.08 8.4.05 16.81-.03 25.21.15 1.83-.87 3.4-1.73 4.91-4.44-.12-8.89.21-13.31-.2-1.75-.26-2.53-2.21-2.42-3.8-.13-8.75.04-17.51-.05-26.27-6.26 8.68-12.5 17.38-18.69 26.11-1.44 1.83-3.03 4.28-5.69 4.09-4.29.07-8.62.31-12.89-.21-2.15-.98-2.59-3.78-1.1-5.52 9.67-13.57 19.51-27.03 29.2-40.59-9.32-13.05-18.66-26.09-27.92-39.18zM64.47 28.42c1.48-1.05 4.09-.4 4.34 1.62.34 3.18.52 6.5-.18 9.64-.76 1.82-3.04 1.39-4.62 1.62-3.03-.04-7.86.88-8.48-3.29 2.16-3.83 5.67-6.73 8.94-9.59zm386.03.38c9.62-1.93 20.15-.24 28.26 5.44 5.33 3.68 9.52 9.36 10.64 15.82.68 2.12-1.24 4.24-3.37 4.11-3.85.05-7.88.6-11.61-.41-2.92-2.85-4.79-6.93-8.71-8.64-6.31-2.54-14.39-1.74-19.27 3.3-3.9 4.16-4.36 10.19-4.24 15.6-.11 5.03.78 10.55 4.45 14.29 4.62 4.78 12.13 5.41 18.21 3.5 4.55-1.47 6.5-6.2 9.85-9.16 3.71-.78 7.59-.46 11.37-.29 2.33-.12 4.06 2.41 3.26 4.57-1.44 7.38-6.86 13.52-13.3 17.12-12.5 6.65-29.59 6.06-40.28-3.83-6.76-6.06-10.39-15.12-10.52-24.12-.26-6.68.24-13.58 3.18-19.69 4-8.96 12.52-15.57 22.08-17.61zm141.28 6.64c5.83-5.73 14.32-8.24 22.37-7.22 9.94.95 18.65 7.98 22.62 17 3.58 7.41 3.51 15.85 3.11 23.88-.66 10.03-5.78 20.01-14.47 25.35-10.49 6.39-25.05 4.96-33.96-3.56.08 8.38.06 16.75.05 25.13-.02 2.09-.14 5.01-2.67 5.55-3.9.38-7.86.35-11.76.02-2.26-.07-2.58-2.86-2.57-4.61-.03-27.32.03-54.65-.03-81.97-.06-1.85.11-3.89 1.67-5.16 4.22-.63 8.58-.54 12.83-.11 2.51.62 2.21 3.74 2.81 5.7m11.43 8.75c-6.38 1.11-11.01 6.94-11.67 13.23-.63 6.41-.96 13.58 2.93 19.12 5.71 8.48 20.29 8.34 25.74-.34 2.79-4.54 3.24-10.07 3.05-15.27-.22-4.73-1.57-9.73-5.12-13.08-3.9-3.74-9.77-4.71-14.93-3.66zm74.34-15.45c9.57-1.95 19.96.07 27.87 5.87 7.16 5.13 11.4 13.68 12.02 22.38.66 8.39.56 17.34-3.46 24.96-4.38 8.66-13.35 14.53-22.85 15.92-8.85 1.34-18.42.05-25.88-5.14-8.75-5.77-13.71-16.37-13.28-26.75-.32-7.75.14-15.89 4.33-22.67 4.46-7.71 12.61-12.84 21.25-14.57m1.77 15.75c-6.18 1.28-10.19 7.24-10.24 13.35-.04 7.04-1.35 15.46 4.1 20.97 6.14 5.2 15.95 5.27 22.43.65 4.61-3.66 5.13-10.06 5.18-15.51-.03-5.39-.14-11.52-3.97-15.76-4.52-4.43-11.59-5.22-17.5-3.7zm384.77-6.42c9.34-10.54 25.93-12.99 38.2-6.32 11.3 5.81 17.38 18.88 16.77 31.28-.11 2.6.65 7.17-3.11 7.36-14.75.3-29.52-.01-44.27.14.73 2.84 1.37 5.98 3.72 7.99 6.25 5.54 16.29 5.6 23.13 1.11 3.32-2.48 7.66-1.47 11.51-1.68 2.3.15 5.77-.47 6.71 2.36.43 3.05-1.74 5.6-3.55 7.79-6.32 6.99-15.93 10.27-25.19 10.25-7.92.32-16.03-2.19-21.99-7.5-5.83-5.23-9.19-12.76-10.3-20.43-1.68-11.26.61-23.67 8.37-32.35m12.32 9.39c-2.44 2.15-3.56 5.29-4.71 8.23 10.01.11 20.03.08 30.05.02-1.05-4.13-2.78-8.71-7.04-10.46-5.86-2.41-13.39-2.13-18.3 2.21zm80.08-18.94c8.82-1.36 18.33.06 25.87 5.06 5.81 3.63 10.51 9.55 11.65 16.42.37 1.6-.39 3.48-2.05 3.94-3.31.58-6.7.37-10.03.31-4.79.31-5.95-5.49-9.38-7.75-7.74-5.51-21.11-2.87-24.36 6.69-2.07 6.58-2.11 13.99.1 20.54 3.38 9.03 15.59 11.4 23.4 6.98 4.2-2.35 5.47-9.42 11.26-8.5 3.57.4 8.36-1.26 10.96 1.96.55 3.56-1.07 6.99-2.78 10-4.16 6.9-11.56 11.46-19.3 13.25-8.68 1.75-18.23 1.35-26.01-3.23-8.96-5.11-14.96-14.86-15.73-25.12-.7-7.97-.32-16.41 3.45-23.65 4.34-8.89 13.2-15.32 22.95-16.9zm-890.5 2.7c1.59-2.23 4.58-1.62 6.93-1.78 2.61.1 5.33-.28 7.85.54 1.84.96 1.65 3.22 1.75 4.98-.01 11.56-.03 23.12-.02 34.68 10.1-12.33 20.16-24.69 30.21-37.06 1.16-1.24 2.33-2.97 4.21-3 3.65-.18 7.33-.3 10.97.12 2.52.39 2.65 3.27 2.63 5.28-.02 18.68-.04 37.36.01 56.05-.05 1.99.11 4.42-1.81 5.66-4.43.56-9.01.55-13.45.01-2.07-1.55-1.71-4.35-1.8-6.62.04-10.92.04-21.83.02-32.75-10.11 12.29-20.21 24.58-30.28 36.91-1.12 1.22-2.27 2.87-4.16 2.7-3.91.13-7.87.34-11.74-.23-1.85-1.3-1.79-3.69-1.83-5.7.01-17.66.05-35.31-.02-52.97.04-2.28-.1-4.61.53-6.82zm90.1 1.72c-.22-2.18 1.87-3.69 3.91-3.41 15.69-.03 31.4-.11 47.09.04 2.53-.19 3.8 2.27 3.63 4.49.1 18.99-.02 38 .05 56.99-.06 1.98.06 4.6-2.05 5.62-4.34.72-8.79.17-13.18.39-.85-1.6-2.01-3.16-1.79-5.08-.02-15.66.01-31.32 0-46.98h-21c-.01 9.68.02 19.36 0 29.04-.04 6.99-2.11 14.49-7.61 19.19-5.24 4.5-12.51 5.38-19.16 5.22-2.03.12-4.13-1.29-4.09-3.46-.25-3.27-.48-6.64.24-9.87 1.6-3.51 6.16-1.79 9.13-2.85 3.62-.81 4.45-4.96 4.66-8.1.28-13.74-.13-27.49.17-41.23zm141.14 7.48c3.37-3.81 6.87-7.63 10.93-10.69 16.26-.56 32.57-.03 48.85-.26 1.95.23 4.79-.49 5.82 1.73.71 3.83.69 7.86.07 11.7-.21 1.83-2.4 2.11-3.85 2.09-6.93.09-13.87-.04-20.8.01-.01 15.68.02 31.35 0 47.03.2 1.89-.88 3.46-1.73 5.04-4.17-.16-8.34.15-12.49-.23-1.82-.16-2.65-2.19-2.51-3.8-.07-16.01 0-32.03-.02-48.04-7.48-.1-14.96.19-22.43-.1-2.01-.05-3.44-3.01-1.84-4.48zm235.34-7.54c.03-4.36 5.52-3.28 8.43-3.45 2.92.07 8.28-.69 8.19 3.64.18 12.2-.01 24.41.06 36.61 10.46-12.69 20.77-25.51 31.21-38.21 2.18-3.03 6.36-1.71 9.55-2.03 2.68-.04 7.38-.35 7.18 3.57.15 19.66.02 39.34.06 59 .21 1.9-.89 3.47-1.73 5.06-4.4-.23-8.84.29-13.2-.36-2.13-1.1-1.81-3.66-1.85-5.65.05-11.33.02-22.67.02-34-10.13 12.33-20.25 24.68-30.36 37.03-1.14 1.12-2.16 2.86-3.95 2.83-3.96.15-7.99.39-11.92-.24-2.09-1.14-1.74-3.69-1.79-5.69.12-19.37-.1-38.74.1-58.11zm82.78.2c-.08-4.1 4.79-3.64 7.63-3.65 2.9.31 6.64-.83 8.79 1.74.56 12.81.05 25.67.24 38.49 10.48-12.74 21-25.45 31.49-38.18 2.12-3.09 6.35-1.7 9.53-2.04 2.54-.01 7.3-.29 6.94 3.48.09 20.72 0 41.45.03 62.17-.67.62-1.33 1.24-1.97 1.86-4.26-.06-8.56.44-12.77-.28-2.19-.95-1.97-3.67-2.04-5.64.04-11.27.02-22.54.03-33.81-10.07 12.25-20.15 24.5-30.16 36.79-1.14 1.15-2.13 2.92-3.94 2.91-3.95.15-7.96.4-11.86-.24-2.24-.94-1.99-3.71-2.07-5.69.13-19.3-.14-38.62.13-57.91zm82.9.86c-.23-1.84.58-4.13 2.73-4.26 3.66-.36 7.37-.33 11.05-.05 1.62.08 3.04 1.65 2.9 3.3.22 7.44-.02 14.88.07 22.32h30.49c.07-7.11-.1-14.21.04-21.32-.05-1.76.52-3.94 2.59-4.24 3.92-.38 7.91-.4 11.84.05 2.46.44 2.5 3.26 2.54 5.22.03 18.35-.04 36.69.03 55.04-.11 2.3.28 5.14-1.82 6.71-3.9.57-7.87.37-11.78.21-2.13.22-3.57-1.93-3.38-3.88-.18-7.42.02-14.86-.06-22.29H915c-.05 7.1.06 14.21 0 21.31.15 1.84-.79 3.44-1.65 4.98-4.37-.15-8.78.27-13.12-.28-2.28-.99-1.98-3.72-2.02-5.74.08-19.03 0-38.05.04-57.08zm82.83-3.84c1.83-.84 3.91-.55 5.88-.64 11.35.13 22.71-.06 34.06.09 7.48.14 15.52 3.53 19.11 10.42 3.38 7.22 2.08 16.73-4.33 21.88 10.57 7.43 9.89 26.07-1.6 32.25-5.51 3.24-12.08 2.99-18.23 2.91-11.01-.1-22.03.13-33.03-.08-1.67.13-2.75-1.34-2.41-2.9-.11-19.67.04-39.35-.07-59.03.06-1.64-.11-3.37.62-4.9m16.17 14.65c-.01 3.42 0 6.83 0 10.25 6.94-.04 13.88.06 20.82 0 2.06-.11 4.56-.14 5.97-1.93 2.17-2.75.74-7.8-3.07-8.01-7.88-.74-15.82-.1-23.72-.31m0 25.5V82c8.36-.28 16.82.66 25.12-.65 4.67-.69 5.34-8.08 1.28-10.03-2.73-1.16-5.76-1.05-8.65-1.09-5.92.02-11.84.03-17.75.02zm204.87-29.72c3.22-4.01 7.21-7.32 10.79-11 17.86-.07 35.72 0 53.59-.03.37.59 1.12 1.78 1.5 2.37V42.6c-.52.82-1.04 1.64-1.55 2.45-7.74-.1-15.47-.04-23.2-.05-.01 15.33.01 30.66.02 45.98-.16 1.98.09 5.12-2.37 5.73-4.18.55-8.49.63-12.63-.07-2.21-.9-1.94-3.66-2.05-5.59.04-15.35.03-30.7.03-46.05-7.42-.15-14.86.31-22.26-.16-2.15.05-3.43-2.79-1.87-4.31zM40.47 52.62c8.41-.79 16.98-.32 25.44-.25 3.56-.05 3.14 4.2 3.15 6.65-.32 3.16.82 6.93-1.27 9.62-4.85 1.23-9.93.39-14.87.61-7.58-.22-15.22.45-22.76-.32-2.85-.38-2.71-4.1-.82-5.57 3.62-3.65 7.01-7.64 11.13-10.74zm39.54-.01c5.6-.57 11.26-.53 16.87-.03-.23 5.43 1.09 11.25-.69 16.44-5.09.41-10.24.43-15.33 0-1.09-1.04-.75-2.65-.89-3.99-.02-4.14.04-8.28.04-12.42zM9.26 83.26c1.61-1.45 3.21-3.46 5.63-3.22 6.72-.16 13.44-.03 20.15-.06 1.82.08 4.56-.09 5.07 2.2.73 4.16.71 8.5 0 12.66-.31 1.8-2.51 2.05-3.98 2.12-6.7.22-13.41-.06-20.11.05-5.34-.08-10.86.57-16.02-1.17v-2.88c2.88-3.43 6.13-6.52 9.26-9.7zm43.07-2.66c12.19-.8 24.44-.11 36.65-.38 2.58.16 5.41-.46 7.8.75.27 5.17.67 10.48-.22 15.6-1.44.6-3.05.38-4.56.47-13.18-.08-26.36-.03-39.54-.04-.31-5.46-.28-10.93-.13-16.4zm1175.73 44.01c1.78-.06 3.61-.1 5.44-.13 1.17 1.58 1.78 4.88 4.45 3.71.84-1.13 1.43-2.44 2.12-3.68 1.8 0 3.61.01 5.44.02-.81 2.33-1.19 5.13-3.35 6.66-2.82 2.06-6.84 2.1-9.9.6-2.77-1.33-3.33-4.58-4.2-7.18zm-354.82 14.11c3.73-2.31 8.51-3.82 12.66-1.62 8.37 4.33 7.97 18.31-.21 22.68-3.73 2.21-8.22 1.59-12.24.75.06 3.66.05 7.31.05 10.97h-6c-.01-11.67 0-23.33 0-35 2.02 0 4.06 0 6.1.02l-.36 2.2m.54 5.49c-.56 3.45-.24 6.96-.24 10.44 2.68.55 5.63 1.59 8.29.32 4.36-2.07 4.99-8.94 1.31-11.94-2.85-2.14-7-1.28-9.36 1.18zm109.4-6.22c4.53-1.68 9.86-3.12 14.4-.69 2.77 1.49 3.63 4.82 3.81 7.73.3 5.23.03 10.48.11 15.72-1.86 0-3.69.01-5.52.01.02-.55.08-1.64.11-2.19-3.25 2.18-7.54 3.52-11.23 1.64-4.82-2.63-4.71-10.72.2-13.2 3.36-1.92 7.34-.79 10.92-.22-.49-1.48-.86-3-1.46-4.43-2.86-2.35-6.78-.54-9.9.22-.5-1.53-.98-3.06-1.44-4.59m6.13 12.47c-2 .49-2.55 3.82-.65 4.8 2.15 1.74 4.76-.01 6.89-.86-.03-.94-.08-2.82-.11-3.76-2.03-.22-4.16-.96-6.13-.18zm64.06-13.98c4.3-1.04 9.22-.36 12.69 2.54 5.68 4.63 5.74 14.46.18 19.22-6.27 5.43-17.97 3.74-21.19-4.34-3.11-6.81.76-15.88 8.32-17.42m1.02 5.93c-5.59 2.42-4.67 12.3 1.59 13.07 4.76 1.2 9.21-3.84 7.82-8.43-.74-4.11-5.71-6.48-9.41-4.64zm85.3-4.38c4.66-1.73 10.3-3.31 14.87-.48 3.4 2.31 3.49 6.82 3.47 10.51-.02 4.23-.05 8.46-.03 12.7-1.89 0-3.75-.01-5.61-.03.09-.53.28-1.59.37-2.12-3.41 2.22-8.01 3.59-11.75 1.35-4.54-2.83-4.12-10.98.91-13.11 3.3-1.69 7.05-.68 10.46.09-.66-1.87-.46-4.73-2.73-5.47-2.85-.77-5.74.41-8.46 1.1-.53-1.51-1.04-3.02-1.5-4.54m5.33 12.98c-1.69 1.25-1.08 4.32 1.04 4.73 2.12.84 4.11-.67 6.04-1.4-.05-.91-.13-2.73-.17-3.64-2.25-.28-5-1.41-6.91.31zm36.23-14.51c1.99 0 3.99 0 6 .01v24.24h-6c-.02-3.08 0-6.16-.01-9.25h-10.73c-.02 3.08-.01 6.16-.01 9.25-2.09 0-4.18 0-6.25.01-.01-8.09 0-16.17 0-24.26h6.25c0 3.09-.01 6.17 0 9.25 3.58 0 7.16 0 10.74.01.01-3.09-.01-6.18.01-9.26zm-334 24.25c0-8.08-.01-16.17 0-24.25h16.25c-.01 2-.01 4 0 6-3.34.01-6.67 0-10 0v18.26c-2.1-.01-4.18-.01-6.25-.01zm46.04-24.26l7.41.03c2.31 5.48 4.82 10.9 6.86 16.49 1.54-5.57 3.51-11.01 5.31-16.5 2.39-.01 4.77-.02 7.17-.02-3.47 8.67-6.89 17.37-10.42 26.02-1.42 3.04-2.77 6.51-5.73 8.38-2.66 1.48-5.61.02-8.22-.77.55-1.53 1.13-3.05 1.73-4.57 1.41.07 2.84.07 4.28-.01 1.23-1.32 2.04-2.95 2.98-4.48-3.81-8.18-7.61-16.37-11.37-24.57zm30.21.01h22.75v24.25H940c-.01-6.08 0-12.16 0-18.25h-10.24c-.01 6.09-.01 12.17-.01 18.25h-6.25c-.01-8.08 0-16.16 0-24.25zm29.75 24.25c0-8.08-.01-16.17 0-24.25 7.58.01 15.16 0 22.75 0v24.26c-2.09-.01-4.18-.01-6.25-.01-.01-6.08-.01-12.16 0-18.25H959.5v18.25h-6.25zm66-24.25h6.25v24.25c-2.09 0-4.18 0-6.25.01-.01-8.09 0-16.17 0-24.26zm15.13.02c2.61-.01 5.21-.03 7.84-.03-3.09 3.86-6.25 7.67-9.37 11.51 3.46 4.25 6.95 8.48 10.37 12.77-2.68-.01-5.35-.02-8.01 0-3.23-4.03-6.38-8.12-9.57-12.18 2.91-4.03 5.85-8.03 8.74-12.07zm41.37-.01c1.85-.01 3.71-.02 5.59-.02 2.76 3.41 5.52 6.82 8.27 10.25 2.6-3.39 5.22-6.77 7.81-10.17 1.76-.04 3.54-.07 5.33-.1.01 8.09 0 16.19 0 24.28-2.01 0-4.01 0-6 .01-.01-4.94 0-9.88-.01-14.82-2.45 3.06-4.85 6.16-7.3 9.21l-7.44-9.09c-.01 4.9 0 9.8 0 14.7-2.1-.01-4.18-.01-6.25-.01-.01-8.08 0-16.16 0-24.24zm34-.01h22.75c0 8.08-.01 16.16.01 24.24-2.1 0-4.18.01-6.26.02-.01-6.09 0-12.17-.01-18.26H1116c-.01 6.09 0 12.17 0 18.26-2.1-.01-4.18-.01-6.25-.01-.01-8.08 0-16.16 0-24.25zm84.49 0h6.26v15.45c3.77-5.15 7.55-10.29 11.31-15.45h6.19v24.26c-2.1-.01-4.18-.01-6.25-.01-.01-5.07-.01-10.15.01-15.22-3.79 5.03-7.51 10.12-11.23 15.2l-6.28.03c-.01-8.08 0-16.17-.01-24.26zm30.76 0h6c0 5.19-.01 10.39 0 15.58 3.8-5.19 7.61-10.36 11.39-15.56 2.03-.01 4.05-.02 6.11-.02v24.26c-2.1-.01-4.18-.01-6.25-.01-.01-5.02-.01-10.05-.01-15.07-3.73 5-7.44 10.01-11.1 15.06-2.05.01-4.1.01-6.14.02-.01-8.08 0-16.17 0-24.26z"/>
</svg>
