<?xml version="1.0" encoding="UTF-8" ?><!DOCTYPE svg PUBLIC "-//W3C//DTD SVG 1.1//EN" "http://www.w3.org/Graphics/SVG/1.1/DTD/svg11.dtd"><svg xmlns="http://www.w3.org/2000/svg" xmlns:xlink="http://www.w3.org/1999/xlink"><symbol viewBox="0 0 512 571" id="3d-box" xmlns="http://www.w3.org/2000/svg"><path d="M9.86 129.56C94.56 88.52 179.24 47.47 263.87 6.3c79.42 41.32 158.89 82.52 238.26 123.92-.05 95.47.06 190.93-.06 286.4-79.39 46.26-158.7 92.69-237.98 139.15C179.3 509.62 94.58 463.32 9.87 417.02c0-95.82.02-191.64-.01-287.46m87.47 23.35c55.26 30.05 110.42 60.3 165.66 90.39 51.53-30.17 103.09-60.31 154.65-90.44-51.45-26.9-103.06-53.48-154.48-80.43-55.32 26.74-110.62 53.54-165.83 80.48m-28.46 51.72c.01 59.13 0 118.27.01 177.4 55.02 29.97 110.07 59.92 164.97 90.1.05-59.16.03-118.32.01-177.48-55.03-29.94-110.01-59.98-164.99-90.02m224.12 89.54c.04 58.74-.03 117.48.04 176.21 49.99-29.41 100.21-58.46 150.14-87.96-.12-58.68.01-117.35-.06-176.03-50.05 29.25-100.08 58.53-150.12 87.78z"/></symbol><symbol viewBox="0 0 512 512" id="architecture" xmlns="http://www.w3.org/2000/svg"><path d="M0 0h512v30c-15.07.04-30.15-.08-45.22.05-.23 9.63-.27 19.27.02 28.9 7.12.29 14.42 1.1 20.84 4.43 13.21 6.35 22.56 19.67 24.36 34.19v40.87c-1.31 10.44-6.11 20.51-13.98 27.57-8.26 7.75-19.69 11.93-31 11.41-12.65-.41-24.97-6.71-32.68-16.75-5.85-7.54-9.2-17.06-9.09-26.62.04-6.73 0-13.45.02-20.18 9.94-.46 19.92-.27 29.88-.09.38 7.05-.11 14.12.19 21.16.27 6.51 6.05 12.36 12.63 12.38 7.37.63 14.24-5.88 14.11-13.25.13-10.71.12-21.43 0-32.14.06-7.35-6.8-13.39-14.03-13.03-23.29-.02-46.6-.18-69.89.08-.06 141.01.02 282.01-.04 423.02h-284c.05-89.33.01-178.67.02-268-.08-51.61.17-103.23-.12-154.84-23.03-.07-46.05.02-69.07-.05-3.49-.04-7.18.62-9.91 2.95-3.54 2.82-5.05 7.47-4.91 11.88-.01 9.37.02 18.74-.01 28.11-.09 3.98.8 8.24 3.71 11.14 4.26 4.7 12.04 5.53 17.23 1.91 3.34-2.26 5.71-6 5.92-10.07.46-7.06-.02-14.14.18-21.2 9.89-.33 19.79-.32 29.68-.01-.12 8.81.45 17.66-.4 26.45-1.78 13.66-10.73 26.11-23.02 32.3-12.45 6.74-28.26 6.42-40.64-.33-12.61-6.65-20.92-19.81-22.78-33.8V97.59c1.91-12.96 9.21-25.15 20.48-32.06 7.28-4.9 16.13-6.51 24.76-6.78.37-9.56.29-19.14.04-28.71-15.09-.11-30.19 0-45.28-.04V0m75.7 30.03c-.2 9.6-.32 19.23.06 28.82 120.16.01 240.32.01 360.48 0 .38-9.59.26-19.22.06-28.82-120.2-.05-240.4-.05-360.6 0m68.34 58.9c-.07 10.38-.08 20.76 0 31.14 74.64.12 149.28.12 223.92 0 .07-10.38.07-20.76 0-31.14-74.64-.13-149.28-.12-223.92 0m.03 61.2c-.15 110.61-.06 221.23-.04 331.84 10.91 0 21.83.16 32.74-.09-.1-110.56-.04-221.11-.03-331.66-10.89-.18-21.78-.03-32.67-.09m62.8.02c-.36 26.61-.05 53.24-.15 79.85.07 83.99-.15 167.98.11 251.96 11.41.07 22.82.07 34.24 0 .18-24.98.02-49.97.07-74.96-.08-85.62.17-171.24-.12-256.85-11.38-.02-22.76-.02-34.15 0m64.1 0c-.27 43.95-.04 87.9-.11 131.85.05 66.65-.1 133.31.07 199.96 11.01.07 22.03.06 33.04.01.03-110.61.1-221.23-.04-331.84-10.99.02-21.97-.02-32.96.02m63.1-.02c-.15 110.61-.06 221.23-.04 331.84 11.31.05 22.63.05 33.94 0 .02-110.61.1-221.23-.04-331.84-11.29 0-22.57.02-33.86 0z"/></symbol><symbol viewBox="0 0 495 476" id="arrow-back" xmlns="http://www.w3.org/2000/svg"><path d="M218.37 0h1.1c1.46 2.32 3.53 4.19 5.69 5.86 11.29 10.5 22.78 20.79 34.07 31.31-53.1 57.73-106 115.65-159.07 173.42 131.61.08 263.23.01 394.84.03v54.75c-131.63.01-263.27-.01-394.9.01 45.76 49.74 91.34 99.64 137.05 149.43 7.24 8.07 14.8 15.86 21.88 24.08-12.85 12.42-26.57 24.01-39.33 36.5l-.06.61h-1.17c-6.65-8.11-14.1-15.53-21.07-23.37C131.79 381.09 66.23 309.49.59 237.97c67.28-73.18 134.36-146.56 201.58-219.8 5.32-6.12 11.29-11.71 16.2-18.17z"/></symbol><symbol viewBox="0 0 256 499" id="arrow-bottom" xmlns="http://www.w3.org/2000/svg"><path d="M112.12 0h30.13c-.02 137.21.02 274.42-.02 411.63 17.44-22.9 41.91-40.43 69.33-49.27 14.3-4.79 29.39-7 44.44-7.15v30.14c-25.01.02-49.98 8.48-69.58 24.06-27.14 20.96-43.57 54.8-43.4 89.08-10.3.01-20.6.02-30.9-.01-.11-5.18.28-10.37-.24-15.54-3.05-22.62-13.27-44.2-28.75-60.98-20.98-23.12-51.9-36.73-83.13-36.62v-30.11c13.24.11 26.49 1.84 39.22 5.51 28.62 8.09 54.52 25.46 72.9 48.83.01-136.52.01-273.05 0-409.57z"/></symbol><symbol viewBox="0 0 512 146" id="arrow-horizontal-long" xmlns="http://www.w3.org/2000/svg"><path d="M430.67 0h16.23c.03 15.17 5.46 30.24 15.31 41.8C474.3 56.43 493.05 65.07 512 65.13v15.99c-17.21.16-34.32 7.16-46.33 19.56-11.94 11.87-18.55 28.54-18.79 45.32h-16.22c.11-19.86 7.7-39.56 21.08-54.25 3.41-3.81 7.38-7.07 11.17-10.5-154.31.05-308.61.08-462.91-.02V65c154.31-.06 308.63.12 462.94-.09-4.47-3.8-9.01-7.56-12.72-12.12C437.68 38.27 430.7 19.17 430.67 0z"/></symbol><symbol viewBox="0 0 501 272" id="arrow-horizontal-small" xmlns="http://www.w3.org/2000/svg"><path d="M353.05 0h35.19c.22 24.31 8.09 48.54 22.9 67.89 20.81 27.72 55.04 45.34 89.86 44.53v46.42c-23.7.01-47.34 7.65-66.42 21.75-28.49 20.58-46.5 55.18-46.02 90.43-5.15.8-10.38.32-15.56.42-6.63-.08-13.26.22-19.88-.19-.19-34.33 12.4-68.44 34.48-94.68 5.08-6.34 11.27-11.61 16.79-17.53-31.12-.42-62.26-.06-93.39-.18-103.67.02-207.33-.04-311 .03V123.7c139.69-.13 279.39-.04 419.08-.05-1.2-1.05-2.41-2.08-3.67-3.04a147.744 147.744 0 01-37.07-37.98C361.87 58.43 353.1 29.25 353.05 0z"/></symbol><symbol viewBox="0 0 369 512" id="arrow-small" xmlns="http://www.w3.org/2000/svg"><path d="M163.88 0h40.87c0 129.7 0 259.4-.01 389.1 29.71-39.65 74.14-68.08 122.79-77.76 13.63-2.62 27.58-4.52 41.47-3.85v40.56c-24.69.17-49.44 5.49-71.64 16.41-40.93 19.56-72.85 56.94-85.71 100.45-4.61 15.25-6.74 31.17-6.94 47.09H163.9c-.11-27.13-6.77-54.28-19.84-78.08-14.31-26.44-36.08-48.76-62.09-63.82C57.2 355.71 28.63 348.16 0 348.09v-40.84c14.09-.1 28.18 1.38 41.97 4.27 48.29 9.83 92.28 38.16 121.86 77.5.11-129.67.01-259.35.05-389.02z"/></symbol><symbol viewBox="0 0 263 512" id="arrow-very-long" xmlns="http://www.w3.org/2000/svg"><path d="M117 0h29.25c-.06 141.43.1 282.86-.08 424.29 17.57-23.27 42.06-41.36 69.72-50.7 15.12-5.21 31.12-7.88 47.11-7.86v29.24c-25.89-.03-51.71 8.91-72 25.01-19.77 15.55-34.48 37.54-40.8 61.93-2.69 9.8-3.81 19.95-3.99 30.09h-29.19c.14-27.61-10.01-55.09-28.04-75.99-21.75-25.83-55.2-41.29-88.98-41.04v-29.23c16.68-.05 33.36 2.8 49.07 8.4 26.91 9.5 50.75 27.23 67.93 49.98V0z"/></symbol><symbol viewBox="0 0 523 512" id="building" xmlns="http://www.w3.org/2000/svg"><path d="M255.2 114.25c63.99-37.4 127.89-74.97 191.86-112.42 21.92 18.8 43.85 37.6 65.78 56.39-63.98 37.46-127.93 74.98-191.89 112.48-5.89-5.14-11.89-10.16-17.78-15.31-10.51 6.87-20.99 13.79-31.54 20.6.04 38.62-.11 77.25.07 115.87 19.85 17.96 39.27 36.39 59.02 54.47 15.29 14.37 30.87 28.44 46.09 42.89C259.66 429.15 142.48 469 25.34 508.97c-7.88-7.97-15.5-16.18-23.4-24.12 51.24-100.19 102.58-200.34 153.77-300.56 27.61 25.37 55.05 50.95 82.57 76.43-.06-33.87-.02-67.75-.02-101.62-.28-1.4 1.22-1.93 2.11-2.59 12.18-7.87 24.3-15.81 36.42-23.77-7.27-6.09-14.45-12.27-21.59-18.49m185.88-70.22c-42.89 25.08-85.67 50.37-128.65 75.31 4.2 3.28 7.96 7.57 12.45 10.18 12.07-6.69 23.82-13.94 35.79-20.81 31.6-18.58 63.28-37.03 94.85-55.67-3.95-3.39-8.04-6.62-11.77-10.25-.91.38-1.8.79-2.67 1.24M165.26 238.9c-38.53 75.56-77.3 151-115.86 226.54 87.94-29.86 175.8-59.92 263.74-89.77-20.57-19.17-41.2-38.27-61.86-57.34-28.55 20.79-57.05 41.65-85.6 62.44-6.61-8.95-13.08-18-19.72-26.93 26.75-19.44 53.34-39.1 80.2-58.39-1.63-2.2-3.72-3.99-5.77-5.77-11.04-10.3-22.16-20.52-33.2-30.82-7.41-6.54-14.29-13.72-21.93-19.96z"/></symbol><symbol viewBox="0 0 84 60" id="button-prev" xmlns="http://www.w3.org/2000/svg"><circle cx="30" cy="30" r="29" transform="rotate(-180 30 30)"/><path d="M19 30h65M18 30c7.18 0 13 5.82 13 13M31 17c0 7.18-5.82 13-13 13"/></symbol><symbol viewBox="0 0 512 323" id="camera" xmlns="http://www.w3.org/2000/svg"><path d="M58.24 0h267.64c16.14 1.05 31.84 8.55 42.33 20.93 8.85 10.22 14.08 23.53 14.27 37.07.06 8.6-.02 17.19.03 25.78 34.79-18.69 69.51-37.51 104.34-56.12 10.43-5.15 24.25 2.56 25.15 14.22v239.66c-.47 5.9-4.04 11.42-9.2 14.32-5 2.6-11.18 2.9-16.31.49-34.71-18.66-69.38-37.38-104.09-56.04-.6 14.34 1.8 29.22-3.25 43.02-7.12 21.13-27.04 36.82-49.05 39.67H52.77c-15.86-2.03-30.93-10.37-40.6-23.17C4.74 290.39.61 278.56 0 266.6V56.46C.8 40 8.85 24.09 21.67 13.73 31.88 5.25 44.98.41 58.24 0m1 35.31c-12.03.18-23.12 10.47-23.35 22.66-.03 69.01-.01 138.02-.01 207.03.05 12.18 11 22.87 23.11 23 88.36-.01 176.72.02 265.07-.02 12.28-.48 22.85-11.68 22.53-23.99.08-67.34 0-134.68.04-202.02.02-3.68-.19-7.42-1.5-10.89-3.33-9.47-13.09-16-23.08-15.82-87.6.01-175.21-.09-262.81.05m323.13 88.8c-.02 25.24.07 50.49-.05 75.74 14.23 8.18 28.92 15.57 43.29 23.51 16.92 8.99 33.7 18.21 50.65 27.15-.03-58.96.01-117.91-.02-176.87-31.38 16.66-62.57 33.66-93.87 50.47z"/></symbol><symbol viewBox="0 0 466 463" id="close" xmlns="http://www.w3.org/2000/svg"><path d="M232.54 172.93C290.02 115.58 347.32 58.04 404.86.73 423.92 19.8 443 38.85 462.05 57.94c-57.39 57.38-114.75 114.79-172.17 172.14 58.3 58.72 117 117.05 175.44 175.63-19.09 18.98-38.05 38.09-57.14 57.07-58.52-58.45-116.96-116.99-175.48-175.44-58.29 58.19-116.48 116.47-174.73 174.69-19.15-18.97-38.11-38.12-57.22-57.12 58.04-58.44 116.5-116.5 174.64-174.85C118.33 172.78 60.94 115.81 3.97 58.43 23.09 39.54 42 20.43 61.05 1.45c57.19 57.14 114.33 114.31 171.49 171.48z"/></symbol><symbol viewBox="0 0 50 50" id="entertainment" xmlns="http://www.w3.org/2000/svg"><circle cx="25" cy="25" r="23.5"/><circle cx="14.5" cy="32.5" r="4"/><circle cx="31.5" cy="32.5" r="4"/><path d="M18.5 32V15.5h17V32"/></symbol><symbol viewBox="0 0 477 512" id="environment" xmlns="http://www.w3.org/2000/svg"><path d="M233.51 0h10.01c13.24.29 26.39 1.93 39.48 3.89.03 20.94-.05 41.89.04 62.83 16.18 4.09 31.67 10.72 46.02 19.22 14.59-14.48 28.97-29.17 43.55-43.67 9.06 7.25 18.48 14.08 26.88 22.12 13.68 12.3 25.16 26.77 36.15 41.47-14.5 14.45-28.87 29.04-43.26 43.61 8.48 14.49 15.03 30.12 19.17 46.4 20.48.01 40.95 0 61.43 0 2.09 14.96 4.07 30.01 3.77 45.15.34 15.09-1.74 30.06-3.76 44.98h-61.45c-4.15 16.27-10.63 31.93-19.14 46.39 14.53 14.52 28.84 29.25 43.37 43.76-11.4 15.33-23.45 30.31-37.81 42.98-7.97 7.41-16.72 13.88-25.29 20.56-14.49-14.55-29.07-29.02-43.49-43.64-2.98 1.81-6.04 3.51-9.07 5.24 10.81 26.93 21.79 53.79 32.62 80.71h19.77v30h-39.83c-13.57-33.11-26.76-66.39-40.39-99.48-3.04.99-6.1 1.87-9.18 2.72.05 20.91.01 41.82.02 62.73-24.47 4.01-49.48 5.3-74.13 2.06-5.08-.65-10.16-1.38-15.25-2.07.02-20.91 0-41.83.02-62.74-3.12-.84-6.22-1.75-9.3-2.71-13.42 33.17-26.82 66.34-40.29 99.48l.82.01h-40.61c-.01-10 0-20-.01-29.99 6.6-.01 13.2-.03 19.8.01 10.96-26.94 21.87-53.9 32.74-80.88-3.16-1.63-6.22-3.43-9.32-5.16-14.45 14.56-28.81 29.19-43.27 43.73-12.37-9.18-24.47-18.82-35.17-29.95-10.42-10.3-19.34-21.96-28.11-33.67 14.42-14.63 29-29.09 43.48-43.65-8.74-14.39-14.89-30.2-19.35-46.39-20.43-.13-40.87-.01-61.3-.05C1.94 272.88.34 259.7 0 246.44v-10.8c.3-13.29 2.03-26.48 3.84-39.64h61.4c4.21-16.29 10.72-31.96 19.24-46.47-14.44-14.57-29.03-29-43.43-43.61 6-7.92 11.9-15.93 18.48-23.37 13.16-15.25 28.59-28.31 44.72-40.3 14.48 14.53 28.71 29.31 43.27 43.76 14.35-8.59 29.9-15.19 46.1-19.37.02-20.92-.01-41.85.01-62.77C206.85 1.94 220.13.24 233.51 0m-10 30.5c-.04 10.36.02 20.72-.03 31.08 9.92-.84 19.89-.81 29.81-.01-.08-10.34-.03-20.68-.03-31.02-9.89-.81-19.85-.69-29.75-.05M80.75 103.63c7.05 7.04 14.1 14.08 21.14 21.14 6.51-7.54 13.53-14.66 21.14-21.1-7.12-7.07-14.13-14.26-21.23-21.36-7.45 6.66-14.62 13.65-21.05 21.32m272.98.25c7.62 6.33 14.48 13.56 20.99 21.01 7.03-7.17 14.18-14.22 21.2-21.4-6.6-7.39-13.46-14.59-21.02-21.01-7.08 7.11-14.26 14.13-21.17 21.4m-209.49 20.94c24.64 25.49 50.13 50.16 74.83 75.59 1.46-.66 2.93-1.28 4.41-1.88.05-35.6.01-71.2.02-106.79-28.94 2.85-56.84 14.58-79.26 33.08M253.25 91.7c0 35.59-.01 71.18 0 106.78 1.46.6 2.91 1.24 4.34 1.9 25.17-24.96 49.94-50.31 74.95-75.42-22.29-18.73-50.38-30.26-79.29-33.26m100.29 54.4c-24.86 25.27-49.99 50.28-74.95 75.46.65 1.45 1.27 2.92 1.85 4.4 35.35.08 70.71.03 106.07.03-2.71-29.14-14.51-57.23-32.97-79.89M90.17 225.98c35.32.06 70.65-.03 105.97.05.68-1.51 1.3-3.03 1.9-4.56-25.14-24.91-49.79-50.3-74.82-75.31-18.66 22.51-30.15 50.76-33.05 79.82m-59.88-.08c-.68 10.01-.7 20.06.01 30.07 9.97.07 19.94.01 29.92.03-.75-10.02-.91-20.1.06-30.1-10-.04-19.99-.05-29.99 0m204.83.34c-4.75.99-8.88 4.53-10.57 9.09-3.43 8 1.57 18.01 9.97 20.14 8.71 2.77 18.49-4.4 18.74-13.45 1.05-9.55-8.8-18.23-18.14-15.78m181.34-.24c.84 10.02.85 20.1 0 30.12 9.98.01 19.96-.01 29.94.01.62-10.03.74-20.11-.05-30.13-9.96.01-19.93 0-29.89 0M90.15 256c2.79 29.1 14.47 57.21 32.96 79.83 25.2-24.93 49.79-50.44 74.98-75.38-.64-1.48-1.28-2.96-1.88-4.45-35.35-.01-70.71.01-106.06 0m188.58 4.36c24.91 25.26 49.97 50.39 75.06 75.48 18.37-22.71 30.01-50.76 32.9-79.84-35.35-.02-70.69.04-106.03-.03-.63 1.47-1.27 2.93-1.93 4.39m-134.7 96.77c22.48 18.44 50.37 30.25 79.33 33.14.04-35.58 0-71.16.02-106.74-1.5-.68-3.01-1.32-4.52-1.94-24.77 25.35-49.92 50.33-74.83 75.54m109.23-73.58c-.03 35.58-.01 71.16-.01 106.74 28.94-2.96 56.94-14.62 79.34-33.2-25.04-25.11-49.78-50.52-75.01-75.45-1.44.63-2.88 1.27-4.32 1.91M80.75 378.39c6.49 7.6 13.56 14.69 21.09 21.27 7.09-7.05 13.99-14.27 21.16-21.23-7.45-6.68-14.63-13.69-21.05-21.39-7.13 7.06-14.13 14.23-21.2 21.35m272.96-.21c6.99 7.19 14.1 14.25 21.19 21.34 7.59-6.42 14.43-13.67 21.08-21.05-7.14-7.05-14.16-14.22-21.23-21.33-6.55 7.46-13.47 14.62-21.04 21.04m-130.22 73.27c9.91.68 19.86.73 29.77 0-.03-10.33.01-20.66-.02-30.99-9.9.73-19.86.84-29.76-.05.03 10.35.02 20.7.01 31.04z"/></symbol><symbol viewBox="0 0 512 499" id="event" xmlns="http://www.w3.org/2000/svg"><path d="M0 0h512v499h-38.5c-25.6-34.05-51.16-68.13-76.68-102.25-132.27-.01-264.55 0-396.82 0V0m38.38 38.38c.01 106.68-.07 213.36.04 320.03 125.79-.12 251.58.08 377.37-.1 19.49 25.46 38.48 51.32 57.86 76.87-.07-132.26.01-264.53-.04-396.8-145.07-.01-290.15-.02-435.23 0z"/><path d="M76.83 83.21c119.46.08 238.92.03 358.38.03.1 12.78-.04 25.55.07 38.33-115.75.12-231.51.02-347.27.05-3.77-.07-7.55.16-11.31-.14.16-12.75-.09-25.51.13-38.27zM76.78 147.24c119.49.02 238.97 0 358.46.01.04 12.78-.04 25.56.04 38.34-104.11.08-208.21.01-312.32.03-15.42-.12-30.86.24-46.28-.18.17-12.73-.01-25.46.1-38.2zM76.85 211.2c72.53.17 145.06-.09 217.59.13-.13 12.75-.07 25.5-.03 38.25-56.45.1-112.89.01-169.33.04-16.13-.11-32.27.23-48.39-.17.2-12.75-.12-25.5.16-38.25zM76.77 275.25c119.48 0 238.96.02 358.44-.01.1 12.78-.02 25.57.06 38.35-118.77.08-237.54.01-356.3.03-.58-.04-1.72-.14-2.3-.19.19-12.73.01-25.46.1-38.18z"/></symbol><symbol viewBox="0 0 512 512" id="facebook" xmlns="http://www.w3.org/2000/svg"><path d="M246.65 0h14.98c35.86.85 71.57 9.12 103.98 24.56 45.44 21.46 84.24 56.68 110.04 99.81 22.99 38.14 35.55 82.38 36.35 126.89v10.44c-1.02 43.7-13.22 87.15-35.64 124.7-32.82 55.65-87.44 98.25-149.79 115.51.13-63.13 0-126.27.07-189.41 18.41-.02 36.82.03 55.23-.02 2.73-21.37 5.57-42.72 8.21-64.1-21.14-.02-42.29.02-63.44-.02-.01-14.09-.07-28.18.03-42.28.08-7.85 1.33-16.48 7.11-22.3 6.19-5.8 15.12-7.06 23.26-7.24 11.64-.08 23.28-.04 34.92-.02.09-19.07.01-38.14.04-57.21-17.24-1.91-34.61-2.54-51.95-2.49-20.53.33-41.81 6.86-56.56 21.66-16.61 16.08-23.04 39.96-22.98 62.52-.03 15.83.01 31.66-.02 47.49-18.29.03-36.58-.01-54.86.02-.02 21.37 0 42.74-.01 64.12 18.29 0 36.58-.02 54.87 0 .02 66.46.02 132.91 0 199.37h-10.13c-41.49-.98-82.78-11.96-118.99-32.3-41.16-22.92-75.79-57.42-98.76-98.55C11.95 344.55.78 302.76 0 260.76v-10.41c.66-24.84 4.67-49.61 12.38-73.25C25.14 137.37 47.96 100.95 78 71.99c25.13-24.47 55.45-43.55 88.29-55.86 25.69-9.7 52.96-14.8 80.36-16.13z"/></symbol><symbol viewBox="0 0 512 384" id="filter" xmlns="http://www.w3.org/2000/svg"><path d="M341.38 0H384c0 42.66.01 85.33-.01 127.99-14.2.01-28.41.03-42.61 0V0zM0 42.62c99.54 0 199.07.01 298.61 0 .02 14.25.02 28.5 0 42.76-99.54-.01-199.07-.01-298.61-.01V42.62zM426.64 42.64c28.45-.04 56.91 0 85.36-.02v42.75c-28.45-.01-56.91.02-85.36-.01-.03-14.24-.03-28.48 0-42.72zM128 128.01c14.21 0 28.42-.04 42.63.01-.02 42.66-.01 85.31 0 127.96-14.21.04-28.42.01-42.63.02V128.01zM0 170.62c28.45.02 56.9-.02 85.36.02.02 14.24.02 28.48-.01 42.72-28.45.03-56.9 0-85.35.01v-42.75zM213.39 213.38c-.02-14.26-.02-28.51 0-42.76 99.54.01 199.07 0 298.61 0v42.75c-99.54 0-199.07 0-298.61.01zM234.63 256.01c14.24-.02 28.49-.02 42.74 0 .01 42.66 0 85.33 0 127.99h-42.75c.01-42.66 0-85.33.01-127.99zM0 298.62c64 .01 127.99 0 191.99.01.02 14.24.02 28.49 0 42.74-64 .01-127.99 0-191.99 0v-42.75zM320.01 298.63c64-.01 127.99 0 191.99-.01v42.75c-64 0-127.99.01-191.99 0-.02-14.25-.02-28.5 0-42.74z"/></symbol><symbol viewBox="0 0 50 50" id="fitness" xmlns="http://www.w3.org/2000/svg"><circle cx="25" cy="25" r="23.5"/><path d="M17 25.5h17M16.5 19v13M34.5 19v13M11.5 21v9M39.5 21v9"/></symbol><symbol viewBox="0 0 512 320" id="hamburger" xmlns="http://www.w3.org/2000/svg"><path d="M0 0h512v64H0V0zM0 128h512v64H0v-64zM0 256h512v64H0v-64z"/></symbol><symbol viewBox="0 0 512 512" id="instagram" xmlns="http://www.w3.org/2000/svg"><path d="M237.9 0h34.66c34.43 2.33 68.45 11.46 99.18 27.24 51.29 25.85 93.25 69.6 117.1 121.83 14.07 30.51 21.86 63.83 23.16 97.38v19.11c-1.54 41.21-13.1 81.99-33.65 117.75-17.72 30.99-41.97 58.21-70.73 79.35-39.07 28.97-86.59 46.2-135.1 49.34h-33.06c-42.33-2.67-83.95-16.04-119.81-38.7-52.08-32.64-91.84-84.52-109.31-143.49C4.7 311.2 1.38 291.92 0 272.53v-32.98c2.84-43.52 16.8-86.31 40.64-122.86C63.71 81.04 95.75 51.25 133 30.85 165.21 13.14 201.27 2.76 237.9 0m-92.4 98.74c-20.91 3.87-38.93 19.9-45.1 40.26-3.79 10.93-2.79 22.62-2.9 33.98 0 60.34.01 120.68-.01 181.02-.02 11.81 3.28 23.69 9.79 33.58 8.3 12.81 21.77 22.08 36.68 25.35 8.53 2.09 17.37 1.49 26.06 1.57 61.34 0 122.67.01 184 0 8.86-.07 17.68-1.98 25.75-5.65 20.63-9.31 34.52-31.26 34.36-53.87-.02-64.98-.01-129.96 0-194.94.29-10.03-1.63-20.22-6.18-29.2-7.53-15.89-22.7-27.82-39.83-31.67-8.54-2.16-17.4-1.61-26.12-1.67H168c-7.51.05-15.11-.36-22.5 1.24z"/><path d="M324.01 133.24c17.87-.18 35.76.41 53.62-.34-.02 18.17.01 36.33-.01 54.49-17.88-.03-35.75 0-53.62-.02 0-18.04-.01-36.08.01-54.13zM244.53 200.67c11.85-2.47 24.53-.97 35.41 4.41 12.65 6.01 22.82 17.01 27.86 30.08 6.06 14.8 5.34 32.28-2.2 46.42-6.74 13.54-19.39 23.84-33.83 28.19-12.75 3.78-26.84 2.89-38.94-2.67-12.08-5.38-22.04-15.24-27.65-27.2-6.86-14.12-7.12-31.15-.99-45.57 6.81-16.96 22.42-30.01 40.34-33.66z"/><path d="M125.88 223.5c16.37.04 32.74-.1 49.11.08-6.39 14.14-7.6 30.27-5.49 45.52 3.03 20.97 14.16 40.58 30.46 54.09 17.02 14.4 39.8 21.62 62.01 19.95 19.88-1.3 39.17-9.82 53.61-23.54 17.67-16.45 27.96-40.49 27.55-64.65-.34-10.71-1.88-21.66-6.48-31.44 16.37 0 32.74-.04 49.11.01-.03 43.51 0 87.02-.01 130.52.01 16.76-14.96 31.95-31.75 31.97-65.67-.02-131.34.01-197-.02-16.58-.39-31.07-15.45-31.12-31.98-.01-43.5 0-87 0-130.51z"/></symbol><symbol viewBox="0 0 23 18" id="interiors" xmlns="http://www.w3.org/2000/svg"><path d="M22.732 8.056c0 .89-.34 1.737-.956 2.387-.293.31-.451.777-.451 1.327v3.299a.705.705 0 01-.704.702h-2.11v1.403h-1.407v-1.403H5.848v1.403H4.44v-1.403H2.33a.705.705 0 01-.704-.702v-3.305c0-.544-.158-1.017-.451-1.327A3.458 3.458 0 01.22 8.05a3.49 3.49 0 011.243-2.673 3.5 3.5 0 011.635-.754C3.41 2.207 5.455.33 7.958.33h7.035c2.504 0 4.55 1.877 4.866 4.293a3.5 3.5 0 011.636.754 3.507 3.507 0 011.237 2.68zM7.958 1.734A3.51 3.51 0 004.505 4.64c1.577.35 2.75 1.842 2.75 3.561v1.954h8.442v-1.96c0-1.719 1.172-3.21 2.75-3.561a3.511 3.511 0 00-3.454-2.901zM21.325 8.05a2.1 2.1 0 00-.745-1.602 2.085 2.085 0 00-1.723-.474c-1.003.164-1.753 1.123-1.753 2.228v3.358H5.848V8.202c0-1.11-.756-2.064-1.753-2.228a2.11 2.11 0 00-1.723.474 2.084 2.084 0 00-.176 3.03c.539.573.838 1.386.838 2.292v2.597h16.884V11.77c0-.906.299-1.72.838-2.293.363-.391.569-.894.569-1.427z"/></symbol><symbol viewBox="0 0 512 295" id="key" xmlns="http://www.w3.org/2000/svg"><path d="M86.2 23.33c21.6-10.41 45.96-14.84 69.85-13.13 30.96 2.08 61 15.02 83.88 35.96 22.57 20.47 38.19 48.53 43.44 78.57 75.09-.01 150.17.11 225.25-.06.31 49.23.02 98.47.15 147.7-19.71 0-39.43.01-59.14-.01-.02-29.55.01-59.09-.02-88.64-7.66.08-15.32-.02-22.98.05-.02 29.54 0 59.08-.01 88.62-19.66-.05-39.32.01-58.99-.03-.02-29.55.01-59.09-.01-88.64-28.79.08-57.58-.01-86.36.04-6.16 24.33-19.09 46.91-36.96 64.54-17.25 17.28-39.22 29.78-62.83 35.98-27.17 7.13-56.5 5.83-82.91-3.75-19.69-7.13-37.75-18.75-52.33-33.79-22.46-22.85-36.62-53.69-39.17-85.64-2.18-25.6 2.79-51.78 14.47-74.68 13.82-27.39 36.91-50 64.67-63.09m48.31 46.39c-18.13 2.61-35.26 11.64-47.63 25.15-12.09 13.13-19.7 30.36-21 48.19-1.5 18.24 3.51 36.95 14.01 51.94 12.31 18.1 32.4 30.67 54.05 33.83 16.57 2.55 33.93-.22 48.81-7.94 18.32-9.38 32.85-26.03 39.4-45.57 5.46-15.77 5.73-33.25.92-49.22-5.3-17.52-16.71-33.16-31.93-43.36-16.35-11.26-37.01-15.84-56.63-13.02z"/></symbol><symbol viewBox="0 0 50 50" id="kindergartens" xmlns="http://www.w3.org/2000/svg"><circle cx="25" cy="25" r="23.5"/><path d="M40.507 28.178c0 4.872-7.053 8.822-15.754 8.822C16.053 37 9 33.05 9 28.178"/><path d="M36.096 34.48L32.946 22h2.628a2 2 0 001.999-1.924l.038-1.014a2 2 0 00-1.483-2.008l-3.183-.848L32 14h-3l-1 6H16l-2.589 14.48M10 23c.526-1 2.263-3 5-3M31.685 35.74a6.932 6.932 0 00-13.863 0"/></symbol><symbol viewBox="0 0 369 99" id="logo" xmlns="http://www.w3.org/2000/svg"><path d="M154.985 40.557v.526c0 1.34-.239 2.535-.717 3.54a7.084 7.084 0 01-2.153 2.63c-.956.718-2.056 1.244-3.444 1.579-1.339.382-2.869.526-4.543.526h-10.714v6.6H126V33h17.745c1.722 0 3.252.191 4.64.526 1.387.335 2.582.813 3.539 1.483.957.67 1.722 1.435 2.248 2.391.526.91.813 1.961.813 3.157zm-7.605.67v-.335c0-1.005-.335-1.818-1.052-2.296-.718-.526-1.818-.765-3.348-.765h-9.566v6.792h9.47c1.483 0 2.631-.287 3.396-.909.717-.622 1.1-1.435 1.1-2.487zM187.51 40.557v.383c0 1.435-.479 2.678-1.435 3.635-.813.813-2.009 1.53-3.54 2.057.766.382 1.34.813 1.77 1.291.383.43.765 1.1 1.148 2.009l.957 2.44c.382.908.717 1.625 1.004 2.152.287.526.574 1.004.909 1.387h-7.94c-.287-.287-.526-.67-.765-1.148a18.129 18.129 0 01-.718-1.627l-1.148-2.917c-.334-.813-.861-1.435-1.578-1.818a4.75 4.75 0 00-1.387-.43 10.763 10.763 0 00-1.913-.191h-6.936v8.13h-7.413V33h17.745c1.722 0 3.252.191 4.639.526 1.387.335 2.583.813 3.54 1.483.956.67 1.721 1.435 2.248 2.391.526.91.813 1.961.813 3.157zm-7.605.144v-.192c0-1.817-1.292-2.726-3.922-2.726h-10.045v5.644h9.806c.573 0 1.147-.048 1.674-.191.526-.144.956-.287 1.339-.526.765-.43 1.148-1.148 1.148-2.01zM218.073 56.006h-25.541V33h25.398v4.783h-18.08v4.21h16.549v4.782h-16.597v4.4h18.223v4.831h.048zM272.886 56.006h-7.413V33h7.413v23.006zM304.407 56.006h-25.542V33h25.398v4.783h-18.08v4.21h16.597v4.782h-16.597v4.4h18.224v4.831zM337.888 40.557v.383c0 1.435-.479 2.678-1.435 3.635-.813.813-2.009 1.53-3.54 2.057.766.382 1.34.813 1.77 1.291.383.43.765 1.1 1.148 2.009l.957 2.44c.382.908.717 1.625 1.004 2.152.287.526.574 1.004.909 1.387h-7.94c-.287-.287-.526-.67-.765-1.148a18.129 18.129 0 01-.718-1.627l-1.148-2.917c-.334-.813-.861-1.435-1.578-1.818a4.75 4.75 0 00-1.387-.43 10.763 10.763 0 00-1.913-.191h-6.936v8.13h-7.413V33h17.745c1.721 0 3.252.191 4.639.526 1.387.335 2.583.813 3.54 1.483.956.67 1.721 1.435 2.248 2.391.526.91.813 1.961.813 3.157zm-7.605.144v-.192c0-1.817-1.292-2.726-3.922-2.726h-10.093v5.644h9.806c.574 0 1.148-.048 1.674-.191.526-.144.956-.287 1.339-.526.813-.43 1.196-1.148 1.196-2.01zM368.451 56.006H342.91V33h25.397v4.783h-18.079v4.21h16.597v4.782h-16.597v4.4h18.223v4.831zM249.306 33l-8.274 14.588L232.709 33h-10.092v23.006h6.601V38.357l8.322 14.301h6.935l8.323-14.301v17.65h6.648V33h-10.14z"/><circle cx="49.547" cy="49.141" r="49.072"/><path d="M49.5 0C22.184 0 0 22.184 0 49.5S22.184 99 49.5 99 99 76.816 99 49.5 76.737 0 49.5 0zM31.421 91.421C24 88.263 17.684 83.131 12.868 76.737h18.553V91.42zm0-17.132H12.474l3.947-14.842a16.977 16.977 0 0010.184 3.395c1.658 0 3.316-.237 4.816-.71V74.29zM15.158 54.87c-1.895-2.448-3.08-5.606-3.08-8.922 0-6.079 3.79-11.368 9.08-13.5l-6 22.421zm16.263 4.815c-1.5.553-3.158.79-4.816.79a14.34 14.34 0 01-9.473-3.553l6.79-25.263a15.416 15.416 0 012.683-.237c1.658 0 3.316.316 4.816.79v27.473zM49.5 95.132c-5.526 0-10.737-.948-15.632-2.764V61.263c2.606-1.263 4.895-3.158 6.553-5.447.316 7.5 3.79 14.684 9.71 19.816 4.658 4.026 10.027 6.315 15.316 6.79l4.816 7.657A44.834 44.834 0 0149.5 95.132zm-6.316-52.737c-1.105-5.21-4.658-9.553-9.395-11.763V14.368h14.764c7.342 0 13.42 5.527 14.368 12.632-8.763 1.816-15.947 7.658-19.737 15.395zM63.08 29.447c-.316 7.658-6.71 13.895-14.447 13.895h-3.158c3.316-6.947 9.71-12.158 17.605-13.895zM43.658 48l20.131 31.737c-4.184-.71-8.368-2.763-12.078-5.921-5.606-4.816-8.843-11.684-8.922-18.71A23.709 23.709 0 0143.658 48zm-2.763-4.658h-7.106V33.316a14.6 14.6 0 017.106 10.026zm.237 2.447v.158c0 5.369-2.921 10.106-7.343 12.632v-12.79h7.343zm31.263 43.185L68.29 82.5c2.289-.079 4.657-.632 6.789-1.421 8.684-3.395 15.079-12.316 16.026-22.184l.158-1.342H76.816V60h11.763c-1.263 8.29-6.947 15.947-14.29 18.79-2.368.947-4.894 1.342-7.5 1.342L45.08 45.789h3.474c9.394 0 16.973-7.578 16.973-16.894C65.526 19.579 57.947 12 48.632 12H31.5v17.684c-1.5-.474-3.158-.71-4.816-.71-.71 0-1.342.079-2.052.158L27 20.289H16.895v2.448h6.868l-1.895 6.947C14.763 31.737 9.553 38.29 9.553 46.026c0 4.58 1.815 8.684 4.736 11.763l-4.026 15.158A45.442 45.442 0 013.79 49.5c0-25.184 20.448-45.632 45.632-45.632 25.184 0 45.632 20.527 45.632 45.632.079 16.816-9.08 31.5-22.658 39.474zm4.5-58.342c-6.71 0-12.158 5.447-12.158 12.157 0 6.711 5.447 12.158 12.158 12.158 3.868 0 7.5-1.815 9.79-4.894a12.503 12.503 0 001.657-3h-2.605a6.453 6.453 0 01-.947 1.579c-1.816 2.447-4.737 3.947-7.816 3.947-4.974 0-9.08-3.71-9.632-8.526h21.79v-1.185c-.08-6.79-5.527-12.236-12.237-12.236zm-9.71 10.973c.63-4.816 4.736-8.526 9.63-8.526 4.975 0 9.08 3.71 9.632 8.526H67.184z"/></symbol><symbol viewBox="0 0 89 89" id="logo-circle" xmlns="http://www.w3.org/2000/svg"><circle cx="44.5" cy="44.5" r="42.5"/><path d="M44.5 0C19.964 0 0 19.964 0 44.5S19.941 89 44.5 89 89 69.036 89 44.5 69.036 0 44.5 0zM28.24 82.219a41.295 41.295 0 01-16.663-13.183h16.662V82.22zm0-15.369H11.174l3.591-13.338a15.248 15.248 0 009.168 3.055c1.495 0 2.944-.223 4.327-.624V66.85h-.022zM13.606 49.34a13.014 13.014 0 01-2.766-8.03c0-5.487 3.39-10.194 8.186-12.134l-5.42 20.164zm14.632 4.305c-1.36.469-2.81.736-4.327.736a13.035 13.035 0 01-8.543-3.19L21.48 28.44c.781-.156 1.607-.223 2.432-.223 1.517 0 2.966.268 4.327.736v24.692zM44.5 85.587c-4.93 0-9.68-.87-14.075-2.476V55.117a15.514 15.514 0 005.889-4.907c.267 6.759 3.435 13.228 8.744 17.845 4.193 3.636 9.011 5.71 13.807 6.09l4.372 6.892c-5.644 2.9-12 4.55-18.737 4.55zm-5.666-47.489a15.282 15.282 0 00-8.431-10.617V12.937h13.272c6.625 0 12.09 4.975 12.915 11.354-7.897 1.628-14.365 6.87-17.756 13.807zm17.867-11.576c-.29 6.914-6 12.468-13.004 12.468h-2.833c3.034-6.223 8.789-10.93 15.837-12.468zM39.258 43.184l18.068 28.574c-3.77-.647-7.517-2.454-10.863-5.331-5.019-4.35-7.94-10.484-8.03-16.841 0-2.209.267-4.35.825-6.402zm-2.476-4.216h-6.357v-9.011c3.279 1.896 5.666 5.175 6.357 9.011zm.223 2.186v.156c0 4.84-2.654 9.079-6.58 11.354V41.176h6.58v-.022zm28.128 38.857l-3.68-5.8a19.487 19.487 0 006.133-1.316c7.808-3.056 13.585-11.063 14.388-19.919l.111-1.182H69.103v2.186h10.55c-1.114 7.495-6.267 14.32-12.87 16.908a17.42 17.42 0 01-6.714 1.182L40.552 41.199h3.123c8.387 0 15.19-6.826 15.19-15.19 0-8.365-6.826-15.19-15.19-15.19H28.239v15.926a15.257 15.257 0 00-4.327-.625c-.625 0-1.227.045-1.83.112l2.12-7.919H15.19v2.186h6.179l-1.673 6.223C13.316 28.552 8.632 34.44 8.632 41.4c0 4.104 1.629 7.829 4.283 10.572L9.257 65.58C5.554 59.423 3.435 52.196 3.435 44.5 3.435 21.86 21.86 3.435 44.5 3.435c22.64 0 41.065 18.425 41.065 41.065 0 15.123-8.23 28.373-20.432 35.51zm4.015-52.463c-6.023 0-10.93 4.907-10.93 10.93 0 6.022 4.907 10.93 10.93 10.93 3.457 0 6.736-1.651 8.788-4.44.625-.825 1.093-1.74 1.45-2.72h-2.364c-.246.49-.513.958-.848 1.404a8.79 8.79 0 01-7.048 3.547c-4.462 0-8.142-3.346-8.7-7.673h19.63v-1.093c.022-5.978-4.886-10.885-10.908-10.885zm-8.7 9.859c.536-4.305 4.239-7.673 8.7-7.673 4.461 0 8.142 3.346 8.7 7.673h-17.4z"/><defs><linearGradient id="aypaint0_linear" x1="76.763" y1="6.037" x2="11.924" y2="83.32" gradientUnits="userSpaceOnUse"><stop stop-color="#FBB451"/><stop offset=".08" stop-color="#EBA84C"/><stop offset=".528" stop-color="#986A34"/><stop offset=".846" stop-color="#634225"/><stop offset="1" stop-color="#4F331F"/></linearGradient></defs></symbol><symbol viewBox="0 0 221 21" id="logo-jsi" xmlns="http://www.w3.org/2000/svg"><path d="M43.872 1.237a.625.625 0 01.166.412c0 .082 0 .165-.083.247L38.96 8.73l5.16 7.165c.084.082.084.165.084.247 0 .165-.084.33-.167.412a.639.639 0 01-.416.164h-1.915c-.25 0-.416-.082-.582-.164-.167-.083-.25-.247-.333-.412l-3.33-4.612v4.612c0 .165-.083.33-.166.412a.64.64 0 01-.416.164h-1.832a.64.64 0 01-.416-.164.626.626 0 01-.166-.412V11.53l-3.413 4.694c-.083.165-.25.33-.333.412-.167.082-.333.165-.583.165h-1.914a.64.64 0 01-.417-.165.626.626 0 01-.166-.412c0-.082 0-.164.083-.247l5.161-7.164-4.994-6.836c-.084-.082-.084-.164-.084-.247 0-.165.084-.33.167-.412a.64.64 0 01.416-.164h1.915c.25 0 .416.082.582.164.167.083.25.247.333.412l3.163 4.365V1.649c0-.165.084-.33.167-.412a.64.64 0 01.416-.165h1.831a.64.64 0 01.416.165c.167.082.25.247.25.412V5.93l3.163-4.365c.083-.164.25-.329.333-.411.167-.083.333-.165.583-.165h1.914c.167.082.333.082.417.247zM54.85 16.557a.626.626 0 01-.166-.412V9.886l-5.494 6.589c-.166.164-.333.247-.5.247h-1.747a.64.64 0 01-.417-.165.626.626 0 01-.166-.412V5.686c0-.164.083-.329.166-.411a.64.64 0 01.417-.165h1.748a.64.64 0 01.416.165.626.626 0 01.166.411v6.342l5.494-6.67c.167-.166.333-.248.5-.248h1.748a.64.64 0 01.416.165.626.626 0 01.166.411v10.46a.625.625 0 01-.166.411.64.64 0 01-.416.165h-1.748c-.167 0-.333 0-.417-.165zM136.18 16.557a.626.626 0 01-.166-.412V9.886l-5.494 6.671c-.166.165-.333.247-.5.247h-1.747a.64.64 0 01-.417-.165.625.625 0 01-.166-.411V5.686c0-.164.083-.329.166-.411a.64.64 0 01.417-.165h1.748a.64.64 0 01.416.165.626.626 0 01.166.411v6.342l5.494-6.67c.167-.166.333-.248.5-.248h1.748a.64.64 0 01.416.165.625.625 0 01.166.411v10.46a.625.625 0 01-.166.411.64.64 0 01-.416.165h-1.748c-.084 0-.25 0-.417-.165zM150.66 16.557a.626.626 0 01-.166-.412V9.886L145 16.557c-.166.165-.333.247-.5.247h-1.747a.64.64 0 01-.417-.165.625.625 0 01-.166-.411V5.686c0-.164.083-.329.166-.411a.64.64 0 01.417-.165h1.748a.64.64 0 01.416.165.626.626 0 01.166.411v6.342l5.494-6.67c.167-.166.333-.248.5-.248h1.748a.64.64 0 01.416.165.625.625 0 01.166.411v10.46a.625.625 0 01-.166.411.64.64 0 01-.416.165h-1.748c-.167 0-.333 0-.417-.165zM65.007 12.604c0 1.4-.333 2.47-1.082 3.212-.749.741-1.748 1.153-3.163 1.153h-.5a.64.64 0 01-.416-.165.625.625 0 01-.166-.412V14.91c0-.165.083-.33.166-.412a.64.64 0 01.417-.164h.416c.583 0 .916-.165 1.165-.412.167-.247.333-.741.333-1.318V5.686a.62.62 0 01.167-.411.64.64 0 01.416-.165h8.324a.64.64 0 01.416.165c0 .082.083.247.083.411v10.46a.625.625 0 01-.166.411.64.64 0 01-.416.165h-1.748a.64.64 0 01-.417-.165.626.626 0 01-.166-.412v-8.4h-3.663zM77.999 13.672a2.76 2.76 0 001.831.659c.666 0 1.166-.083 1.499-.33.333-.165.665-.494.915-.906.083-.164.25-.33.333-.411a.64.64 0 01.416-.165h1.748a.64.64 0 01.417.165c.166.082.166.247.166.411 0 .494-.25 1.07-.666 1.647a4.943 4.943 0 01-1.831 1.565c-.833.412-1.831.659-2.997.659a6.228 6.228 0 01-2.83-.659c-.832-.494-1.498-1.07-1.998-1.894a5.784 5.784 0 01-.832-2.553v-1.812c.083-.906.333-1.812.832-2.553.5-.823 1.166-1.4 1.998-1.894.833-.494 1.748-.741 2.83-.741 1.166 0 2.164.247 2.997.659a4.943 4.943 0 011.831 1.565c.416.576.666 1.152.666 1.647a.625.625 0 01-.166.411c-.167.083-.25.165-.417.165h-1.748c-.166 0-.25-.082-.416-.165-.083-.082-.25-.247-.333-.411-.25-.412-.582-.742-.915-.906a3.354 3.354 0 00-1.499-.33 2.92 2.92 0 00-1.831.66c-.5.41-.832 1.07-.916 1.976v1.647c.084.823.417 1.4.916 1.894zM102.887 20.837a.64.64 0 01-.416.164h-1.748a.64.64 0 01-.417-.165.626.626 0 01-.166-.411V5.684c0-.165.083-.33.166-.412a.64.64 0 01.417-.165h1.748a.64.64 0 01.416.165.626.626 0 01.166.412v.494c.333-.33.75-.66 1.332-.906a5.188 5.188 0 012.081-.412c1 0 1.831.247 2.58.741a5.448 5.448 0 011.749 1.894c.416.824.665 1.647.665 2.636v1.647c-.083.906-.25 1.811-.665 2.635-.417.824-1 1.482-1.748 1.894-.75.494-1.582.741-2.58.741a5.189 5.189 0 01-2.082-.411 4.164 4.164 0 01-1.332-.906v4.694c0 .164-.083.33-.166.412zM107.88 8.4c-.5-.576-1.165-.823-2.08-.823-.75 0-1.416.247-1.915.658-.5.412-.75 1.071-.833 1.812v1.648c.084.741.333 1.4.833 1.812.5.494 1.165.659 1.831.659.75 0 1.415-.247 1.915-.659.499-.412.832-1.153.915-2.059 0-.33.083-.494.083-.659 0-.988-.25-1.894-.749-2.388zM125.104 10.956c0 .412 0 .742-.083 1.153-.084.906-.334 1.73-.833 2.471-.5.741-1.165 1.318-1.998 1.812a6.496 6.496 0 01-2.83.659 6.228 6.228 0 01-2.83-.66c-.832-.411-1.498-.987-1.998-1.811-.5-.741-.749-1.565-.832-2.47V9.804c.083-.906.333-1.73.832-2.553.5-.742 1.166-1.318 1.998-1.812a6.495 6.495 0 012.83-.659c1.082 0 1.998.247 2.83.659.833.412 1.499.988 1.998 1.812.5.74.75 1.564.832 2.553.084.329.084.74.084 1.152zm-7.575-2.882c-.5.33-.832.988-.916 1.812v1.976c.084.824.417 1.483.916 1.812.5.33 1.082.577 1.831.577.75 0 1.332-.165 1.832-.577.499-.33.832-.988.915-1.812 0-.33.083-.658.083-.988 0-.412 0-.741-.083-.988-.083-.824-.416-1.482-.915-1.812-.5-.33-1.083-.576-1.832-.576-.749.082-1.332.247-1.831.576zM167.558 5.275a.626.626 0 01.166.411v10.46a.625.625 0 01-.166.411.64.64 0 01-.417.165h-1.748a.64.64 0 01-.416-.165.626.626 0 01-.166-.412v-3.953h-5.328v3.953c0 .165-.083.33-.166.412a.64.64 0 01-.416.165h-1.748a.64.64 0 01-.417-.165.626.626 0 01-.166-.412V5.686c0-.164.083-.329.166-.411a.64.64 0 01.417-.165h1.748a.64.64 0 01.416.165.626.626 0 01.166.411v3.871h5.328v-3.87c0-.165.083-.33.166-.412a.64.64 0 01.416-.165h1.748c.167 0 .333 0 .417.165zM171.056 16.632c-.083-.083-.166-.165-.166-.33V5.514c0-.082.083-.247.166-.33.084-.082.167-.164.333-.164h6.41c1.165 0 2.08.33 2.83.906.75.576 1.082 1.4 1.082 2.306 0 .576-.083 1.07-.333 1.482-.166.33-.5.659-.832.906.5.33.832.659 1.082 1.07.25.412.333.989.333 1.565 0 1.07-.333 1.894-1 2.47-.665.577-1.58.907-2.746.907h-6.742c-.25.082-.333.082-.417 0zm2.747-7.083h3.413c.5 0 .833-.082 1.082-.164.25-.165.333-.33.333-.66 0-.329-.083-.576-.333-.658-.25-.165-.582-.165-1.082-.165h-3.413zm4.662 4.283c.25-.165.333-.412.333-.741 0-.33-.084-.577-.333-.742-.25-.164-.583-.247-1.082-.247h-3.58v1.977h3.58c.5 0 .915-.083 1.082-.247zM192.447 5.604c.833.494 1.498 1.235 1.998 2.058.5.906.666 1.812.666 2.883v.988c0 .165-.084.33-.167.412a.64.64 0 01-.416.164h-7.575c0 .66.25 1.153.75 1.565.499.412 1.165.577 1.83.577.833 0 1.5-.165 1.915-.495.167-.082.333-.164.416-.247.084-.082.25-.082.417-.082h1.83a.64.64 0 01.417.165.625.625 0 01.167.412c0 .329-.167.74-.583 1.153-.416.494-.999.905-1.831 1.235-.75.33-1.748.494-2.747.494-1.082 0-2.081-.247-2.914-.741a4.812 4.812 0 01-1.914-2.141 7.519 7.519 0 01-.666-3.13c0-1.153.25-2.141.666-3.047.416-.906 1.082-1.647 1.914-2.223.833-.577 1.832-.824 2.914-.824 1.082.082 1.998.33 2.913.824zm-.416 4.035c-.167-1.4-.999-2.059-2.497-2.059-.75 0-1.415.247-1.831.659a2.587 2.587 0 00-.75 1.4zM200.859 13.672a2.76 2.76 0 001.831.659c.666 0 1.166-.083 1.499-.33.333-.165.665-.494.915-.906.083-.164.25-.33.333-.411a.64.64 0 01.416-.165h1.748a.64.64 0 01.417.165c.166.082.166.247.166.411 0 .494-.25 1.07-.666 1.647a4.943 4.943 0 01-1.831 1.565c-.833.412-1.831.659-2.997.659a6.228 6.228 0 01-2.83-.659c-.832-.494-1.498-1.07-1.998-1.894a5.784 5.784 0 01-.832-2.553v-1.812c.083-.906.333-1.812.832-2.553.5-.823 1.166-1.4 1.998-1.894.833-.494 1.748-.741 2.83-.741 1.166 0 2.164.247 2.997.659a4.943 4.943 0 011.831 1.565c.416.576.666 1.152.666 1.647 0 .164 0 .329-.166.411-.167.083-.25.165-.417.165h-1.748c-.166 0-.25-.082-.416-.165-.166-.082-.25-.247-.333-.411-.25-.412-.582-.742-.915-.906a3.354 3.354 0 00-1.499-.33 2.92 2.92 0 00-1.831.66c-.5.41-.832 1.07-.916 1.976v1.647c.084.823.333 1.4.916 1.894zM220.506 5.11h-8.907c-.167 0-.25.082-.416.165l-1.665 1.647a.503.503 0 00-.083.576c.083.165.25.33.5.33h3.828v8.4c0 .164.083.33.167.411a.64.64 0 00.416.165h1.748a.64.64 0 00.416-.165.625.625 0 00.166-.411V7.745h3.83c.333 0 .499-.247.499-.494V5.604c0-.247-.25-.494-.5-.494zM97.635 5.11H88.73c-.167 0-.25.082-.416.165l-1.665 1.647c-.084.082-.167.33-.084.494.084.165.25.33.5.33h3.829v8.4c0 .164.083.329.166.411a.64.64 0 00.417.165h1.748a.64.64 0 00.416-.165.626.626 0 00.166-.412v-8.4h3.83a.477.477 0 00.499-.494V5.604c0-.247-.25-.494-.5-.494zM16.897 11.368c0 .33-.25.577-.583.577h-1.831a.566.566 0 01-.583-.577V9.556c0-.329.25-.576.583-.576h1.83c.334 0 .584.247.584.576zM16.898 16.228c0 .33-.25.577-.583.577H9.573a.566.566 0 01-.583-.577v-1.812c0-.329.25-.576.583-.576h6.742c.333 0 .583.247.583.576zM9.908 6.172a.503.503 0 00-.083.576c.083.165.25.33.5.33h1.248a.566.566 0 00.582-.577V5.348c0-.247-.166-.412-.333-.494-.166-.082-.416 0-.582.082zM14.146 1.978a.626.626 0 00-.166.412v4.2c0 .33.25.576.583.576h1.83a.566.566 0 00.584-.576V.578c0-.247-.167-.412-.333-.494-.167-.082-.417 0-.583.082zM4.998 11.039a.503.503 0 00-.083.576c.083.165.25.33.5.33h6.076a.566.566 0 00.582-.577V9.556a.566.566 0 00-.582-.576H7.245c-.166 0-.25.082-.416.165zM.17 15.809c-.167.165-.25.412-.167.576.083.165.25.33.5.33h5.992c.167 0 .25-.083.417-.165a.626.626 0 00.166-.412v-1.812a.566.566 0 00-.583-.576H2.417c-.167 0-.25.082-.417.165z"/><g><path d="M130.098 2.31c-.167.164-.167.329-.083.576.083.165.25.33.5.33h5.493c.166 0 .25-.083.333-.165.083-.083.166-.247.166-.33V1.074c0-.247-.25-.494-.5-.494h-3.828c-.167 0-.25.082-.333.165z"/></g></symbol><symbol viewBox="0 0 269 244" id="pdf" xmlns="http://www.w3.org/2000/svg"><path d="M97.26 8.33c3.66-5.08 10.22-8.83 16.59-6.91 5.51 1.05 8.91 6.3 9.96 11.47 1.16 6.65 1.93 13.37 2.92 20.04 7.61 35.03 18.65 70.61 41.41 98.97 3.95 4.3 7.16 9.21 11.04 13.56 17.52 1.27 34.98 4.33 51.65 9.95 11.2 4.01 22.62 9.05 30.72 18.08 2.89 3.05 4.96 6.85 5.71 10.99 2.55 10.89-2.66 22.7-11.66 29.05-5.39 3.8-12.12 5.25-18.64 5.08-9.63-.17-18.82-3.76-27.13-8.39-16.43-9.39-30.21-22.58-43.71-35.66-9.69-.51-19.34.72-28.95 1.7-13.46 1.61-26.9 3.37-40.24 5.75-9.77 16.3-20.44 32.38-34.42 45.4-7.01 6.35-15.08 12.02-24.43 14.16-9.62 2.2-20.37-.17-27.78-6.8-6.5-6.3-10.38-15.63-8.89-24.72 1.58-10.85 9.78-19.09 17.81-25.82 16.89-13.22 36.95-21.9 57.46-27.77 2.93-5.93 7.13-11.14 9.49-17.35 13.23-31.12 14.79-65.73 12.98-99.07-.03-5.79-1.8-11.34-2.87-16.98-1.72-4.76-1.61-10.3.98-14.73m25.23 106.33c-1.7 11.22-4.85 22.18-9.17 32.67 9.21-.72 18.46-1.49 27.5-3.46-7.08-9.1-12.98-19.01-18.33-29.21m-91.6 98.36c6.26-2.8 11.33-7.61 16.24-12.29-5.88 3.37-12.08 6.78-16.24 12.29z"/></symbol><symbol viewBox="0 0 512 538" id="phone" xmlns="http://www.w3.org/2000/svg"><path d="M238.52 35c-.45-9.05 7.29-17.72 16.45-17.79 18.8-.48 37.6 1.92 55.97 5.84 59.77 12.9 114.26 48.32 150.54 97.51 25.52 34.06 42.13 74.7 48.02 116.84 1.27 8.69 1.59 17.47 2.5 26.2v12.99c-1.46 3.95-3.44 7.95-6.89 10.52-5.83 4.63-14.65 4.84-20.67.46-5.02-3.46-7.86-9.5-7.7-15.55.24-19.26-2.79-38.44-7.74-57.01-14.89-55.13-52.23-103.72-101.58-132.42-30.55-17.97-65.52-28.24-100.89-30.03-4.5-.29-9.04.04-13.53-.5-8.12-1.12-14.73-8.82-14.48-17.06zM103.7 22.81c5.67-2.72 11.69-6.28 18.24-4.91 5.29.77 9.62 4.4 12.33 8.86 20.79 32.22 41.53 64.46 62.33 96.67 4.43 6.69 3.56 16.36-2.21 22-11.63 11.68-23.32 23.32-34.98 34.97-3.49 3.56-7.78 6.9-9.13 11.94-1.51 5.75-.15 11.71.96 17.41 7.73 37.24 27.3 71.32 52.92 99.14 11.24 11.78 22.99 23.18 36.26 32.69 23.65 17.43 50.77 30.56 79.66 36.4 5.19.93 10.55 2.11 15.82 1.05 4.43-.92 7.78-4.19 10.92-7.22 11.76-11.9 23.7-23.63 35.58-35.42 3.57-3.67 8.29-6.64 13.59-6.49 6.23-.36 11.28 3.72 16.2 6.92 29.82 19.17 59.6 38.4 89.44 57.56 3.34 2.2 6.73 4.77 8.38 8.55 2.32 5.22 1.71 11.31-.74 16.36-15.65 33.04-31.16 66.16-46.77 99.22-2.44 5.4-7.49 9.81-13.53 10.4-5.84.47-11.63-.72-17.41-1.42a441.19 441.19 0 01-68.14-14.99c-77.5-23.58-147.88-67.81-205.97-123.92-37.81-36.25-70.96-77.5-97.14-122.92-26.69-46.21-45.97-96.84-55.61-149.38-1.85-9.59-2.78-19.33-4.7-28.91v-7.94c1.63-4.13 3.72-8.4 7.56-10.9 3.96-2.62 8.45-4.27 12.7-6.34C48.06 49.03 75.92 36 103.7 22.81z"/><path d="M250.36 106.44c2.46-.79 5.07-.84 7.64-.88 38.98.15 77.58 14.88 107.09 40.27 36.76 31.22 59.13 78.93 58.69 127.24.2 8.8-7.23 16.67-15.87 17.6-7.17.67-14.63-3.36-17.61-9.99-2.65-4.79-1.77-10.39-2.03-15.62-1.59-28-12.56-55.27-30.51-76.79-22.78-27.52-57.1-45.17-92.78-47.35-5.57-.46-11.56.59-16.71-2.12-6.22-2.97-10.21-9.93-9.65-16.8.19-6.97 5.22-13.33 11.74-15.56z"/></symbol><symbol viewBox="0 0 512 569" id="play" xmlns="http://www.w3.org/2000/svg"><path d="M47.08 11.14c19.55-10.06 43.11-12 64.03-5.2 10.26 3.22 19.4 9.02 28.65 14.35 108.2 62.44 216.37 124.94 324.58 187.37 9.61 5.27 18.83 11.55 26.09 19.83 12.65 14.04 19.95 32.35 21.57 51.09v13.8c-1.69 9.25-3.37 18.64-7.48 27.18-7.16 16.29-19.8 29.94-35.22 38.76-110.07 63.61-220.2 127.12-330.28 190.72-7.75 4.33-15.25 9.24-23.62 12.36-15.55 6.01-32.93 7.21-49.15 3.33-23.62-5.51-44.75-21.34-56.2-42.78C4.31 511.63 1.48 500 0 488.38V77.69C1.65 70.6 2.98 63.4 5.64 56.6c7.43-19.67 22.62-36.16 41.44-45.46m33.24 48.21c-9.8 1.67-18.5 8.82-21.77 18.24-2.05 5.56-1.69 11.58-1.72 17.41.05 129-.05 258.01.05 387.01-.21 14.21 11.92 27.01 26.04 27.88 8.28 1.03 15.97-2.92 22.72-7.25 108.38-62.6 216.78-125.16 325.17-187.76 6.17-3.7 13.16-6.58 17.81-12.31 8.29-9.69 8.6-25 .95-35.16-3.81-5.36-9.85-8.34-15.41-11.53-111.6-64.41-223.18-128.86-334.79-193.27-5.72-3.27-12.57-4.48-19.05-3.26z"/></symbol><symbol viewBox="0 0 512 211" id="prev" xmlns="http://www.w3.org/2000/svg"><path d="M90.43 0h30.1c-.06 19.3-6.08 38.52-17.16 54.34-10.51 15.21-25.03 27.5-41.39 36.01 150 .06 300.01.01 450.02.03v30.12c-149.93.01-299.85-.02-449.78.01 17.9 9.58 33.84 23.39 44.34 40.9 9.13 14.81 13.92 32.21 13.93 49.59H90.47c-.14-18.14-8.3-35.71-21.17-48.32-17.98-18.3-43.96-27.17-69.3-27.22V75.27c25.11.15 50.73-8.76 68.79-26.53C81.83 36.03 90.34 18.37 90.43 0z"/></symbol><symbol viewBox="0 0 512 439" id="public-areas" xmlns="http://www.w3.org/2000/svg"><path d="M0 0h510c-.01 10.21.02 20.42-.01 30.63-23.9-.01-47.8-.01-71.7 0 15.35 125.88 30.74 251.76 46.11 377.64 9.2-.04 18.4-.01 27.6-.02V439h-83.57c-.11-10.24-.04-20.49-.04-30.73 8.61-.05 17.22 0 25.83-.02-15.26-125.89-30.73-251.75-46.08-377.62-22.42-.01-44.85-.01-67.27 0 .01 96.62 0 193.24 0 289.86-57.24.01-114.49.01-171.74 0 0-96.62-.01-193.24 0-289.86-21.89 0-43.78-.02-65.68.01-15.35 125.88-30.76 251.75-46.1 377.63 8.8-.04 17.6-.01 26.4-.02-.02 10.25.05 20.5-.04 30.75H0v-30.75h27.15C42.64 282.4 57.94 156.52 73.31 30.65c-24.44-.06-48.87-.01-73.31-.03V0m198.87 30.63c.01 65.41.02 130.83-.01 196.24 37.43.01 74.85.01 112.28 0-.03-65.41-.02-130.83-.01-196.24-37.42-.01-74.84-.01-112.26 0m0 226.89c.01 10.82 0 21.65.01 32.48h112.24c.02-10.82-.01-21.64.02-32.45-37.42-.11-74.85-.04-112.27-.03z"/></symbol><symbol viewBox="0 0 50 50" id="restaurants" xmlns="http://www.w3.org/2000/svg"><circle cx="25" cy="25" r="23.5"/><path d="M10 33.5h31M25.5 11v4"/><mask id="bfa"><path fill-rule="evenodd" clip-rule="evenodd" d="M13 24.05C13 17.947 18.518 13 25.325 13c6.807 0 12.325 4.947 12.325 11.05V30H13v-5.95z"/></mask><path d="M13 24.05h-3 3zm24.65 0h3-3zm0 5.95v3h3v-3h-3zM13 30h-3v3h3v-3zm12.325-20C17.178 10 10 15.99 10 24.05h6c0-4.146 3.858-8.05 9.325-8.05v-6zM40.65 24.05c0-8.06-7.178-14.05-15.325-14.05v6c5.466 0 9.325 3.904 9.325 8.05h6zm0 0h-6 6zm-6 0V30h6v-5.95h-6zm3 2.95H13v6h24.65v-6zM16 30v-5.95h-6V30h6zm-6-5.95h6-6z" mask="url(#bfa)"/></symbol><symbol viewBox="0 0 50 50" id="schools" xmlns="http://www.w3.org/2000/svg"><defs><clipPath id="bga"><path d="M50 25c0 13.807-11.193 25-25 25S0 38.807 0 25 11.193 0 25 0s25 11.193 25 25z"/></clipPath><clipPath id="bgb"><path d="M38 14v22l-13 2V16zM12 36l13 2V16l-13-2z"/></clipPath></defs><path d="M50 25c0 13.807-11.193 25-25 25S0 38.807 0 25 11.193 0 25 0s25 11.193 25 25z"/><path d="M50 25c0 13.807-11.193 25-25 25S0 38.807 0 25 11.193 0 25 0s25 11.193 25 25z" clip-path="url(#bga)"/><g><path d="M38 14v22l-13 2V16zM12 36l13 2V16l-13-2z"/><path d="M38 14v22l-13 2V16zM12 36l13 2V16l-13-2z" clip-path="url(#bgb)"/></g></symbol><symbol viewBox="0 0 1324 126" id="text-premiere" xmlns="http://www.w3.org/2000/svg"><path d="M0 0h98.69c11.82.5 23.86 1.85 34.87 6.4 9.32 4.34 17.91 11.43 21.93 21.1 3.26 7.41 3.13 15.75 2.31 23.64-1.19 10.69-6.89 20.95-15.84 27.05-10.72 7.53-23.99 10.49-36.9 11.04-21.52.06-43.05 0-64.58.03.01 11.99.01 23.99 0 35.99H0V0m40.49 63.5c17.19.01 34.38-.02 51.57.01 5.53.11 11.17-.86 16.17-3.29 4.66-2.68 7.99-7.69 8.34-13.1.58-5.39.02-11.62-4.17-15.55-5.19-4.1-12.03-5-18.45-5.07H40.49c-.01 12.33-.01 24.67 0 37zM177.5 0h100.97c10.15.6 20.39 1.85 29.95 5.49 8.15 3.01 15.63 8.13 20.83 15.15 6.82 9.44 8.72 22.3 4.82 33.27-4.11 10.77-15.03 16.87-25.37 20.48 5.76 2.84 10.83 7.24 13.59 13.12 6.1 12.42 9.36 26.36 17.9 37.51-14.1-.06-28.2.02-42.29-.04-1.93.17-2.62-2.13-3.62-3.36-5.07-9.14-8.07-19.24-12.23-28.79-1.77-3.67-4.6-6.92-8.22-8.85-4.96-2.27-10.5-2.86-15.88-3.2-13.32-.07-26.63-.01-39.95-.03V125c-13.5-.01-27.01.01-40.51-.01.02-41.66 0-83.33.01-124.99M218 26v31h51.95c6.21-.04 12.7-.66 18.1-4.02 9.07-4.72 8.26-20.19-1.01-24.25-5.27-2.6-11.28-2.51-17.01-2.72-17.35-.02-34.69-.01-52.03-.01zM363.31 0h138.7v26c-32.91.01-65.82-.01-98.73.01.01 7.66 0 15.32 0 22.98 30.13.02 60.25 0 90.38.02-.01 8.75.01 17.5-.01 26.24-30.21-.01-60.42.01-90.63 0-.01 8 0 16 0 24 33.17 0 66.34-.01 99.52 0-.06 8.92.11 17.84-.1 26.75H363.49c-.29-3.33-.17-6.67-.18-10 .01-38.67 0-77.33 0-116zM527.6 0h55.06c15.18 26.54 30.22 53.17 45.33 79.76C643.15 53.18 658.18 26.54 673.4 0h55.32c-.07 42 .15 84-.11 126h-36.09c-.25-32.25-.04-64.5-.11-96.75-15.15 26-30.29 52.01-45.46 78-12.62 0-25.24-.01-37.86.01-15.15-26.01-30.3-52.01-45.45-78.01-.06 32.25.15 64.5-.1 96.75h-35.87c-.17-42-.03-84-.07-126zM761.64 0h40.49c-.01 31.32-.01 62.64 0 93.95-.22 10.68.43 21.4-.35 32.05H761.7c-.15-42-.02-84-.06-126zM834.8 0h138.69v26h-98.72c-.01 7.67-.01 15.33 0 23h90.63c-.01 8.75 0 17.5-.01 26.25-30.21 0-60.41.01-90.62 0-.01 8-.01 15.99 0 23.99 33.16.01 66.33.01 99.5 0 0 8.92.04 17.84-.03 26.76H835.63c-1.39-1.29-.66-3.37-.86-5.03.06-40.32.01-80.65.03-120.97zM998.75 0h100.78c11.89.69 24.03 2.36 34.88 7.55 10.48 5.06 19.46 14.35 21.83 26.02 1.43 8.21 1.41 17.3-3.09 24.62-5.16 8.26-14.27 13.03-23.2 16.18 3.63 2.12 7.38 4.31 10.03 7.67 4.12 5.16 6.26 11.49 8.66 17.56 3.46 8.81 6.95 17.81 12.73 25.42-14.47-.03-28.94-.04-43.4 0-7.77-10.08-9.78-23.12-15.73-34.14-4.54-8.26-14.7-9.7-23.2-10.11-13.26-.05-26.53-.01-39.79-.01V125h-40.5V0M1039 26v31h43.05c9.26-.09 19.37.9 27.57-4.34 7.29-4.03 7.64-15.01 2.66-20.98-5.28-5.34-13.34-5.44-20.34-5.66-17.65-.05-35.29-.01-52.94-.02zM1184.52 0h138.7c-.01 8.67-.01 17.33 0 26-32.92.03-65.84-.05-98.76.03.05 7.66 0 15.32.03 22.97h90.63c-.01 8.75.01 17.5-.01 26.25-30.21.01-60.42-.01-90.63 0 .01 8-.02 16 .01 24 33.17-.01 66.34 0 99.51 0V126h-139.39c-.21-42-.04-84-.09-126z"/></symbol><symbol viewBox="0 0 473 262" id="triangle" xmlns="http://www.w3.org/2000/svg"><path d="M.14 0h472.73c0 17.07.02 34.14-.01 51.21-36.57-.09-73.13 9.58-104.81 27.87-31.41 18-58.03 44.25-76.52 75.37-19.28 32.31-29.58 69.92-29.42 107.55h-51.22c.05-33.46-7.96-66.94-23.44-96.62-17.98-35.08-46.17-64.8-80.08-84.87C75.12 61.36 37.65 51.05.13 51.25.13 34.16.11 17.08.14 0z"/></symbol><symbol viewBox="0 0 512 512" id="vkontakte" xmlns="http://www.w3.org/2000/svg"><path d="M250.49 0h11.07c40.28.93 80.36 11.31 115.8 30.53 46.63 25.06 85.17 64.95 108.43 112.53 16.55 33.29 25.32 70.3 26.21 107.44v11.08c-.94 40.04-11.19 79.89-30.2 115.17-17.88 33.42-43.29 62.76-73.79 85.27-42.09 31.31-94.05 48.9-146.49 49.98h-11.06c-44.23-.99-88.18-13.48-126.08-36.36-48.14-28.79-86.35-73.8-106.75-126.07C6.57 321.56.74 291.57 0 261.48v-11.04c1.07-48.34 15.93-96.38 43.02-136.48 22.48-33.9 53.31-62.18 88.86-81.93C168.02 11.87 209.14.92 250.49 0m-50.58 157.94c-2.12 2.24-4.85 4.51-4.9 7.86 3.52 1.28 7.38 1.6 10.7 3.44 5.85 3.14 9.58 9.31 10.31 15.83 2.05 16.5 2.18 33.26.35 49.78-1.04 5.83-1.95 12.74-7.13 16.46-4.25 2.65-9.11-.49-12.27-3.41-5.33-5.03-9.62-11.05-13.73-17.08-12.37-18.19-22.46-37.86-30.65-58.26-1.3-3.2-2.74-6.51-5.41-8.82-2.82-2.31-6.48-3.44-10.12-3.36-17.36.05-34.74-.67-52.1.07-3.18.16-6.83.88-8.6 3.84-1.84 3.59-.28 7.69 1.16 11.14 19.81 42.81 41.63 85.06 70.18 122.79 17.93 23.52 41.75 43.59 70.24 52.7 17.1 5.52 35.3 6.88 53.16 5.81 3.88-.32 8.11-.78 11.2-3.39 3.8-3.24 4.24-8.65 4.45-13.31.07-6.96 1.06-13.98 3.74-20.44 1.38-3.76 3.78-7.41 7.53-9.13 3.58-1.76 7.79-.53 11 1.46 7.51 5.08 12.86 12.53 18.96 19.09 8.65 9.47 17.09 20.28 29.64 24.66 7.47 2.9 15.56 1.63 23.36 1.83 14.98-.06 29.97.11 44.94-.08 6.11-.42 9.71-6.81 9.47-12.44-.17-6.64-4.38-12.2-7.89-17.52-11.73-16.99-27.99-29.98-42.42-44.51-3.64-3.9-7.77-8.26-7.96-13.91.07-6.32 4.09-11.61 7.47-16.63 10.87-15.33 22.3-30.26 33.42-45.41 7.68-10.58 14.78-21.98 17.81-34.83.73-2.73.13-5.92-2.04-7.84-3.03-2.35-6.95-3.38-10.74-3.23-20.61.1-41.23-.09-61.84.1-5.31.12-9.24 4.4-10.97 9.08-11.43 26.67-23.86 53.69-43.78 75.22-2.56 2.5-4.85 5.64-8.35 6.87-3.93 1.02-7.43-1.88-9.29-5.07-2.24-4.05-3.44-8.69-3.33-13.32.04-20.98 0-41.97.03-62.95-.14-4.28-.74-8.78-3.05-12.48-2.54-3.6-7.13-5.44-11.45-5.32-19.35.03-38.69.02-58.04.01-4.71-.03-9.7 1.19-13.06 4.7z"/></symbol><symbol viewBox="0 0 512 158" id="yesidea" xmlns="http://www.w3.org/2000/svg"><path d="M41.38 0h2.3c2.81.43 5.54 1.65 7.34 3.92 4.62 4.97 2.9 13.97-3.18 16.96-5.69 3.3-13.61.15-15.69-6.02C29.52 8.37 34.49.65 41.38 0z"/><path d="M4.6 15.55c4.33-2.71 10.72-.96 12.96 3.65 8.45 15.92 16.66 31.96 25.15 47.86 8.24-15.89 16.55-31.74 24.81-47.61 1.87-3.73 6.28-6 10.39-4.93 5.01.94 8.38 6.59 7 11.44-1.08 3.31-3.1 6.19-4.64 9.28-8.85 17.18-17.86 34.27-26.77 51.42-1.81 2.79-1.18 6.18-1.26 9.31.01 17.34.01 34.68 0 52.02.21 5.01-4.3 9.5-9.26 9.54-5.21.38-10.31-4.15-9.97-9.49-.03-19.05 0-38.1 0-57.15.22-2.19-1.19-3.97-2.12-5.82C21.2 66.48 11.49 47.89 1.78 29.3 1.01 27.83.35 26.29 0 24.66V22.5c.62-2.77 1.89-5.68 4.6-6.95zM241.21 23.17c5.49-2.65 12.62 1.66 12.62 7.8.11 26.37.01 52.75.04 79.12.27 3.82-1.9 7.78-5.6 9.09-5.06 2.38-12.01-1.31-12.22-7.06-.12-26.74-.01-53.48-.06-80.22-.27-3.63 1.84-7.3 5.22-8.73zM320.88 32.01c-.34-4.65 3.31-9.43 8.14-9.5 5.28-.66 10.2 4.22 9.73 9.48-.03 39 .04 78-.03 116.99.03 6.18-7.13 10.34-12.64 7.96-2.57-1.05-4.13-3.5-4.94-6.04-9.91 6.71-22.82 8.37-34.21 4.91-16.32-4.68-28.34-20.82-28.18-37.79.02-6.67-.04-13.35.02-20.02.36-12.83 7.52-25.13 18.33-31.98 12.96-8.53 30.86-8.3 43.78.21-.01-11.41-.01-22.82 0-34.22m-29.43 46.73c-6.43 2.09-11.67 7.37-13.82 13.77-1.79 4.97-.95 10.32-1.13 15.48.23 5.76-.78 11.76 1.3 17.29 3.05 8.65 11.94 14.83 21.16 14.37 10.89.26 20.92-8.76 21.81-19.62.24-6.67.03-13.35.11-20.03.23-7.7-3.96-15.37-10.66-19.23-5.56-3.39-12.61-4.03-18.77-2.03zM170.51 59.67c8.22-1.18 17.05-.02 23.89 4.96 4.19 3.13 8.2 7.24 9.66 12.36 1.06 7.27-8 12.09-14.07 8.99-3.9-1.27-4.78-5.97-8.41-7.59-5.84-3.29-14.89-.45-16.47 6.46-1.65 6.32 4.74 12.26 10.85 11.89 13.6-.35 27.09 8.51 31.68 21.39 3.57 10.09.38 21.89-7.1 29.37-13.14 12.9-36.34 13.57-49.78.8-3.25-3.44-6.89-7.37-7.29-12.31.18-6.69 8.52-10.75 14.24-7.78 4.38 1.55 5.12 6.83 8.84 9.18 6.89 4.57 17.69 2.41 21.56-5.15 2.86-5.4.36-12.63-5.02-15.37-4.85-3.23-10.91-1.56-16.22-3.21-9.31-2.5-17.57-9.54-20.79-18.71-3.11-8.87-.38-19.11 5.88-25.93 4.89-5.1 11.57-8.36 18.55-9.35z"/><path d="M82.18 65.21c8.19-4.77 18.08-5.87 27.34-4.45 15.7 2.57 28.86 15.79 31.85 31.34 1.28 5.68 1.19 12.13-2.09 17.16-2.87 5.44-9.11 8.67-15.18 8.48-14.82.03-29.63-.01-44.44.02.17 6.81 3.39 13.55 8.97 17.55 8.55 6.35 22.11 5.87 29.36-2.29 2.14-2.19 3.68-5.43 6.98-6.04 6.57-1.67 13.43 5.46 10.65 11.96-4.9 9.21-14.4 15.53-24.47 17.79-8.43 1.58-17.43.97-25.32-2.54-11.3-4.88-19.99-15.33-22.77-27.32-1.56-6.18-.94-12.6-1.06-18.91.08-6.5-.52-13.19 1.55-19.47 2.8-9.84 9.88-18.14 18.63-23.28m8.59 15.63c-6.81 3.68-11.07 11.33-11.08 19.02 14.8.02 29.6.01 44.4.01.01-7.48-4.01-14.64-10.31-18.62-6.83-4.3-16.02-4.4-23.01-.41zM358.7 67.66c14.99-11.08 38.02-10.13 51.29 3.3 7.95 7.43 12.55 18.21 12.4 29.08-.01 8.7-7 17.23-15.96 17.62-15.46.24-30.94-.03-46.4.13.2 7.72 4.44 15.15 11.19 18.97 8.65 4.87 20.75 3.57 27.45-4.02 1.91-2.5 3.78-5.61 7.27-5.88 6.75-1.23 13.05 6.53 9.66 12.75-5.63 9.42-15.77 16.02-26.66 17.43-7.44.91-15.17.26-22.12-2.67-13.36-5.45-23.13-18.63-24.33-33.03-.28-7.13-.03-14.27-.12-21.41-.2-12.54 6.13-24.96 16.33-32.27m9.33 15.46c-4.95 4.06-7.59 10.41-7.85 16.73 14.83.07 29.67-.01 44.51.04-.14-7.87-4.51-15.58-11.52-19.29-7.83-4.39-18.3-3.24-25.14 2.52zM456.8 60.83c10.78-2.6 22.58-.61 31.81 5.58.92-4.27 5.07-7.32 9.44-6.65 4.61.3 8.47 4.51 8.3 9.15.05 26.36.02 52.72.01 79.08.42 5.1-4.22 9.89-9.34 9.54-4.1.34-7.41-2.96-8.43-6.69-14.98 10.51-37 8.39-50.06-4.28-8.16-7.83-12.73-19.19-12.29-30.49.4-9.62-1.19-19.55 1.95-28.86 4.17-12.92 15.33-23.38 28.61-26.38m2.63 17.74c-8.76 2.61-15.3 11.23-15.3 20.39-.03 6.34 0 12.68-.02 19.03-.06 7.92 4.7 15.68 11.79 19.22 4.91 2.56 10.79 3.1 16.13 1.71 9.02-2.16 16.01-10.73 16.43-19.99.11-6.31 0-12.63.05-18.94.14-8.06-4.44-16.17-11.71-19.78-5.25-2.89-11.67-3.34-17.37-1.64zM242.53 135.61c6.45-1.67 13.41 3.72 13.49 10.35.53 6.46-5.62 12.28-12.03 11.53-6.5-.35-11.66-7.35-9.82-13.67 1-4.01 4.25-7.41 8.36-8.21z"/></symbol><symbol id="parking" viewBox="0 0 24 23" xmlns="http://www.w3.org/2000/svg"><rect width="1.84615" height="22.1538" fill="#1F252F"/><rect x="5.53857" width="1.84615" height="22.1538" fill="#1F252F"/><rect x="11.0771" width="1.84615" height="22.1538" fill="#1F252F"/><rect x="0.922852" y="10.1538" width="1.84615" height="22.1538" transform="rotate(-90 0.922852 10.1538)" fill="#1F252F"/><rect x="0.922852" y="13.8462" width="1.84615" height="22.1538" transform="rotate(-90 0.922852 13.8462)" fill="#1F252F"/><rect x="16.6152" width="1.84615" height="22.1538" fill="#1F252F"/><rect x="22.1543" width="1.84615" height="22.1538" fill="#1F252F"/></symbol></svg>
