<svg width="50" height="50" viewBox="0 0 50 50" fill="none" xmlns="http://www.w3.org/2000/svg">
<circle cx="25" cy="25" r="23.5" fill="#1F252F" stroke="#F6AC6D" stroke-width="3"/>
<path d="M40.5068 28.1781C40.5068 33.0503 33.4538 37 24.7534 37C16.053 37 9 33.0503 9 28.1781" stroke="white" stroke-width="3"/>
<path d="M36.0961 34.4795L32.9454 22H35.5742C36.6494 22 37.5321 21.15 37.5727 20.0756L37.6111 19.0621C37.6464 18.1285 37.0306 17.2949 36.1278 17.0541L32.9454 16.2055L32 14H29L28 20H16L13.4111 34.4795" stroke="white" stroke-width="3"/>
<path d="M10 23C10.5263 22 12.2632 20 15 20" stroke="white" stroke-width="3"/>
<path d="M31.6848 35.7397C31.6848 31.9116 28.5814 28.8082 24.7533 28.8082C20.9251 28.8082 17.8218 31.9116 17.8218 35.7397" stroke="white" stroke-width="3"/>
</svg>
