<svg width="50" height="50" viewBox="0 0 50 50" fill="none" xmlns="http://www.w3.org/2000/svg">
<circle cx="25" cy="25" r="23.5" fill="#1F252F" stroke="#F6AC6D" stroke-width="3"/>
<line x1="10" y1="33.5" x2="41" y2="33.5" stroke="white" stroke-width="3"/>
<line x1="25.5" y1="11" x2="25.5" y2="15" stroke="white" stroke-width="3"/>
<mask id="path-4-inside-1" fill="white">
<path fill-rule="evenodd" clip-rule="evenodd" d="M13 24.05C13 17.9472 18.5181 13 25.325 13C32.1319 13 37.65 17.9472 37.65 24.05C37.65 24.05 37.65 24.05 37.65 24.05V30H13V24.05C13 24.05 13 24.05 13 24.05Z"/>
</mask>
<path d="M13 24.05L10 24.0499V24.05H13ZM37.65 24.05H40.65V24.0499L37.65 24.05ZM37.65 30V33H40.65V30H37.65ZM13 30H10V33H13V30ZM25.325 10C17.1778 10 10 15.9907 10 24.0499L16 24.05C16 19.9038 19.8585 16 25.325 16V10ZM40.65 24.0499C40.65 15.9907 33.4722 10 25.325 10V16C30.7915 16 34.65 19.9038 34.65 24.05L40.65 24.0499ZM40.65 24.05C40.65 24.05 40.65 24.05 40.65 24.05C40.65 24.05 40.65 24.05 40.65 24.05V24.05C40.65 24.05 40.65 24.05 40.65 24.05C40.65 24.05 40.65 24.05 40.65 24.05C40.65 24.05 40.65 24.05 40.65 24.05C40.65 24.05 40.65 24.05 40.65 24.05C40.65 24.05 40.65 24.05 40.65 24.05C40.65 24.05 40.65 24.05 40.65 24.05C40.65 24.05 40.65 24.05 40.65 24.05C40.65 24.05 40.65 24.05 40.65 24.05C40.65 24.05 40.65 24.05 40.65 24.05V24.05C40.65 24.05 40.65 24.05 40.65 24.05V24.05C40.65 24.05 40.65 24.05 40.65 24.05C40.65 24.05 40.65 24.05 40.65 24.05V24.05C40.65 24.05 40.65 24.05 40.65 24.05C40.65 24.05 40.65 24.05 40.65 24.05V24.05C40.65 24.05 40.65 24.05 40.65 24.05C40.65 24.05 40.65 24.05 40.65 24.05V24.05C40.65 24.05 40.65 24.05 40.65 24.05V24.05C40.65 24.05 40.65 24.05 40.65 24.05C40.65 24.05 40.65 24.05 40.65 24.05V24.05C40.65 24.05 40.65 24.05 40.65 24.05C40.65 24.05 40.65 24.05 40.65 24.05V24.05C40.65 24.05 40.65 24.05 40.65 24.05C40.65 24.05 40.65 24.05 40.65 24.05V24.05C40.65 24.05 40.65 24.05 40.65 24.05V24.05C40.65 24.05 40.65 24.05 40.65 24.05C40.65 24.05 40.65 24.05 40.65 24.05C40.65 24.05 40.65 24.05 40.65 24.05C40.65 24.05 40.65 24.05 40.65 24.05C40.65 24.05 40.65 24.05 40.65 24.05C40.65 24.05 40.65 24.05 40.65 24.05C40.65 24.05 40.65 24.05 40.65 24.05C40.65 24.05 40.65 24.05 40.65 24.05C40.65 24.05 40.65 24.05 40.65 24.05V24.05C40.65 24.05 40.65 24.05 40.65 24.05C40.65 24.05 40.65 24.05 40.65 24.05H34.65C34.65 24.05 34.65 24.05 34.65 24.05C34.65 24.05 34.65 24.05 34.65 24.05V24.05C34.65 24.05 34.65 24.05 34.65 24.05C34.65 24.05 34.65 24.05 34.65 24.05C34.65 24.05 34.65 24.05 34.65 24.05C34.65 24.05 34.65 24.05 34.65 24.05C34.65 24.05 34.65 24.05 34.65 24.05C34.65 24.05 34.65 24.05 34.65 24.05C34.65 24.05 34.65 24.05 34.65 24.05C34.65 24.05 34.65 24.05 34.65 24.05C34.65 24.05 34.65 24.05 34.65 24.05V24.05C34.65 24.05 34.65 24.05 34.65 24.05V24.05C34.65 24.05 34.65 24.05 34.65 24.05C34.65 24.05 34.65 24.05 34.65 24.05V24.05C34.65 24.05 34.65 24.05 34.65 24.05C34.65 24.05 34.65 24.05 34.65 24.05V24.05C34.65 24.05 34.65 24.05 34.65 24.05C34.65 24.05 34.65 24.05 34.65 24.05V24.05C34.65 24.05 34.65 24.05 34.65 24.05V24.05C34.65 24.05 34.65 24.05 34.65 24.05C34.65 24.05 34.65 24.05 34.65 24.05V24.05C34.65 24.05 34.65 24.05 34.65 24.05C34.65 24.05 34.65 24.05 34.65 24.05V24.05C34.65 24.05 34.65 24.05 34.65 24.05C34.65 24.05 34.65 24.05 34.65 24.05V24.05C34.65 24.05 34.65 24.05 34.65 24.05V24.05C34.65 24.05 34.65 24.05 34.65 24.05C34.65 24.05 34.65 24.05 34.65 24.05C34.65 24.05 34.65 24.05 34.65 24.05C34.65 24.05 34.65 24.05 34.65 24.05C34.65 24.05 34.65 24.05 34.65 24.05C34.65 24.05 34.65 24.05 34.65 24.05C34.65 24.05 34.65 24.05 34.65 24.05C34.65 24.05 34.65 24.05 34.65 24.05C34.65 24.05 34.65 24.05 34.65 24.05V24.05C34.65 24.05 34.65 24.05 34.65 24.05C34.65 24.05 34.65 24.05 34.65 24.05H40.65ZM34.65 24.05V30H40.65V24.05H34.65ZM37.65 27H13V33H37.65V27ZM16 30V24.05H10V30H16ZM10 24.05C10 24.05 10 24.05 10 24.05C10 24.05 10 24.05 10 24.05V24.05C10 24.05 10 24.05 10 24.05C10 24.05 10 24.05 10 24.05C10 24.05 10 24.05 10 24.05C10 24.05 10 24.05 10 24.05C10 24.05 10 24.05 10 24.05C10 24.05 10 24.05 10 24.05C10 24.05 10 24.05 10 24.05C10 24.05 10 24.05 10 24.05C10 24.05 10 24.05 10 24.05V24.05C10 24.05 10 24.05 10 24.05V24.05C10 24.05 10 24.05 10 24.05C10 24.05 10 24.05 10 24.05V24.05C10 24.05 10 24.05 10 24.05C10 24.05 10 24.05 10 24.05V24.05C10 24.05 10 24.05 10 24.05C10 24.05 10 24.05 10 24.05V24.05C10 24.05 10 24.05 10 24.05V24.05C10 24.05 10 24.05 10 24.05C10 24.05 10 24.05 10 24.05V24.05C10 24.05 10 24.05 10 24.05C10 24.05 10 24.05 10 24.05V24.05C10 24.05 10 24.05 10 24.05C10 24.05 10 24.05 10 24.05V24.05C10 24.05 10 24.05 10 24.05V24.05C10 24.05 10 24.05 10 24.05C10 24.05 10 24.05 10 24.05C10 24.05 10 24.05 10 24.05C10 24.05 10 24.05 10 24.05C10 24.05 10 24.05 10 24.05C10 24.05 10 24.05 10 24.05C10 24.05 10 24.05 10 24.05C10 24.05 10 24.05 10 24.05C10 24.05 10 24.05 10 24.05V24.05C10 24.05 10 24.05 10 24.05C10 24.05 10 24.05 10 24.05H16C16 24.05 16 24.05 16 24.05C16 24.05 16 24.05 16 24.05V24.05C16 24.05 16 24.05 16 24.05C16 24.05 16 24.05 16 24.05C16 24.05 16 24.05 16 24.05C16 24.05 16 24.05 16 24.05C16 24.05 16 24.05 16 24.05C16 24.05 16 24.05 16 24.05C16 24.05 16 24.05 16 24.05C16 24.05 16 24.05 16 24.05C16 24.05 16 24.05 16 24.05V24.05C16 24.05 16 24.05 16 24.05V24.05C16 24.05 16 24.05 16 24.05C16 24.05 16 24.05 16 24.05V24.05C16 24.05 16 24.05 16 24.05C16 24.05 16 24.05 16 24.05V24.05C16 24.05 16 24.05 16 24.05C16 24.05 16 24.05 16 24.05V24.05C16 24.05 16 24.05 16 24.05V24.05C16 24.05 16 24.05 16 24.05C16 24.05 16 24.05 16 24.05V24.05C16 24.05 16 24.05 16 24.05C16 24.05 16 24.05 16 24.05V24.05C16 24.05 16 24.05 16 24.05C16 24.05 16 24.05 16 24.05V24.05C16 24.05 16 24.05 16 24.05V24.05C16 24.05 16 24.05 16 24.05C16 24.05 16 24.05 16 24.05C16 24.05 16 24.05 16 24.05C16 24.05 16 24.05 16 24.05C16 24.05 16 24.05 16 24.05C16 24.05 16 24.05 16 24.05C16 24.05 16 24.05 16 24.05C16 24.05 16 24.05 16 24.05C16 24.05 16 24.05 16 24.05V24.05C16 24.05 16 24.05 16 24.05C16 24.05 16 24.05 16 24.05H10Z" fill="white" mask="url(#path-4-inside-1)"/>
</svg>
