<svg width="49" height="71" viewBox="0 0 49 71" fill="none" xmlns="http://www.w3.org/2000/svg">
<g clip-path="url(#clip0)">
<path d="M24.4945 0C10.9906 0 0 11.0059 0 24.5286C0 41.5287 24.5276 70.5723 24.5276 70.5723C24.5276 70.5723 49 40.6897 49 24.5286C49 11.0059 38.0094 0 24.4945 0ZM31.8913 31.715C29.852 33.7572 27.1732 34.7728 24.4945 34.7728C21.8157 34.7728 19.137 33.7572 17.0976 31.715C13.0189 27.6306 13.0189 20.9962 17.0976 16.9117C19.0709 14.9358 21.6945 13.8429 24.4945 13.8429C27.2835 13.8429 29.9071 14.9358 31.8913 16.9117C35.9701 20.9962 35.9701 27.6306 31.8913 31.715Z" fill="#F6AC6D"/>
<ellipse cx="25.0833" cy="25.6666" rx="14.5833" ry="14.5833" fill="#F6AC6D"/>
</g>
<path d="M32.0506 26.0686C32.0506 26.4538 31.7585 26.7428 31.3691 26.7428H29.2274C28.838 26.7428 28.5459 26.4538 28.5459 26.0686V23.9496C28.5459 23.5643 28.838 23.2754 29.2274 23.2754H31.3691C31.7585 23.2754 32.0506 23.5643 32.0506 23.9496V26.0686Z" fill="#1F252F"/>
<path d="M32.0512 31.7512C32.0512 32.1364 31.7592 32.4254 31.3698 32.4254H23.4842C23.0948 32.4254 22.8027 32.1364 22.8027 31.7512V29.6322C22.8027 29.247 23.0948 28.958 23.4842 28.958H31.3698C31.7592 28.958 32.0512 29.247 32.0512 29.6322V31.7512Z" fill="#1F252F"/>
<path d="M23.8722 20.0006C23.6775 20.1933 23.6775 20.4822 23.7749 20.6748C23.8722 20.8675 24.0669 21.0601 24.359 21.0601H25.8193C26.2087 21.0601 26.5008 20.7712 26.5008 20.3859V19.0375C26.5008 18.7485 26.3061 18.5559 26.1113 18.4596C25.9166 18.3633 25.6246 18.4596 25.4299 18.5559L23.8722 20.0006Z" fill="#1F252F"/>
<path d="M28.8383 15.0884C28.7409 15.1847 28.6436 15.3774 28.6436 15.57V20.4821C28.6436 20.8674 28.9356 21.1563 29.325 21.1563H31.4668C31.8562 21.1563 32.1482 20.8674 32.1482 20.4821V13.451C32.1482 13.1621 31.9535 12.9695 31.7588 12.8731C31.5641 12.7768 31.2721 12.8731 31.0774 12.9695L28.8383 15.0884Z" fill="#1F252F"/>
<path d="M18.1291 25.6833C17.9344 25.8759 17.9344 26.1649 18.0317 26.3575C18.1291 26.5501 18.3238 26.7428 18.6158 26.7428H25.7226C26.112 26.7428 26.404 26.4538 26.404 26.0686V23.9496C26.404 23.5643 26.112 23.2754 25.7226 23.2754H20.7576C20.5629 23.2754 20.4655 23.3717 20.2708 23.468L18.1291 25.6833Z" fill="#1F252F"/>
<path d="M12.4829 31.2695C12.2882 31.4621 12.1908 31.7511 12.2882 31.9437C12.3855 32.1363 12.5802 32.329 12.8723 32.329H19.8817C20.0764 32.329 20.1738 32.2326 20.3685 32.1363C20.4658 32.04 20.5632 31.8474 20.5632 31.6547V29.5358C20.5632 29.1505 20.2711 28.8616 19.8817 28.8616H15.1114C14.9167 28.8616 14.8194 28.9579 14.6247 29.0542L12.4829 31.2695Z" fill="#1F252F"/>
<defs>
<clipPath id="clip0">
<rect width="49" height="70.5833" fill="white"/>
</clipPath>
</defs>
</svg>
